  0
SECTION
  2
HEADER
  9
$ACADVER
  1
AC1027
  9
$ACADMAINTVER
 70
   105
  9
$DWGCODEPAGE
  3
ANSI_1252
  9
$REQUIREDVERSIONS
160
                 0
  9
$INSBASE
 10
0.0
 20
0.0
 30
0.0
  9
$EXTMIN
 10
1.000000000000000E+20
 20
1.000000000000000E+20
 30
1.000000000000000E+20
  9
$EXTMAX
 10
-1.000000000000000E+20
 20
-1.000000000000000E+20
 30
-1.000000000000000E+20
  9
$LIMMIN
 10
0.0
 20
0.0
  9
$LIMMAX
 10
12.0
 20
9.0
  9
$ORTHOMODE
 70
     0
  9
$REGENMODE
 70
     1
  9
$FILLMODE
 70
     1
  9
$QTEXTMODE
 70
     0
  9
$MIRRTEXT
 70
     1
  9
$LTSCALE
 40
1.0
  9
$ATTMODE
 70
     1
  9
$TEXTSIZE
 40
0.2
  9
$TRACEWID
 40
0.05
  9
$TEXTSTYLE
  7
Standard
  9
$CLAYER
  8
0
  9
$CELTYPE
  6
ByLayer
  9
$CECOLOR
 62
   256
  9
$CELTSCALE
 40
1.0
  9
$DISPSILH
 70
     0
  9
$DIMSCALE
 40
1.0
  9
$DIMASZ
 40
2.5
  9
$DIMEXO
 40
0.625
  9
$DIMDLI
 40
0.38
  9
$DIMRND
 40
0.0
  9
$DIMDLE
 40
0.0
  9
$DIMEXE
 40
1.25
  9
$DIMTP
 40
0.0
  9
$DIMTM
 40
0.0
  9
$DIMTXT
 40
2.5
  9
$DIMCEN
 40
0.09
  9
$DIMTSZ
 40
0.0
  9
$DIMTOL
 70
     0
  9
$DIMLIM
 70
     0
  9
$DIMTIH
 70
     1
  9
$DIMTOH
 70
     1
  9
$DIMSE1
 70
     0
  9
$DIMSE2
 70
     0
  9
$DIMTAD
 70
     0
  9
$DIMZIN
 70
     8
  9
$DIMBLK
  1

  9
$DIMASO
 70
     1
  9
$DIMSHO
 70
     1
  9
$DIMPOST
  1

  9
$DIMAPOST
  1

  9
$DIMALT
 70
     0
  9
$DIMALTD
 70
     2
  9
$DIMALTF
 40
25.4
  9
$DIMLFAC
 40
1.0
  9
$DIMTOFL
 70
     0
  9
$DIMTVP
 40
0.0
  9
$DIMTIX
 70
     0
  9
$DIMSOXD
 70
     0
  9
$DIMSAH
 70
     0
  9
$DIMBLK1
  1

  9
$DIMBLK2
  1

  9
$DIMSTYLE
  2
Standard
  9
$DIMCLRD
 70
     0
  9
$DIMCLRE
 70
     0
  9
$DIMCLRT
 70
     0
  9
$DIMTFAC
 40
1.0
  9
$DIMGAP
 40
0.625
  9
$DIMJUST
 70
     0
  9
$DIMSD1
 70
     0
  9
$DIMSD2
 70
     0
  9
$DIMTOLJ
 70
     1
  9
$DIMTZIN
 70
     0
  9
$DIMALTZ
 70
     0
  9
$DIMALTTZ
 70
     0
  9
$DIMUPT
 70
     0
  9
$DIMDEC
 70
     4
  9
$DIMTDEC
 70
     4
  9
$DIMALTU
 70
     2
  9
$DIMALTTD
 70
     2
  9
$DIMTXSTY
  7
Standard
  9
$DIMAUNIT
 70
     0
  9
$DIMADEC
 70
     0
  9
$DIMALTRND
 40
0.0
  9
$DIMAZIN
 70
     2
  9
$DIMDSEP
 70
    46
  9
$DIMATFIT
 70
     3
  9
$DIMFRAC
 70
     0
  9
$DIMLDRBLK
  1

  9
$DIMLUNIT
 70
     2
  9
$DIMLWD
 70
    -2
  9
$DIMLWE
 70
    -2
  9
$DIMTMOVE
 70
     0
  9
$DIMFXL
 40
1.0
  9
$DIMFXLON
 70
     0
  9
$DIMJOGANG
 40
0.7853981633974483
  9
$DIMTFILL
 70
     0
  9
$DIMTFILLCLR
 70
     0
  9
$DIMARCSYM
 70
     0
  9
$DIMLTYPE
  6

  9
$DIMLTEX1
  6

  9
$DIMLTEX2
  6

  9
$DIMTXTDIRECTION
 70
     0
  9
$LUNITS
 70
     2
  9
$LUPREC
 70
     4
  9
$SKETCHINC
 40
0.1
  9
$FILLETRAD
 40
0.5
  9
$AUNITS
 70
     0
  9
$AUPREC
 70
     0
  9
$MENU
  1
.
  9
$ELEVATION
 40
0.0
  9
$PELEVATION
 40
0.0
  9
$THICKNESS
 40
0.0
  9
$LIMCHECK
 70
     0
  9
$CHAMFERA
 40
0.0
  9
$CHAMFERB
 40
0.0
  9
$CHAMFERC
 40
0.0
  9
$CHAMFERD
 40
0.0
  9
$SKPOLY
 70
     0
  9
$TDCREATE
 40
2458062.948039109
  9
$TDUCREATE
 40
2458062.906372442
  9
$TDUPDATE
 40
2458062.948039433
  9
$TDUUPDATE
 40
2458062.906372766
  9
$TDINDWG
 40
0.0000000116
  9
$TDUSRTIMER
 40
0.0000000116
  9
$USRTIMER
 70
     1
  9
$ANGBASE
 50
0.0
  9
$ANGDIR
 70
     0
  9
$PDMODE
 70
     0
  9
$PDSIZE
 40
0.0
  9
$PLINEWID
 40
0.0
  9
$SPLFRAME
 70
     0
  9
$SPLINETYPE
 70
     6
  9
$SPLINESEGS
 70
     8
  9
$HANDSEED
  5
15A
  9
$SURFTAB1
 70
     6
  9
$SURFTAB2
 70
     6
  9
$SURFTYPE
 70
     6
  9
$SURFU
 70
     6
  9
$SURFV
 70
     6
  9
$UCSBASE
  2

  9
$UCSNAME
  2

  9
$UCSORG
 10
0.0
 20
0.0
 30
0.0
  9
$UCSXDIR
 10
1.0
 20
0.0
 30
0.0
  9
$UCSYDIR
 10
0.0
 20
1.0
 30
0.0
  9
$UCSORTHOREF
  2

  9
$UCSORTHOVIEW
 70
     0
  9
$UCSORGTOP
 10
0.0
 20
0.0
 30
0.0
  9
$UCSORGBOTTOM
 10
0.0
 20
0.0
 30
0.0
  9
$UCSORGLEFT
 10
0.0
 20
0.0
 30
0.0
  9
$UCSORGRIGHT
 10
0.0
 20
0.0
 30
0.0
  9
$UCSORGFRONT
 10
0.0
 20
0.0
 30
0.0
  9
$UCSORGBACK
 10
0.0
 20
0.0
 30
0.0
  9
$PUCSBASE
  2

  9
$PUCSNAME
  2

  9
$PUCSORG
 10
0.0
 20
0.0
 30
0.0
  9
$PUCSXDIR
 10
1.0
 20
0.0
 30
0.0
  9
$PUCSYDIR
 10
0.0
 20
1.0
 30
0.0
  9
$PUCSORTHOREF
  2

  9
$PUCSORTHOVIEW
 70
     0
  9
$PUCSORGTOP
 10
0.0
 20
0.0
 30
0.0
  9
$PUCSORGBOTTOM
 10
0.0
 20
0.0
 30
0.0
  9
$PUCSORGLEFT
 10
0.0
 20
0.0
 30
0.0
  9
$PUCSORGRIGHT
 10
0.0
 20
0.0
 30
0.0
  9
$PUCSORGFRONT
 10
0.0
 20
0.0
 30
0.0
  9
$PUCSORGBACK
 10
0.0
 20
0.0
 30
0.0
  9
$USERI1
 70
     0
  9
$USERI2
 70
     0
  9
$USERI3
 70
     0
  9
$USERI4
 70
     0
  9
$USERI5
 70
     0
  9
$USERR1
 40
0.0
  9
$USERR2
 40
0.0
  9
$USERR3
 40
0.0
  9
$USERR4
 40
0.0
  9
$USERR5
 40
0.0
  9
$WORLDVIEW
 70
     1
  9
$SHADEDGE
 70
     3
  9
$SHADEDIF
 70
    70
  9
$TILEMODE
 70
     1
  9
$MAXACTVP
 70
    32
  9
$PINSBASE
 10
0.0
 20
0.0
 30
0.0
  9
$PLIMCHECK
 70
     0
  9
$PEXTMIN
 10
0.0
 20
0.0
 30
0.0
  9
$PEXTMAX
 10
0.0
 20
0.0
 30
0.0
  9
$PLIMMIN
 10
-20.0
 20
-7.5
  9
$PLIMMAX
 10
277.0
 20
202.5
  9
$UNITMODE
 70
     0
  9
$VISRETAIN
 70
     1
  9
$PLINEGEN
 70
     0
  9
$PSLTSCALE
 70
     1
  9
$TREEDEPTH
 70
  3020
  9
$CMLSTYLE
  2
Standard
  9
$CMLJUST
 70
     0
  9
$CMLSCALE
 40
1.0
  9
$PROXYGRAPHICS
 70
     1
  9
$MEASUREMENT
 70
     1
  9
$CELWEIGHT
370
    -1
  9
$ENDCAPS
280
     0
  9
$JOINSTYLE
280
     0
  9
$LWDISPLAY
290
     0
  9
$INSUNITS
 70
     4
  9
$HYPERLINKBASE
  1

  9
$STYLESHEET
  1

  9
$XEDIT
290
     1
  9
$CEPSNTYPE
380
     0
  9
$PSTYLEMODE
290
     1
  9
$FINGERPRINTGUID
  2
{CE18DD37-959F-404D-A88A-FA24620EFF7E}
  9
$VERSIONGUID
  2
{FAEB1C32-E019-11D5-929B-00C0DF256EC4}
  9
$EXTNAMES
290
     1
  9
$PSVPSCALE
 40
0.0
  9
$OLESTARTUP
290
     0
  9
$SORTENTS
280
   127
  9
$INDEXCTL
280
     0
  9
$HIDETEXT
280
     1
  9
$XCLIPFRAME
280
     2
  9
$HALOGAP
280
     0
  9
$OBSCOLOR
 70
   257
  9
$OBSLTYPE
280
     0
  9
$INTERSECTIONDISPLAY
280
     0
  9
$INTERSECTIONCOLOR
 70
   257
  9
$DIMASSOC
280
     2
  9
$PROJECTNAME
  1

  9
$CAMERADISPLAY
290
     0
  9
$LENSLENGTH
 40
50.0
  9
$CAMERAHEIGHT
 40
0.0
  9
$STEPSPERSEC
 40
2.0
  9
$STEPSIZE
 40
6.0
  9
$3DDWFPREC
 40
2.0
  9
$PSOLWIDTH
 40
0.25
  9
$PSOLHEIGHT
 40
4.0
  9
$LOFTANG1
 40
1.570796326794897
  9
$LOFTANG2
 40
1.570796326794897
  9
$LOFTMAG1
 40
0.0
  9
$LOFTMAG2
 40
0.0
  9
$LOFTPARAM
 70
     7
  9
$LOFTNORMALS
280
     1
  9
$LATITUDE
 40
37.795
  9
$LONGITUDE
 40
-122.394
  9
$NORTHDIRECTION
 40
0.0
  9
$TIMEZONE
 70
 -8000
  9
$LIGHTGLYPHDISPLAY
280
     1
  9
$TILEMODELIGHTSYNCH
280
     1
  9
$CMATERIAL
347
AF
  9
$SOLIDHIST
280
     0
  9
$SHOWHIST
280
     1
  9
$DWFFRAME
280
     2
  9
$DGNFRAME
280
     2
  9
$REALWORLDSCALE
290
     1
  9
$INTERFERECOLOR
 62
   256
  9
$CSHADOW
280
     0
  9
$SHADOWPLANELOCATION
 40
0.0
  0
ENDSEC
  0
SECTION
  2
CLASSES
  0
CLASS
  1
ACDBDICTIONARYWDFLT
  2
AcDbDictionaryWithDefault
  3
ObjectDBX Classes
 90
        0
 91
        3
280
     0
281
     0
  0
CLASS
  1
VISUALSTYLE
  2
AcDbVisualStyle
  3
ObjectDBX Classes
 90
     4095
 91
        3
280
     0
281
     0
  0
CLASS
  1
MATERIAL
  2
AcDbMaterial
  3
ObjectDBX Classes
 90
     1153
 91
        3
280
     0
281
     0
  0
CLASS
  1
SCALE
  2
AcDbScale
  3
ObjectDBX Classes
 90
     1153
 91
        3
280
     0
281
     0
  0
CLASS
  1
TABLESTYLE
  2
AcDbTableStyle
  3
ObjectDBX Classes
 90
     4095
 91
        3
280
     0
281
     0
  0
CLASS
  1
MLEADERSTYLE
  2
AcDbMLeaderStyle
  3
ACDB_MLEADERSTYLE_CLASS
 90
     4095
 91
        3
280
     0
281
     0
  0
CLASS
  1
SUN
  2
AcDbSun
  3
SCENEOE
 90
     1153
 91
        3
280
     0
281
     0
  0
CLASS
  1
DICTIONARYVAR
  2
AcDbDictionaryVar
  3
ObjectDBX Classes
 90
        0
 91
        3
280
     0
281
     0
  0
CLASS
  1
CELLSTYLEMAP
  2
AcDbCellStyleMap
  3
ObjectDBX Classes
 90
     1152
 91
        3
280
     0
281
     0
  0
ENDSEC
  0
SECTION
  2
TABLES
  0
TABLE
  2
VPORT
  5
74
330
0
100
AcDbSymbolTable
 70
     1
  0
VPORT
  5
94
330
74
100
AcDbSymbolTableRecord
100
AcDbViewportTableRecord
  2
*Active
 70
     0
 10
0.0
 20
0.0
 11
1.0
 21
1.0
 12
1068.610042926835
 22
504.804979741531
 13
0.0
 23
0.0
 14
0.5
 24
0.5
 15
0.5
 25
0.5
 16
0.0
 26
0.0
 36
1.0
 17
0.0
 27
0.0
 37
0.0
 40
5556.829619517011
 41
2.121602288984263
 42
50.0
 43
0.0
 44
0.0
 50
0.0
 51
0.0
 71
     0
 72
   100
 73
     1
 74
     3
 75
     0
 76
     0
 77
     0
 78
     0
281
     0
 65
     1
110
0.0
120
0.0
130
0.0
111
1.0
121
0.0
131
0.0
112
0.0
122
1.0
132
0.0
 79
     0
146
0.0
348
9A
 60
     3
 61
     5
292
     1
282
     1
141
0.0
142
0.0
 63
   250
361
D8
  0
ENDTAB
  0
TABLE
  2
LTYPE
  5
71
330
0
100
AcDbSymbolTable
 70
    48
  0
LTYPE
  5
7F
330
71
100
AcDbSymbolTableRecord
100
AcDbLinetypeTableRecord
  2
ByBlock
 70
     0
  3

 72
    65
 73
     0
 40
0.0
  0
LTYPE
  5
80
330
71
100
AcDbSymbolTableRecord
100
AcDbLinetypeTableRecord
  2
ByLayer
 70
     0
  3

 72
    65
 73
     0
 40
0.0
  0
LTYPE
  5
81
330
71
100
AcDbSymbolTableRecord
100
AcDbLinetypeTableRecord
  2
Continuous
 70
     0
  3
Solid line
 72
    65
 73
     0
 40
0.0
  0
LTYPE
  5
10D
330
71
100
AcDbSymbolTableRecord
100
AcDbLinetypeTableRecord
  2
ACAD_ISO06W100
 70
     0
  3
ISO long-dash triple-dot ____ ... ____ ... ____
 72
    65
 73
     8
 40
36.0
 49
24.0
 74
     0
 49
-3.0
 74
     0
 49
0.0
 74
     0
 49
-3.0
 74
     0
 49
0.0
 74
     0
 49
-3.0
 74
     0
 49
0.0
 74
     0
 49
-3.0
 74
     0
  0
LTYPE
  5
10E
330
71
100
AcDbSymbolTableRecord
100
AcDbLinetypeTableRecord
  2
ACAD_ISO07W100
 70
     0
  3
ISO dot . . . . . . . . . . . . . . . . . . . . 
 72
    65
 73
     2
 40
3.0
 49
0.0
 74
     0
 49
-3.0
 74
     0
  0
LTYPE
  5
10F
330
71
100
AcDbSymbolTableRecord
100
AcDbLinetypeTableRecord
  2
ACAD_ISO12W100
 70
     0
  3
ISO dash double-dot __ . . __ . . __ . . __ . . 
 72
    65
 73
     6
 40
21.0
 49
12.0
 74
     0
 49
-3.0
 74
     0
 49
0.0
 74
     0
 49
-3.0
 74
     0
 49
0.0
 74
     0
 49
-3.0
 74
     0
  0
LTYPE
  5
110
330
71
100
AcDbSymbolTableRecord
100
AcDbLinetypeTableRecord
  2
ACAD_ISO13W100
 70
     0
  3
ISO double-dash double-dot __ __ . . __ __ . . _
 72
    65
 73
     8
 40
36.0
 49
12.0
 74
     0
 49
-3.0
 74
     0
 49
12.0
 74
     0
 49
-3.0
 74
     0
 49
0.0
 74
     0
 49
-3.0
 74
     0
 49
0.0
 74
     0
 49
-3.0
 74
     0
  0
LTYPE
  5
111
330
71
100
AcDbSymbolTableRecord
100
AcDbLinetypeTableRecord
  2
ACAD_ISO10W100
 70
     0
  3
ISO dash dot __ . __ . __ . __ . __ . __ . __ . 
 72
    65
 73
     4
 40
18.0
 49
12.0
 74
     0
 49
-3.0
 74
     0
 49
0.0
 74
     0
 49
-3.0
 74
     0
  0
LTYPE
  5
112
330
71
100
AcDbSymbolTableRecord
100
AcDbLinetypeTableRecord
  2
ACAD_ISO11W100
 70
     0
  3
ISO double-dash dot __ __ . __ __ . __ __ . __ _
 72
    65
 73
     6
 40
33.0
 49
12.0
 74
     0
 49
-3.0
 74
     0
 49
12.0
 74
     0
 49
-3.0
 74
     0
 49
0.0
 74
     0
 49
-3.0
 74
     0
  0
LTYPE
  5
115
330
71
100
AcDbSymbolTableRecord
100
AcDbLinetypeTableRecord
  2
BATTING
 70
     0
  3
Batting SSSSSSSSSSSSSSSSSSSSSSSSSSSSSSSSSSSSSSSSSSSSSSS
 72
    65
 73
     4
 40
10.16254
 49
0.00254
 74
     0
 49
-2.54
 74
     2
 75
     0
340
113
 46
2.54
 50
0.0
 44
-2.54
 45
0.0
  9
BAT
 49
-5.08
 74
     2
 75
     0
340
114
 46
2.54
 50
180.0
 44
2.54
 45
0.0
  9
BAT
 49
-2.54
 74
     0
  0
LTYPE
  5
116
330
71
100
AcDbSymbolTableRecord
100
AcDbLinetypeTableRecord
  2
BORDER
 70
     0
  3
Border __ __ . __ __ . __ __ . __ __ . __ __ .
 72
    65
 73
     6
 40
44.45
 49
12.7
 74
     0
 49
-6.35
 74
     0
 49
12.7
 74
     0
 49
-6.35
 74
     0
 49
0.0
 74
     0
 49
-6.35
 74
     0
  0
LTYPE
  5
117
330
71
100
AcDbSymbolTableRecord
100
AcDbLinetypeTableRecord
  2
ACAD_ISO14W100
 70
     0
  3
ISO dash triple-dot __ . . . __ . . . __ . . . _
 72
    65
 73
     8
 40
24.0
 49
12.0
 74
     0
 49
-3.0
 74
     0
 49
0.0
 74
     0
 49
-3.0
 74
     0
 49
0.0
 74
     0
 49
-3.0
 74
     0
 49
0.0
 74
     0
 49
-3.0
 74
     0
  0
LTYPE
  5
118
330
71
100
AcDbSymbolTableRecord
100
AcDbLinetypeTableRecord
  2
ACAD_ISO15W100
 70
     0
  3
ISO double-dash triple-dot __ __ . . . __ __ . .
 72
    65
 73
    10
 40
39.0
 49
12.0
 74
     0
 49
-3.0
 74
     0
 49
12.0
 74
     0
 49
-3.0
 74
     0
 49
0.0
 74
     0
 49
-3.0
 74
     0
 49
0.0
 74
     0
 49
-3.0
 74
     0
 49
0.0
 74
     0
 49
-3.0
 74
     0
  0
LTYPE
  5
119
330
71
100
AcDbSymbolTableRecord
100
AcDbLinetypeTableRecord
  2
CENTER
 70
     0
  3
Center ____ _ ____ _ ____ _ ____ _ ____ _ ____
 72
    65
 73
     4
 40
50.8
 49
31.75
 74
     0
 49
-6.35
 74
     0
 49
6.35
 74
     0
 49
-6.35
 74
     0
  0
LTYPE
  5
11A
330
71
100
AcDbSymbolTableRecord
100
AcDbLinetypeTableRecord
  2
CENTER2
 70
     0
  3
Center (.5x) ___ _ ___ _ ___ _ ___ _ ___ _ ___
 72
    65
 73
     4
 40
28.575
 49
19.05
 74
     0
 49
-3.175
 74
     0
 49
3.175
 74
     0
 49
-3.175
 74
     0
  0
LTYPE
  5
11B
330
71
100
AcDbSymbolTableRecord
100
AcDbLinetypeTableRecord
  2
BORDER2
 70
     0
  3
Border (.5x) __.__.__.__.__.__.__.__.__.__.__.
 72
    65
 73
     6
 40
22.225
 49
6.35
 74
     0
 49
-3.175
 74
     0
 49
6.35
 74
     0
 49
-3.175
 74
     0
 49
0.0
 74
     0
 49
-3.175
 74
     0
  0
LTYPE
  5
11C
330
71
100
AcDbSymbolTableRecord
100
AcDbLinetypeTableRecord
  2
BORDERX2
 70
     0
  3
Border (2x) ____  ____  .  ____  ____  .  ___
 72
    65
 73
     6
 40
88.89999999999999
 49
25.4
 74
     0
 49
-12.7
 74
     0
 49
25.4
 74
     0
 49
-12.7
 74
     0
 49
0.0
 74
     0
 49
-12.7
 74
     0
  0
LTYPE
  5
11D
330
71
100
AcDbSymbolTableRecord
100
AcDbLinetypeTableRecord
  2
DASHDOT2
 70
     0
  3
Dash dot (.5x) _._._._._._._._._._._._._._._.
 72
    65
 73
     4
 40
12.7
 49
6.35
 74
     0
 49
-3.175
 74
     0
 49
0.0
 74
     0
 49
-3.175
 74
     0
  0
LTYPE
  5
11E
330
71
100
AcDbSymbolTableRecord
100
AcDbLinetypeTableRecord
  2
DASHDOTX2
 70
     0
  3
Dash dot (2x) ____  .  ____  .  ____  .  ___
 72
    65
 73
     4
 40
50.8
 49
25.4
 74
     0
 49
-12.7
 74
     0
 49
0.0
 74
     0
 49
-12.7
 74
     0
  0
LTYPE
  5
11F
330
71
100
AcDbSymbolTableRecord
100
AcDbLinetypeTableRecord
  2
CENTERX2
 70
     0
  3
Center (2x) ________  __  ________  __  _____
 72
    65
 73
     4
 40
101.6
 49
63.5
 74
     0
 49
-12.7
 74
     0
 49
12.7
 74
     0
 49
-12.7
 74
     0
  0
LTYPE
  5
120
330
71
100
AcDbSymbolTableRecord
100
AcDbLinetypeTableRecord
  2
DASHDOT
 70
     0
  3
Dash dot __ . __ . __ . __ . __ . __ . __ . __
 72
    65
 73
     4
 40
25.4
 49
12.7
 74
     0
 49
-6.35
 74
     0
 49
0.0
 74
     0
 49
-6.35
 74
     0
  0
LTYPE
  5
121
330
71
100
AcDbSymbolTableRecord
100
AcDbLinetypeTableRecord
  2
DASHEDX2
 70
     0
  3
Dashed (2x) ____  ____  ____  ____  ____  ___
 72
    65
 73
     2
 40
38.09999999999999
 49
25.4
 74
     0
 49
-12.7
 74
     0
  0
LTYPE
  5
122
330
71
100
AcDbSymbolTableRecord
100
AcDbLinetypeTableRecord
  2
DIVIDE
 70
     0
  3
Divide ____ . . ____ . . ____ . . ____ . . ____
 72
    65
 73
     6
 40
31.75
 49
12.7
 74
     0
 49
-6.35
 74
     0
 49
0.0
 74
     0
 49
-6.35
 74
     0
 49
0.0
 74
     0
 49
-6.35
 74
     0
  0
LTYPE
  5
123
330
71
100
AcDbSymbolTableRecord
100
AcDbLinetypeTableRecord
  2
DASHED
 70
     0
  3
Dashed __ __ __ __ __ __ __ __ __ __ __ __ __ _
 72
    65
 73
     2
 40
19.05
 49
12.7
 74
     0
 49
-6.35
 74
     0
  0
LTYPE
  5
124
330
71
100
AcDbSymbolTableRecord
100
AcDbLinetypeTableRecord
  2
DASHED2
 70
     0
  3
Dashed (.5x) _ _ _ _ _ _ _ _ _ _ _ _ _ _ _ _ _ 
 72
    65
 73
     2
 40
9.524999999999999
 49
6.35
 74
     0
 49
-3.175
 74
     0
  0
LTYPE
  5
125
330
71
100
AcDbSymbolTableRecord
100
AcDbLinetypeTableRecord
  2
DOT
 70
     0
  3
Dot . . . . . . . . . . . . . . . . . . . . . . . .
 72
    65
 73
     2
 40
6.35
 49
0.0
 74
     0
 49
-6.35
 74
     0
  0
LTYPE
  5
126
330
71
100
AcDbSymbolTableRecord
100
AcDbLinetypeTableRecord
  2
DOT2
 70
     0
  3
Dot (.5x) ........................................
 72
    65
 73
     2
 40
3.175
 49
0.0
 74
     0
 49
-3.175
 74
     0
  0
LTYPE
  5
127
330
71
100
AcDbSymbolTableRecord
100
AcDbLinetypeTableRecord
  2
DIVIDE2
 70
     0
  3
Divide (.5x) __..__..__..__..__..__..__..__.._
 72
    65
 73
     6
 40
15.875
 49
6.35
 74
     0
 49
-3.175
 74
     0
 49
0.0
 74
     0
 49
-3.175
 74
     0
 49
0.0
 74
     0
 49
-3.175
 74
     0
  0
LTYPE
  5
128
330
71
100
AcDbSymbolTableRecord
100
AcDbLinetypeTableRecord
  2
DIVIDEX2
 70
     0
  3
Divide (2x) ________  .  .  ________  .  .  _
 72
    65
 73
     6
 40
63.5
 49
25.4
 74
     0
 49
-12.7
 74
     0
 49
0.0
 74
     0
 49
-12.7
 74
     0
 49
0.0
 74
     0
 49
-12.7
 74
     0
  0
LTYPE
  5
12A
330
71
100
AcDbSymbolTableRecord
100
AcDbLinetypeTableRecord
  2
DRAINAGE2
 70
     0
  3
Drainage reversed----<----<----<----
 72
    65
 73
     2
 40
10.16
 49
5.08
 74
     2
 75
     0
340
129
 46
2.54
 50
0.0
 44
0.0
 45
0.0
  9
RIGHT_ARROW
 49
5.08
 74
     0
  0
LTYPE
  5
12C
330
71
100
AcDbSymbolTableRecord
100
AcDbLinetypeTableRecord
  2
FENCELINE1
 70
     0
  3
Fenceline circle ----0-----0----0-----0----0-----0--
 72
    65
 73
     4
 40
36.83
 49
6.35
 74
     0
 49
-2.54
 74
     2
 75
     0
340
12B
 46
2.54
 50
0.0
 44
-2.54
 45
0.0
  9
CIRC1
 49
-2.54
 74
     0
 49
25.4
 74
     0
  0
LTYPE
  5
12D
330
71
100
AcDbSymbolTableRecord
100
AcDbLinetypeTableRecord
  2
DOTX2
 70
     0
  3
Dot (2x) .  .  .  .  .  .  .  .  .  .  .  .  .  .
 72
    65
 73
     2
 40
12.7
 49
0.0
 74
     0
 49
-12.7
 74
     0
  0
LTYPE
  5
12F
330
71
100
AcDbSymbolTableRecord
100
AcDbLinetypeTableRecord
  2
DRAINAGE
 70
     0
  3
Drainage ---->---->---->----
 72
    65
 73
     2
 40
10.16
 49
5.08
 74
     2
 75
     0
340
12E
 46
2.54
 50
180.0
 44
0.0
 45
0.0
  9
RIGHT_ARROW
 49
5.08
 74
     0
  0
LTYPE
  5
130
330
71
100
AcDbSymbolTableRecord
100
AcDbLinetypeTableRecord
  2
HIDDEN
 70
     0
  3
Hidden __ __ __ __ __ __ __ __ __ __ __ __ __ __
 72
    65
 73
     2
 40
9.524999999999999
 49
6.35
 74
     0
 49
-3.175
 74
     0
  0
LTYPE
  5
131
330
71
100
AcDbSymbolTableRecord
100
AcDbLinetypeTableRecord
  2
HIDDEN2
 70
     0
  3
Hidden (.5x) _ _ _ _ _ _ _ _ _ _ _ _ _ _ _ _ _ 
 72
    65
 73
     2
 40
4.762499999999999
 49
3.175
 74
     0
 49
-1.5875
 74
     0
  0
LTYPE
  5
133
330
71
100
AcDbSymbolTableRecord
100
AcDbLinetypeTableRecord
  2
FENCELINE2
 70
     0
  3
Fenceline square ----[]-----[]----[]-----[]----[]---
 72
    65
 73
     4
 40
36.83
 49
6.35
 74
     0
 49
-2.54
 74
     2
 75
     0
340
132
 46
2.54
 50
0.0
 44
-2.54
 45
0.0
  9
BOX
 49
-2.54
 74
     0
 49
25.4
 74
     0
  0
LTYPE
  5
135
330
71
100
AcDbSymbolTableRecord
100
AcDbLinetypeTableRecord
  2
GAS_LINE
 70
     0
  3
Gas line ----GAS----GAS----GAS----GAS----GAS----GAS--
 72
    65
 73
     3
 40
24.13
 49
12.7
 74
     0
 49
-5.08
 74
     2
 75
     0
340
134
 46
2.54
 50
0.0
 44
-2.54
 45
-1.27
  9
GAS
 49
-6.35
 74
     0
  0
LTYPE
  5
136
330
71
100
AcDbSymbolTableRecord
100
AcDbLinetypeTableRecord
  2
PHANTOM
 70
     0
  3
Phantom ______  __  __  ______  __  __  ______ 
 72
    65
 73
     6
 40
63.50000000000001
 49
31.75
 74
     0
 49
-6.35
 74
     0
 49
6.35
 74
     0
 49
-6.35
 74
     0
 49
6.35
 74
     0
 49
-6.35
 74
     0
  0
LTYPE
  5
137
330
71
100
AcDbSymbolTableRecord
100
AcDbLinetypeTableRecord
  2
PHANTOM2
 70
     0
  3
Phantom (.5x) ___ _ _ ___ _ _ ___ _ _ ___ _ _
 72
    65
 73
     6
 40
31.75
 49
15.875
 74
     0
 49
-3.175
 74
     0
 49
3.175
 74
     0
 49
-3.175
 74
     0
 49
3.175
 74
     0
 49
-3.175
 74
     0
  0
LTYPE
  5
138
330
71
100
AcDbSymbolTableRecord
100
AcDbLinetypeTableRecord
  2
HIDDENX2
 70
     0
  3
Hidden (2x) ____ ____ ____ ____ ____ ____ ____ 
 72
    65
 73
     2
 40
19.05
 49
12.7
 74
     0
 49
-6.35
 74
     0
  0
LTYPE
  5
13A
330
71
100
AcDbSymbolTableRecord
100
AcDbLinetypeTableRecord
  2
HOT_WATER_SUPPLY
 70
     0
  3
Hot water supply ---- HW ---- HW ---- HW ----
 72
    65
 73
     3
 40
22.86
 49
12.7
 74
     0
 49
-5.08
 74
     2
 75
     0
340
139
 46
2.54
 50
0.0
 44
-2.54
 45
-1.27
  9
HW
 49
-5.08
 74
     0
  0
LTYPE
  5
13D
330
71
100
AcDbSymbolTableRecord
100
AcDbLinetypeTableRecord
  2
ZIGZAG
 70
     0
  3
Zig zag /\/\/\/\/\/\/\/\/\/\/\/\/\/\/\/\/\/\/\/\/\/\/\/
 72
    65
 73
     4
 40
20.32254
 49
0.00254
 74
     0
 49
-5.08
 74
     2
 75
     0
340
13B
 46
5.08
 50
0.0
 44
-5.08
 45
0.0
  9
ZIG
 49
-10.16
 74
     2
 75
     0
340
13C
 46
5.08
 50
180.0
 44
5.08
 45
0.0
  9
ZIG
 49
-5.08
 74
     0
  0
LTYPE
  5
13E
330
71
100
AcDbSymbolTableRecord
100
AcDbLinetypeTableRecord
  2
PHANTOMX2
 70
     0
  3
Phantom (2x) ____________    ____    ____   _
 72
    65
 73
     6
 40
127.0
 49
63.5
 74
     0
 49
-12.7
 74
     0
 49
12.7
 74
     0
 49
-12.7
 74
     0
 49
12.7
 74
     0
 49
-12.7
 74
     0
  0
LTYPE
  5
140
330
71
100
AcDbSymbolTableRecord
100
AcDbLinetypeTableRecord
  2
TRACKS
 70
     0
  3
Tracks -|-|-|-|-|-|-|-|-|-|-|-|-|-|-|-|-|-|-|-|-|-|-|-|-
 72
    65
 73
     2
 40
7.62
 49
3.81
 74
     2
 75
     0
340
13F
 46
6.35
 50
0.0
 44
0.0
 45
0.0
  9
TRACK1
 49
3.81
 74
     0
  0
LTYPE
  5
141
330
71
100
AcDbSymbolTableRecord
100
AcDbLinetypeTableRecord
  2
ACAD_ISO04W100
 70
     0
  3
ISO long-dash dot ____ . ____ . ____ . ____ . _
 72
    65
 73
     4
 40
30.0
 49
24.0
 74
     0
 49
-3.0
 74
     0
 49
0.0
 74
     0
 49
-3.0
 74
     0
  0
LTYPE
  5
142
330
71
100
AcDbSymbolTableRecord
100
AcDbLinetypeTableRecord
  2
ACAD_ISO05W100
 70
     0
  3
ISO long-dash double-dot ____ .. ____ .. ____ . 
 72
    65
 73
     6
 40
33.0
 49
24.0
 74
     0
 49
-3.0
 74
     0
 49
0.0
 74
     0
 49
-3.0
 74
     0
 49
0.0
 74
     0
 49
-3.0
 74
     0
  0
LTYPE
  5
143
330
71
100
AcDbSymbolTableRecord
100
AcDbLinetypeTableRecord
  2
ACAD_ISO02W100
 70
     0
  3
ISO dash __ __ __ __ __ __ __ __ __ __ __ __ __
 72
    65
 73
     2
 40
15.0
 49
12.0
 74
     0
 49
-3.0
 74
     0
  0
LTYPE
  5
144
330
71
100
AcDbSymbolTableRecord
100
AcDbLinetypeTableRecord
  2
ACAD_ISO03W100
 70
     0
  3
ISO dash space __    __    __    __    __    __
 72
    65
 73
     2
 40
30.0
 49
12.0
 74
     0
 49
-18.0
 74
     0
  0
LTYPE
  5
145
330
71
100
AcDbSymbolTableRecord
100
AcDbLinetypeTableRecord
  2
ACAD_ISO08W100
 70
     0
  3
ISO long-dash short-dash ____ __ ____ __ ____ _
 72
    65
 73
     4
 40
36.0
 49
24.0
 74
     0
 49
-3.0
 74
     0
 49
6.0
 74
     0
 49
-3.0
 74
     0
  0
LTYPE
  5
146
330
71
100
AcDbSymbolTableRecord
100
AcDbLinetypeTableRecord
  2
ACAD_ISO09W100
 70
     0
  3
ISO long-dash double-short-dash ____ __ __ ____
 72
    65
 73
     6
 40
45.0
 49
24.0
 74
     0
 49
-3.0
 74
     0
 49
6.0
 74
     0
 49
-3.0
 74
     0
 49
6.0
 74
     0
 49
-3.0
 74
     0
  0
ENDTAB
  0
TABLE
  2
LAYER
  5
6F
330
0
100
AcDbSymbolTable
 70
     4
  0
LAYER
  5
7C
330
6F
100
AcDbSymbolTableRecord
100
AcDbLayerTableRecord
  2
0
 70
     0
 62
     7
420
 16777215
  6
Continuous
370
    25
390
7B
347
B1
348
0
  0
LAYER
  5
147
330
6F
100
AcDbSymbolTableRecord
100
AcDbLayerTableRecord
  2
6_ANYTOOL_CUTTHROUGH_OUTSI
 70
     0
 62
     5
420
      255
  6
Continuous
370
    -3
390
7B
347
B1
348
0
  0
LAYER
  5
148
330
6F
100
AcDbSymbolTableRecord
100
AcDbLayerTableRecord
  2
3_ANYTOOL_CUTTHROUGH_INSID
 70
     0
 62
     4
420
    65535
  6
Continuous
370
    -3
390
7B
347
B1
348
0
  0
LAYER
  5
149
330
6F
100
AcDbSymbolTableRecord
100
AcDbLayerTableRecord
  2
1_ANYTOOL_1MMDEEP_INSIDE
 70
     0
 62
     2
420
 16776960
  6
Continuous
370
    -3
390
7B
347
B1
348
0
  0
ENDTAB
  0
TABLE
  2
STYLE
  5
70
330
0
100
AcDbSymbolTable
 70
    17
  0
STYLE
  5
7D
330
70
100
AcDbSymbolTableRecord
100
AcDbTextStyleTableRecord
  2
Standard
 70
     0
 40
0.0
 41
1.0
 50
0.0
 71
     0
 42
0.2
  3
txt
  4

  0
STYLE
  5
113
330
70
100
AcDbSymbolTableRecord
100
AcDbTextStyleTableRecord
  2
textstyle0
 70
     0
 40
0.0
 41
1.0
 50
0.0
 71
     0
 42
0.2
  3
ltypeshp.shx
  4

  0
STYLE
  5
114
330
70
100
AcDbSymbolTableRecord
100
AcDbTextStyleTableRecord
  2
textstyle1
 70
     0
 40
0.0
 41
1.0
 50
0.0
 71
     0
 42
0.2
  3
ltypeshp.shx
  4

  0
STYLE
  5
129
330
70
100
AcDbSymbolTableRecord
100
AcDbTextStyleTableRecord
  2
textstyle2
 70
     0
 40
0.0
 41
1.0
 50
0.0
 71
     0
 42
0.2
  3
qcadshp.shx
  4

  0
STYLE
  5
12B
330
70
100
AcDbSymbolTableRecord
100
AcDbTextStyleTableRecord
  2
textstyle3
 70
     0
 40
0.0
 41
1.0
 50
0.0
 71
     0
 42
0.2
  3
ltypeshp.shx
  4

  0
STYLE
  5
12E
330
70
100
AcDbSymbolTableRecord
100
AcDbTextStyleTableRecord
  2
textstyle4
 70
     0
 40
0.0
 41
1.0
 50
0.0
 71
     0
 42
0.2
  3
qcadshp.shx
  4

  0
STYLE
  5
132
330
70
100
AcDbSymbolTableRecord
100
AcDbTextStyleTableRecord
  2
textstyle5
 70
     0
 40
0.0
 41
1.0
 50
0.0
 71
     0
 42
0.2
  3
ltypeshp.shx
  4

  0
STYLE
  5
134
330
70
100
AcDbSymbolTableRecord
100
AcDbTextStyleTableRecord
  2
textstyle6
 70
     0
 40
0.0
 41
1.0
 50
0.0
 71
     0
 42
0.2
  3
STANDARD
  4

  0
STYLE
  5
139
330
70
100
AcDbSymbolTableRecord
100
AcDbTextStyleTableRecord
  2
textstyle7
 70
     0
 40
0.0
 41
1.0
 50
0.0
 71
     0
 42
0.2
  3
STANDARD
  4

  0
STYLE
  5
13B
330
70
100
AcDbSymbolTableRecord
100
AcDbTextStyleTableRecord
  2
textstyle8
 70
     0
 40
0.0
 41
1.0
 50
0.0
 71
     0
 42
0.2
  3
ltypeshp.shx
  4

  0
STYLE
  5
13C
330
70
100
AcDbSymbolTableRecord
100
AcDbTextStyleTableRecord
  2
textstyle9
 70
     0
 40
0.0
 41
1.0
 50
0.0
 71
     0
 42
0.2
  3
ltypeshp.shx
  4

  0
STYLE
  5
13F
330
70
100
AcDbSymbolTableRecord
100
AcDbTextStyleTableRecord
  2
textstyle10
 70
     0
 40
0.0
 41
1.0
 50
0.0
 71
     0
 42
0.2
  3
ltypeshp.shx
  4

  0
STYLE
  5
14C
330
70
100
AcDbSymbolTableRecord
100
AcDbTextStyleTableRecord
  2
textstyle11
 70
     0
 40
0.0
 41
1.0
 50
0.0
 71
     0
 42
0.2
  3
standard
  4

1001
ACAD
1000
standard
1071
        0
  0
STYLE
  5
14D
330
70
100
AcDbSymbolTableRecord
100
AcDbTextStyleTableRecord
  2
textstyle12
 70
     0
 40
0.0
 41
1.0
 50
0.0
 71
     0
 42
0.2
  3
standard
  4

1001
ACAD
1000
standard
1071
        0
  0
STYLE
  5
14E
330
70
100
AcDbSymbolTableRecord
100
AcDbTextStyleTableRecord
  2
textstyle13
 70
     0
 40
0.0
 41
1.0
 50
0.0
 71
     0
 42
0.2
  3
standard
  4

1001
ACAD
1000
standard
1071
        0
  0
STYLE
  5
14F
330
70
100
AcDbSymbolTableRecord
100
AcDbTextStyleTableRecord
  2
textstyle14
 70
     0
 40
0.0
 41
1.0
 50
0.0
 71
     0
 42
0.2
  3
standard
  4

1001
ACAD
1000
standard
1071
        0
  0
STYLE
  5
150
330
70
100
AcDbSymbolTableRecord
100
AcDbTextStyleTableRecord
  2
textstyle15
 70
     0
 40
0.0
 41
1.0
 50
0.0
 71
     0
 42
0.2
  3
standard
  4

1001
ACAD
1000
standard
1071
        0
  0
ENDTAB
  0
TABLE
  2
VIEW
  5
72
330
0
100
AcDbSymbolTable
 70
     0
  0
ENDTAB
  0
TABLE
  2
UCS
  5
73
330
0
100
AcDbSymbolTable
 70
     0
  0
ENDTAB
  0
TABLE
  2
APPID
  5
75
330
0
100
AcDbSymbolTable
 70
     2
  0
APPID
  5
7E
330
75
100
AcDbSymbolTableRecord
100
AcDbRegAppTableRecord
  2
ACAD
 70
     0
  0
APPID
  5
D9
330
75
100
AcDbSymbolTableRecord
100
AcDbRegAppTableRecord
  2
QCAD
 70
     0
  0
ENDTAB
  0
TABLE
  2
DIMSTYLE
  5
76
330
0
100
AcDbSymbolTable
 70
     2
100
AcDbDimStyleTable
  0
DIMSTYLE
105
92
330
76
100
AcDbSymbolTableRecord
100
AcDbDimStyleTableRecord
  2
Standard
 70
     0
178
     0
340
7D
  0
DIMSTYLE
105
10C
330
76
100
AcDbSymbolTableRecord
100
AcDbDimStyleTableRecord
  2
QCADDimStyle
 70
     0
 41
2.5
 42
0.625
 44
1.25
 73
     0
 77
     1
140
2.5
147
0.625
178
     0
340
7D
  0
ENDTAB
  0
TABLE
  2
BLOCK_RECORD
  5
6E
330
0
100
AcDbSymbolTable
 70
     0
  0
BLOCK_RECORD
  5
8A
330
6E
100
AcDbSymbolTableRecord
100
AcDbBlockTableRecord
  2
*Model_Space
340
8D
 70
     0
280
     1
281
     0
  0
BLOCK_RECORD
  5
86
330
6E
100
AcDbSymbolTableRecord
100
AcDbBlockTableRecord
  2
*Paper_Space
340
89
 70
     0
280
     1
281
     0
  0
ENDTAB
  0
ENDSEC
  0
SECTION
  2
BLOCKS
  0
BLOCK
  5
8B
330
8A
100
AcDbEntity
  8
0
100
AcDbBlockBegin
  2
*Model_Space
 70
     0
 10
0.0
 20
0.0
 30
0.0
  3
*Model_Space
  1

  0
ENDBLK
  5
8C
330
8A
100
AcDbEntity
  8
0
100
AcDbBlockEnd
  0
BLOCK
  5
87
330
86
100
AcDbEntity
 67
     1
  8
0
100
AcDbBlockBegin
  2
*Paper_Space
 70
     0
 10
0.0
 20
0.0
 30
0.0
  3
*Paper_Space
  1

  0
ENDBLK
  5
88
330
86
100
AcDbEntity
 67
     1
  8
0
100
AcDbBlockEnd
  0
ENDSEC
  0
SECTION
  2
ENTITIES
  0
LWPOLYLINE
  5
39
330
8A
100
AcDbEntity
  8
6_ANYTOOL_CUTTHROUGH_OUTSI
100
AcDbPolyline
 90
      170
 70
     1
 43
0.0
 10
796.2482869054045
 20
259.3354023072488
 10
801.2482869054045
 20
259.3354023072297
 10
801.2482869054045
 20
358.8354023072488
 10
796.2482869054045
 20
358.8354023072488
 10
796.2482869054045
 20
369.3354023072488
 10
819.2482869054045
 20
369.3354023072297
 10
819.2482869054045
 20
478.8354023072243
 10
814.2482869054045
 20
478.8354023072479
 10
814.2482869054045
 20
489.3354023072498
 10
834.3947335148114
 20
489.3354023072498
 10
837.2482869054045
 20
492.1889556978404
 10
837.2482869054054
 20
509.8354023072498
 10
798.7482869054045
 20
509.8354023072498
 10
798.7482869054045
 20
504.8354023072479
 10
788.2482869054045
 20
504.8354023072479
 10
788.2482869054045
 20
533.3354023072498
 10
798.7482869054045
 20
533.3354023072498
 10
798.7482869054045
 20
528.3354023072479
 10
837.2482869054054
 20
528.3354023072479
 10
837.2482869054045
 20
545.9818489166519
 10
834.3947335148114
 20
548.8354023072498
 10
814.2482869054045
 20
548.8354023072498
 10
814.2482869054045
 20
559.3354023072461
 10
819.2482869054045
 20
559.3354023072297
 10
819.2482869054045
 20
778.8354023072661
 10
814.2482869054045
 20
778.8354023072461
 10
814.2482869054045
 20
789.3354023072461
 10
834.3947335148114
 20
789.3354023072461
 10
837.2482869054045
 20
792.1889556978404
 10
837.2482869054045
 20
845.9818489166537
 10
834.3947335148114
 20
848.8354023072461
 10
814.2482869054045
 20
848.8354023072461
 10
814.2482869054045
 20
859.3354023072443
 10
819.2482869054045
 20
859.3354023072279
 10
819.2482869054045
 20
1078.835402307266
 10
814.2482869054045
 20
1078.835402307246
 10
814.2482869054045
 20
1089.335402307246
 10
834.3947335148114
 20
1089.335402307246
 10
837.2482869054045
 20
1092.18895569784
 10
837.2482869054054
 20
1109.835402307246
 10
798.7482869054045
 20
1109.835402307246
 10
798.7482869054045
 20
1104.835402307246
 10
788.2482869054045
 20
1104.835402307246
 10
788.2482869054045
 20
1133.335402307246
 10
798.7482869054045
 20
1133.335402307246
 10
798.7482869054045
 20
1128.335402307246
 10
837.2482869054054
 20
1128.335402307246
 10
837.2482869054045
 20
1145.981848916654
 10
834.3947335148114
 20
1148.835402307246
 10
814.2482869054045
 20
1148.835402307246
 10
814.2482869054045
 20
1159.335402307246
 10
819.2482869054045
 20
1159.335402307232
 10
819.2482869054054
 20
1268.835402307266
 10
796.2482869054054
 20
1268.835402307264
 10
796.2482869054054
 20
1279.335402307264
 10
801.2482869054054
 20
1279.335402307264
 10
801.2482869054045
 20
1378.835402307266
 10
796.2482869054045
 20
1378.835402307246
 10
796.2482869054045
 20
1389.335402307246
 10
834.3947335148114
 20
1389.335402307246
 10
837.2482869054045
 20
1392.18895569784
 10
837.2482869054045
 20
1445.981848916656
 10
834.3947335148114
 20
1448.835402307246
 10
796.2482869054045
 20
1448.835402307246
 10
796.2482869054045
 20
1459.335402307246
 10
801.2482869054045
 20
1459.335402307268
 10
801.2482869054045
 20
1678.835402307228
 10
796.2482869054045
 20
1678.83540230725
 10
796.2482869054045
 20
1689.335402307246
 10
834.3947335148114
 20
1689.335402307246
 10
837.2482869054045
 20
1692.188955697841
 10
837.2482869054045
 20
1745.981848916654
 10
834.3947335148114
 20
1748.835402307246
 10
796.2482869054045
 20
1748.835402307246
 10
796.2482869054045
 20
1759.335402307246
 10
801.2482869054045
 20
1759.335402307268
 10
801.2482869054054
 20
2130.335402307224
 10
723.7482869054045
 20
2130.335402307246
 10
723.7482869054045
 20
1759.335402307246
 10
728.7482869054045
 20
1759.335402307246
 10
728.7482869054045
 20
1748.835402307246
 10
690.6018402959974
 20
1748.835402307246
 10
687.7482869054045
 20
1745.981848916654
 10
687.7482869054045
 20
1692.188955697841
 10
690.6018402959974
 20
1689.335402307246
 10
728.7482869054045
 20
1689.335402307246
 10
728.7482869054045
 20
1678.83540230725
 10
723.7482869054045
 20
1678.83540230725
 10
723.7482869054045
 20
1459.335402307246
 10
728.7482869054045
 20
1459.335402307246
 10
728.7482869054045
 20
1448.835402307246
 10
690.6018402959974
 20
1448.835402307246
 10
687.7482869054045
 20
1445.981848916652
 10
687.7482869054045
 20
1392.18895569784
 10
690.6018402959974
 20
1389.335402307246
 10
728.7482869054045
 20
1389.335402307246
 10
728.7482869054045
 20
1378.835402307246
 10
723.7482869054045
 20
1378.83540230725
 10
723.7482869054054
 20
1279.335402307264
 10
728.7482869054054
 20
1279.335402307264
 10
728.7482869054054
 20
1268.835402307264
 10
705.7482869054045
 20
1268.835402307246
 10
705.7482869054045
 20
1159.335402307246
 10
710.7482869054045
 20
1159.335402307246
 10
710.7482869054045
 20
1148.835402307246
 10
690.6018402959974
 20
1148.835402307246
 10
687.7482869054045
 20
1145.981848916654
 10
687.7482869054045
 20
1128.335402307246
 10
726.2482869054045
 20
1128.335402307246
 10
726.2482869054045
 20
1133.335402307246
 10
736.7482869054045
 20
1133.335402307246
 10
736.7482869054045
 20
1104.835402307246
 10
726.2482869054045
 20
1104.835402307246
 10
726.2482869054045
 20
1109.835402307246
 10
687.7482869054045
 20
1109.835402307246
 10
687.7482869054045
 20
1092.18895569784
 10
690.6018402959974
 20
1089.335402307246
 10
710.7482869054045
 20
1089.335402307246
 10
710.7482869054045
 20
1078.835402307246
 10
705.7482869054045
 20
1078.83540230725
 10
705.7482869054045
 20
859.3354023072443
 10
710.7482869054045
 20
859.3354023072443
 10
710.7482869054045
 20
848.8354023072461
 10
690.6018402959974
 20
848.8354023072461
 10
687.7482869054045
 20
845.9818489166537
 10
687.7482869054045
 20
792.1889556978404
 10
690.6018402959974
 20
789.3354023072461
 10
710.7482869054045
 20
789.3354023072461
 10
710.7482869054045
 20
778.8354023072461
 10
705.7482869054045
 20
778.8354023072443
 10
705.7482869054045
 20
559.3354023072461
 10
710.7482869054045
 20
559.3354023072461
 10
710.7482869054045
 20
548.8354023072498
 10
690.6018402959974
 20
548.8354023072498
 10
687.7482869054045
 20
545.9818489166519
 10
687.7482869054045
 20
528.3354023072479
 10
726.2482869054045
 20
528.3354023072479
 10
726.2482869054045
 20
533.3354023072498
 10
736.7482869054045
 20
533.3354023072498
 10
736.7482869054045
 20
504.8354023072479
 10
726.2482869054045
 20
504.8354023072479
 10
726.2482869054045
 20
509.8354023072498
 10
687.7482869054045
 20
509.8354023072498
 10
687.7482869054045
 20
492.1889556978404
 10
690.6018402959974
 20
489.3354023072498
 10
710.7482869054045
 20
489.3354023072498
 10
710.7482869054045
 20
478.8354023072479
 10
705.7482869054045
 20
478.8354023072443
 10
705.7482869054045
 20
369.3354023072379
 10
728.7482869054045
 20
369.3354023072488
 10
728.7482869054045
 20
358.8354023072488
 10
723.7482869054045
 20
358.8354023072488
 10
723.7482869054054
 20
259.3354023072379
 10
728.7482869054045
 20
259.3354023072488
 10
728.7482869054045
 20
248.8354023072498
 10
690.6018402959974
 20
248.8354023072498
 10
687.7482869054045
 20
245.9818489166537
 10
687.7482869054045
 20
219.3354023072498
 10
745.4272190935415
 20
219.3354023072466
 42
-0.6681786379229728
 10
749.1395296947696
 20
210.3730917060197
 10
746.2105975066354
 20
207.4441595178787
 42
0.668178637919282
 10
749.5693547172684
 20
199.3354023072507
 10
775.4272190935415
 20
199.3354023072498
 42
0.6681786379158131
 10
778.7859763041763
 20
207.4441595178837
 10
775.8570441160384
 20
210.3730917060188
 42
-0.6681786379192918
 10
779.5693547172684
 20
219.3354023072498
 10
837.2482869054045
 20
219.3354023072498
 10
837.2482869054045
 20
245.9818489166537
 10
834.3947335148114
 20
248.8354023072498
 10
796.2482869054045
 20
248.8354023072498
  0
LWPOLYLINE
  5
3A
330
8A
100
AcDbEntity
  8
6_ANYTOOL_CUTTHROUGH_OUTSI
100
AcDbPolyline
 90
      146
 70
     1
 43
0.0
 10
965.6474421082685
 20
748.544124787727
 10
965.6474421082685
 20
759.044124787727
 10
970.6474421082685
 20
759.044124787737
 10
970.6474421082685
 20
858.5441247877297
 10
965.6474421082685
 20
858.5441247877297
 10
965.6474421082685
 20
869.0441247877297
 10
988.6474421082685
 20
869.0441247877388
 10
988.6474421082685
 20
978.5441247877188
 10
983.6474421082685
 20
978.5441247877297
 10
983.6474421082685
 20
989.0441247877297
 10
1003.793888717674
 20
989.0441247877297
 10
1006.647442108268
 20
991.8976781783231
 10
1006.647442108268
 20
1045.690571397139
 10
1003.793888717674
 20
1048.54412478773
 10
983.6474421082685
 20
1048.54412478773
 10
983.6474421082685
 20
1059.04412478773
 10
988.6474421082685
 20
1059.044124787739
 10
988.6474421082685
 20
1278.544124787752
 10
983.6474421082685
 20
1278.54412478773
 10
983.6474421082685
 20
1289.044124787731
 10
1003.793888717674
 20
1289.044124787731
 10
1006.647442108268
 20
1291.897678178323
 10
1006.647442108268
 20
1309.54412478773
 10
968.1474421082685
 20
1309.54412478773
 10
968.1474421082685
 20
1304.54412478773
 10
957.6474421082685
 20
1304.54412478773
 10
957.6474421082685
 20
1333.04412478773
 10
968.1474421082685
 20
1333.04412478773
 10
968.1474421082685
 20
1328.04412478773
 10
1006.647442108268
 20
1328.04412478773
 10
1006.647442108268
 20
1345.690571397135
 10
1003.793888717674
 20
1348.544124787731
 10
983.6474421082685
 20
1348.544124787731
 10
983.6474421082685
 20
1359.04412478773
 10
988.6474421082685
 20
1359.044124787739
 10
988.6474421082685
 20
1578.544124787719
 10
983.6474421082685
 20
1578.54412478773
 10
983.6474421082685
 20
1589.04412478773
 10
1003.793888717674
 20
1589.04412478773
 10
1006.647442108268
 20
1591.897678178322
 10
1006.647442108268
 20
1645.690571397135
 10
1003.793888717674
 20
1648.54412478773
 10
983.6474421082685
 20
1648.54412478773
 10
983.6474421082685
 20
1659.04412478773
 10
988.6474421082685
 20
1659.044124787739
 10
988.6474421082685
 20
1878.544124787717
 10
983.6474421082685
 20
1878.544124787729
 10
983.6474421082685
 20
1889.044124787728
 10
1003.793888717674
 20
1889.044124787728
 10
1006.647442108268
 20
1891.897678178322
 10
1006.647442108268
 20
1918.044124787729
 10
948.9685099201315
 20
1918.044124787732
 42
0.6681786379171523
 10
945.9633061000914
 20
1910.788920967684
 10
948.8922382882274
 20
1907.859988779553
 42
-0.6681786379191463
 10
944.8263742964045
 20
1898.044124787729
 10
918.9685099201315
 20
1898.044124787734
 42
-0.6681786379166
 10
914.9026459283114
 20
1907.859988779551
 10
917.8315781164454
 20
1910.788920967681
 42
0.6681786379195395
 10
914.8263742964054
 20
1918.044124787729
 10
857.1474421082685
 20
1918.044124787729
 10
857.1474421082685
 20
1891.897678178322
 10
860.0009954988614
 20
1889.044124787728
 10
880.1474421082685
 20
1889.044124787728
 10
880.1474421082685
 20
1878.544124787729
 10
875.1474421082685
 20
1878.544124787717
 10
875.1474421082685
 20
1659.044124787739
 10
880.1474421082685
 20
1659.04412478773
 10
880.1474421082685
 20
1648.54412478773
 10
860.0009954988614
 20
1648.54412478773
 10
857.1474421082685
 20
1645.690571397135
 10
857.1474421082685
 20
1591.897678178322
 10
860.0009954988614
 20
1589.04412478773
 10
880.1474421082685
 20
1589.04412478773
 10
880.1474421082685
 20
1578.54412478773
 10
875.1474421082685
 20
1578.544124787719
 10
875.1474421082685
 20
1359.044124787739
 10
880.1474421082685
 20
1359.04412478773
 10
880.1474421082685
 20
1348.544124787731
 10
860.0009954988614
 20
1348.544124787731
 10
857.1474421082685
 20
1345.690571397135
 10
857.1474421082673
 20
1328.04412478773
 10
895.6474421082685
 20
1328.04412478773
 10
895.6474421082685
 20
1333.04412478773
 10
906.1474421082685
 20
1333.04412478773
 10
906.1474421082685
 20
1304.54412478773
 10
895.6474421082685
 20
1304.54412478773
 10
895.6474421082673
 20
1309.54412478773
 10
857.1474421082685
 20
1309.54412478773
 10
857.1474421082685
 20
1291.897678178323
 10
860.0009954988614
 20
1289.044124787731
 10
880.1474421082685
 20
1289.044124787731
 10
880.1474421082685
 20
1278.54412478773
 10
875.1474421082685
 20
1278.54412478772
 10
875.1474421082685
 20
1059.044124787739
 10
880.1474421082685
 20
1059.04412478773
 10
880.1474421082685
 20
1048.54412478773
 10
860.0009954988614
 20
1048.54412478773
 10
857.1474421082685
 20
1045.690571397139
 10
857.1474421082685
 20
991.8976781783231
 10
860.0009954988614
 20
989.0441247877297
 10
880.1474421082685
 20
989.0441247877297
 10
880.1474421082685
 20
978.5441247877297
 10
875.1474421082685
 20
978.5441247877516
 10
875.1474421082685
 20
869.0441247877388
 10
898.1474421082685
 20
869.0441247877297
 10
898.1474421082685
 20
858.5441247877297
 10
893.1474421082685
 20
858.5441247877297
 10
893.1474421082685
 20
759.0441247877061
 10
898.1474421082685
 20
759.044124787727
 10
898.1474421082685
 20
748.544124787727
 10
860.0009954988614
 20
748.544124787727
 10
857.1474421082685
 20
745.6905713971337
 10
857.1474421082685
 20
691.8976781783185
 10
860.0009954988614
 20
689.044124787727
 10
898.1474421082685
 20
689.044124787727
 10
898.1474421082685
 20
678.544124787727
 10
893.1474421082685
 20
678.5441247877161
 10
893.1474421082685
 20
459.0441247877079
 10
898.1474421082685
 20
459.0441247877297
 10
898.1474421082685
 20
448.5441247877297
 10
860.0009954988614
 20
448.5441247877297
 10
857.1474421082685
 20
445.6905713971373
 10
857.1474421082685
 20
391.8976781783194
 10
860.0009954988614
 20
389.0441247877297
 10
898.1474421082685
 20
389.0441247877297
 10
898.1474421082685
 20
378.5441247877297
 10
893.1474421082685
 20
378.5441247877516
 10
893.1474421082673
 20
257.5441247877388
 10
970.6474421082685
 20
257.5441247877079
 10
970.6474421082685
 20
378.5441247877188
 10
965.6474421082685
 20
378.5441247877297
 10
965.6474421082685
 20
389.0441247877297
 10
1003.793888717674
 20
389.0441247877297
 10
1006.647442108268
 20
391.897678178324
 10
1006.647442108268
 20
445.6905713971346
 10
1003.793888717674
 20
448.5441247877297
 10
965.6474421082685
 20
448.5441247877297
 10
965.6474421082685
 20
459.0441247877297
 10
970.6474421082685
 20
459.0441247877388
 10
970.6474421082685
 20
678.5441247877161
 10
965.6474421082685
 20
678.544124787727
 10
965.6474421082685
 20
689.044124787727
 10
1003.793888717674
 20
689.044124787727
 10
1006.647442108268
 20
691.8976781783185
 10
1006.647442108268
 20
745.6905713971337
 10
1003.793888717674
 20
748.544124787727
  0
MTEXT
  5
3C
330
8A
100
AcDbEntity
  8
1_ANYTOOL_1MMDEEP_INSIDE
100
AcDbMText
 10
951.6173466148896
 20
1504.321442992283
 30
0.0
 40
40.0
 41
351.0843373493976
 46
0.0
 71
     1
 72
     1
  1
\fArial;FRA-A/S2/IN
  7
textstyle11
 11
-4.624589118372729E-15
 21
-1.0
 31
0.0
 73
     1
 44
1.0
  0
LWPOLYLINE
  5
3D
330
8A
100
AcDbEntity
  8
6_ANYTOOL_CUTTHROUGH_OUTSI
100
AcDbPolyline
 90
      170
 70
     1
 43
0.0
 10
664.8947335148116
 20
1821.678974048904
 10
644.7482869054045
 20
1821.678974048904
 10
644.7482869054045
 20
1832.178974048904
 10
649.7482869054045
 20
1832.178974048904
 10
649.7482869054045
 20
1941.678974048893
 10
626.7482869054045
 20
1941.678974048893
 10
626.7482869054045
 20
1952.178974048893
 10
631.7482869054045
 20
1952.178974048893
 10
631.7482869054045
 20
2051.678974048897
 10
626.7482869054045
 20
2051.678974048897
 10
626.7482869054045
 20
2062.178974048897
 10
664.8947335148116
 20
2062.178974048897
 10
667.7482869054045
 20
2065.032527439488
 10
667.7482869054045
 20
2091.678974048895
 10
610.0693547172675
 20
2091.678974048898
 42
-0.6681786379193607
 10
606.3570441160384
 20
2100.641284650125
 10
609.2859763041763
 20
2103.570216838263
 42
0.668178637919277
 10
605.9272190935415
 20
2111.678974048898
 10
580.0693547172675
 20
2111.678974048889
 42
0.6681786379156971
 10
576.7105975066345
 20
2103.570216838263
 10
579.6395296947715
 20
2100.641284650128
 42
-0.6681786379193326
 10
575.9272190935415
 20
2091.678974048895
 10
518.2482869054045
 20
2091.678974048895
 10
518.2482869054045
 20
2065.032527439488
 10
521.1018402959983
 20
2062.178974048897
 10
559.2482869054045
 20
2062.178974048897
 10
559.2482869054045
 20
2051.678974048897
 10
554.2482869054045
 20
2051.678974048897
 10
554.2482869054045
 20
1952.178974048893
 10
559.2482869054045
 20
1952.178974048893
 10
559.2482869054045
 20
1941.678974048893
 10
536.2482869054045
 20
1941.678974048893
 10
536.2482869054045
 20
1832.178974048904
 10
541.2482869054045
 20
1832.178974048904
 10
541.2482869054045
 20
1821.678974048904
 10
521.1018402959983
 20
1821.678974048904
 10
518.2482869054045
 20
1818.825420658311
 10
518.2482869054054
 20
1801.178974048904
 10
556.7482869054045
 20
1801.178974048904
 10
556.7482869054045
 20
1806.178974048904
 10
567.2482869054045
 20
1806.178974048904
 10
567.2482869054045
 20
1777.678974048902
 10
556.7482869054045
 20
1777.678974048902
 10
556.7482869054045
 20
1782.678974048906
 10
518.2482869054045
 20
1782.678974048906
 10
518.2482869054045
 20
1765.032527439498
 10
521.1018402959983
 20
1762.178974048906
 10
541.2482869054045
 20
1762.178974048906
 10
541.2482869054045
 20
1751.678974048904
 10
536.2482869054045
 20
1751.678974048904
 10
536.2482869054045
 20
1502.087514034631
 10
541.2482869054045
 20
1502.087514034631
 10
541.2482869054045
 20
1491.587514034631
 10
521.1018402959983
 20
1491.587514034631
 10
518.2482869054045
 20
1488.733960644036
 10
518.2482869054045
 20
1434.941067425223
 10
521.1018402959983
 20
1432.087514034631
 10
541.2482869054045
 20
1432.087514034631
 10
541.2482869054045
 20
1421.587514034631
 10
536.2482869054045
 20
1421.587514034631
 10
536.2482869054045
 20
1171.996054020356
 10
541.2482869054045
 20
1171.996054020357
 10
541.2482869054045
 20
1161.496054020357
 10
521.1018402959983
 20
1161.496054020357
 10
518.2482869054045
 20
1158.642500629763
 10
518.2482869054045
 20
1140.996054020357
 10
556.7482869054045
 20
1140.996054020357
 10
556.7482869054045
 20
1145.996054020357
 10
567.2482869054045
 20
1145.996054020357
 10
567.2482869054045
 20
1117.496054020357
 10
556.7482869054045
 20
1117.496054020357
 10
556.7482869054045
 20
1122.496054020357
 10
518.2482869054054
 20
1122.496054020357
 10
518.2482869054045
 20
1104.84960741095
 10
521.1018402959983
 20
1101.996054020357
 10
541.2482869054045
 20
1101.996054020357
 10
541.2482869054045
 20
1091.496054020357
 10
536.2482869054045
 20
1091.496054020357
 10
536.2482869054045
 20
981.9960540203665
 10
559.2482869054045
 20
981.9960540203683
 10
559.2482869054045
 20
971.4960540203683
 10
554.2482869054045
 20
971.4960540203683
 10
554.2482869054045
 20
871.996054020361
 10
559.2482869054045
 20
871.996054020361
 10
559.2482869054045
 20
861.496054020361
 10
521.1018402959996
 20
861.496054020361
 10
518.2482869054045
 20
858.6425006297686
 10
518.2482869054045
 20
804.8496074109553
 10
521.1018402959983
 20
801.996054020361
 10
559.2482869054045
 20
801.996054020361
 10
559.2482869054045
 20
791.4960540203629
 10
554.2482869054045
 20
791.4960540203629
 10
554.2482869054045
 20
571.9960540203683
 10
559.2482869054045
 20
571.996054020372
 10
559.2482869054045
 20
561.496054020372
 10
521.1018402959983
 20
561.496054020372
 10
518.2482869054045
 20
558.6425006297741
 10
518.2482869054045
 20
504.8496074109626
 10
521.1018402959983
 20
501.996054020372
 10
559.2482869054045
 20
501.996054020372
 10
559.2482869054045
 20
491.4960540203701
 10
554.2482869054045
 20
491.4960540203701
 10
554.2482869054045
 20
192.8774803161627
 10
631.7482869054045
 20
192.8774803161627
 10
631.7482869054045
 20
491.4960540203701
 10
626.7482869054045
 20
491.4960540203701
 10
626.7482869054045
 20
501.996054020372
 10
664.8947335148116
 20
501.996054020372
 10
667.7482869054045
 20
504.8496074109626
 10
667.7482869054045
 20
558.6425006297741
 10
664.8947335148116
 20
561.496054020372
 10
626.7482869054045
 20
561.496054020372
 10
626.7482869054045
 20
571.996054020372
 10
631.7482869054045
 20
571.9960540203683
 10
631.7482869054045
 20
791.4960540203629
 10
626.7482869054045
 20
791.4960540203629
 10
626.7482869054045
 20
801.996054020361
 10
664.8947335148116
 20
801.996054020361
 10
667.7482869054045
 20
804.8496074109553
 10
667.7482869054045
 20
858.6425006297686
 10
664.8947335148116
 20
861.496054020361
 10
626.7482869054045
 20
861.496054020361
 10
626.7482869054045
 20
871.996054020361
 10
631.7482869054045
 20
871.996054020361
 10
631.7482869054045
 20
971.4960540203683
 10
626.7482869054045
 20
971.4960540203683
 10
626.7482869054045
 20
981.9960540203683
 10
649.7482869054045
 20
981.9960540203665
 10
649.7482869054045
 20
1091.496054020356
 10
644.7482869054045
 20
1091.496054020357
 10
644.7482869054045
 20
1101.996054020357
 10
664.8947335148116
 20
1101.996054020357
 10
667.7482869054045
 20
1104.84960741095
 10
667.7482869054045
 20
1122.496054020357
 10
629.2482869054045
 20
1122.496054020357
 10
629.2482869054045
 20
1117.496054020357
 10
618.7482869054045
 20
1117.496054020357
 10
618.7482869054045
 20
1145.996054020357
 10
629.2482869054045
 20
1145.996054020357
 10
629.2482869054045
 20
1140.996054020357
 10
667.7482869054045
 20
1140.996054020357
 10
667.7482869054045
 20
1158.642500629763
 10
664.8947335148116
 20
1161.496054020357
 10
644.7482869054045
 20
1161.496054020357
 10
644.7482869054045
 20
1171.996054020357
 10
649.7482869054045
 20
1171.996054020356
 10
649.7482869054045
 20
1421.587514034631
 10
644.7482869054045
 20
1421.587514034631
 10
644.7482869054045
 20
1432.087514034631
 10
664.8947335148116
 20
1432.087514034631
 10
667.7482869054045
 20
1434.941067425223
 10
667.7482869054045
 20
1488.733960644036
 10
664.8947335148116
 20
1491.587514034631
 10
644.7482869054045
 20
1491.587514034631
 10
644.7482869054045
 20
1502.087514034631
 10
649.7482869054045
 20
1502.087514034631
 10
649.7482869054045
 20
1751.678974048904
 10
644.7482869054045
 20
1751.678974048904
 10
644.7482869054045
 20
1762.178974048906
 10
664.8947335148116
 20
1762.178974048906
 10
667.7482869054045
 20
1765.032527439498
 10
667.7482869054045
 20
1782.678974048906
 10
629.2482869054045
 20
1782.678974048906
 10
629.2482869054045
 20
1777.678974048902
 10
618.7482869054045
 20
1777.678974048902
 10
618.7482869054045
 20
1806.178974048904
 10
629.2482869054045
 20
1806.178974048904
 10
629.2482869054045
 20
1801.178974048904
 10
667.7482869054045
 20
1801.178974048904
 10
667.7482869054045
 20
1818.825420658311
  0
MTEXT
  5
3E
330
8A
100
AcDbEntity
  8
1_ANYTOOL_1MMDEEP_INSIDE
100
AcDbMText
 10
611.2520192776362
 20
1629.051345271597
 30
0.0
 40
40.0
 41
373.7349397590361
 46
0.0
 71
     1
 72
     1
  1
\fArial;FRA-A/S5/EX
  7
textstyle12
 11
-4.624589118372729E-15
 21
-1.0
 31
0.0
 73
     1
 44
1.0
  0
LWPOLYLINE
  5
40
330
8A
100
AcDbEntity
  8
3_ANYTOOL_CUTTHROUGH_INSID
100
AcDbPolyline
 90
        4
 70
     1
 43
0.0
 10
1342.007798984067
 20
467.9522258898824
 10
1360.007565661364
 20
467.9523715125597
 10
1360.007645408977
 20
407.9524629782909
 10
1342.007571531817
 20
407.9525536631754
  0
LWPOLYLINE
  5
41
330
8A
100
AcDbEntity
  8
3_ANYTOOL_CUTTHROUGH_INSID
100
AcDbPolyline
 90
        4
 70
     1
 43
0.0
 10
248.4988032381445
 20
345.3769653320319
 10
248.4988032381445
 20
285.3771392822277
 10
230.4988481562043
 20
285.3771392822277
 10
230.4988481562043
 20
345.3769653320319
  0
LWPOLYLINE
  5
42
330
8A
100
AcDbEntity
  8
3_ANYTOOL_CUTTHROUGH_INSID
100
AcDbPolyline
 90
        4
 70
     1
 43
0.0
 10
1215.007884965937
 20
446.9524042297689
 10
1255.00792245028
 20
446.952320533379
 10
1255.007728380818
 20
428.9525095483914
 10
1215.008027634781
 20
428.9523953372054
  0
LWPOLYLINE
  5
43
330
8A
100
AcDbEntity
  8
3_ANYTOOL_CUTTHROUGH_INSID
100
AcDbPolyline
 90
        4
 70
     1
 43
0.0
 10
480.4983413736725
 20
345.3769653320319
 10
480.4983413736725
 20
285.3771392822277
 10
462.4983862917322
 20
285.3771392822296
 10
462.4983862917322
 20
345.3769653320319
  0
LWPOLYLINE
  5
44
330
8A
100
AcDbEntity
  8
3_ANYTOOL_CUTTHROUGH_INSID
100
AcDbPolyline
 90
        4
 70
     1
 43
0.0
 10
1110.008121537708
 20
467.9523326460903
 10
1128.008071353383
 20
467.9523985149681
 10
1128.008121562549
 20
407.952451580717
 10
1110.008047685389
 20
407.9525422656025
  0
LWPOLYLINE
  5
45
330
8A
100
AcDbEntity
  8
3_ANYTOOL_CUTTHROUGH_INSID
100
AcDbPolyline
 90
        4
 70
     1
 43
0.0
 10
248.4988032381423
 20
645.3763862609867
 10
248.4988032381445
 20
585.3765117645253
 10
230.4988481562043
 20
585.3765117645253
 10
230.4988481562025
 20
645.3763862609867
  0
LWPOLYLINE
  5
46
330
8A
100
AcDbEntity
  8
3_ANYTOOL_CUTTHROUGH_INSID
100
AcDbPolyline
 90
        4
 70
     1
 43
0.0
 10
1342.007549415707
 20
798.0431922428788
 10
1360.007504497647
 20
798.0431884010195
 10
1360.007491691438
 20
738.0433017928963
 10
1342.0075366095
 20
738.0433056347565
  0
LWPOLYLINE
  5
47
330
8A
100
AcDbEntity
  8
3_ANYTOOL_CUTTHROUGH_INSID
100
AcDbPolyline
 90
        4
 70
     1
 43
0.0
 10
375.4985549490345
 20
624.3764568328861
 10
375.4985549490355
 20
606.376489639285
 10
335.4986345808404
 20
606.376489639285
 10
335.4986345808413
 20
624.3764568328861
  0
LWPOLYLINE
  5
48
330
8A
100
AcDbEntity
  8
3_ANYTOOL_CUTTHROUGH_INSID
100
AcDbPolyline
 90
        4
 70
     1
 43
0.0
 10
480.4983413736725
 20
645.3763862609867
 10
480.4983413736716
 20
585.3765117645253
 10
462.4983862917322
 20
585.3765117645253
 10
462.4983862917322
 20
645.3763862609867
  0
LWPOLYLINE
  5
49
330
8A
100
AcDbEntity
  8
3_ANYTOOL_CUTTHROUGH_INSID
100
AcDbPolyline
 90
        4
 70
     1
 43
0.0
 10
1110.008011280185
 20
798.0432417602105
 10
1128.007966362123
 20
798.0432379183503
 10
1128.007953555915
 20
738.0433513102289
 10
1110.007998473976
 20
738.0433551520891
  0
LWPOLYLINE
  5
4A
330
8A
100
AcDbEntity
  8
3_ANYTOOL_CUTTHROUGH_INSID
100
AcDbPolyline
 90
        4
 70
     1
 43
0.0
 10
1342.007493814388
 20
1128.133993498988
 10
1360.007448896326
 20
1128.13398965713
 10
1360.007436090124
 20
1068.13411516067
 10
1342.007481008184
 20
1068.134119002529
  0
LWPOLYLINE
  5
4B
330
8A
100
AcDbEntity
  8
3_ANYTOOL_CUTTHROUGH_INSID
100
AcDbPolyline
 90
        4
 70
     1
 43
0.0
 10
248.4988032381445
 20
945.375807189942
 10
248.4988032381445
 20
885.3759326934824
 10
230.4988481562043
 20
885.3759326934824
 10
230.4988481562043
 20
945.375807189942
  0
LWPOLYLINE
  5
4C
330
8A
100
AcDbEntity
  8
3_ANYTOOL_CUTTHROUGH_INSID
100
AcDbPolyline
 90
        4
 70
     1
 43
0.0
 10
480.4983413736725
 20
945.375807189942
 10
480.4983413736725
 20
885.3759326934824
 10
462.4983862917322
 20
885.3759326934824
 10
462.4983862917322
 20
945.375807189942
  0
LWPOLYLINE
  5
4D
330
8A
100
AcDbEntity
  8
3_ANYTOOL_CUTTHROUGH_INSID
100
AcDbPolyline
 90
        4
 70
     1
 43
0.0
 10
1215.007737621322
 20
1107.134042730704
 10
1255.007657989516
 20
1107.134034193234
 10
1255.007654147654
 20
1089.13406699963
 10
1215.007733779461
 20
1089.134075537102
  0
LWPOLYLINE
  5
4E
330
8A
100
AcDbEntity
  8
3_ANYTOOL_CUTTHROUGH_INSID
100
AcDbPolyline
 90
        4
 70
     1
 43
0.0
 10
1110.007955678866
 20
1128.134043016321
 10
1128.007910760803
 20
1128.134039174461
 10
1128.007897954599
 20
1068.134164678002
 10
1110.007942872659
 20
1068.134168519861
  0
LWPOLYLINE
  5
4F
330
8A
100
AcDbEntity
  8
3_ANYTOOL_CUTTHROUGH_INSID
100
AcDbPolyline
 90
        4
 70
     1
 43
0.0
 10
1342.007557845418
 20
1428.133390204612
 10
1360.007512927356
 20
1428.13338636275
 10
1360.007500121149
 20
1368.133499754627
 10
1342.007545039209
 20
1368.133503596486
  0
LWPOLYLINE
  5
50
330
8A
100
AcDbEntity
  8
3_ANYTOOL_CUTTHROUGH_INSID
100
AcDbPolyline
 90
        4
 70
     1
 43
0.0
 10
248.4988032381445
 20
1245.375216007233
 10
248.4988032381436
 20
1185.375329399108
 10
230.4988481562034
 20
1185.375329399108
 10
230.4988481562034
 20
1245.375216007233
  0
LWPOLYLINE
  5
51
330
8A
100
AcDbEntity
  8
3_ANYTOOL_CUTTHROUGH_INSID
100
AcDbPolyline
 90
        4
 70
     1
 43
0.0
 10
480.4983413736725
 20
1245.375216007233
 10
480.4983413736725
 20
1185.375329399108
 10
462.4983862917322
 20
1185.375329399108
 10
462.4983862917322
 20
1245.375216007233
  0
LWPOLYLINE
  5
52
330
8A
100
AcDbEntity
  8
3_ANYTOOL_CUTTHROUGH_INSID
100
AcDbPolyline
 90
        4
 70
     1
 43
0.0
 10
1110.008019709894
 20
1428.133439721942
 10
1128.007974791833
 20
1428.133435880081
 10
1128.007961985626
 20
1368.133549271961
 10
1110.008006903686
 20
1368.133553113818
  0
LWPOLYLINE
  5
53
330
8A
100
AcDbEntity
  8
3_ANYTOOL_CUTTHROUGH_INSID
100
AcDbPolyline
 90
        4
 70
     1
 43
0.0
 10
1342.00762187645
 20
1728.132786910232
 10
1360.007576958389
 20
1728.132783068371
 10
1360.007564152181
 20
1668.132896460249
 10
1342.007609070243
 20
1668.132900302108
  0
LWPOLYLINE
  5
54
330
8A
100
AcDbEntity
  8
3_ANYTOOL_CUTTHROUGH_INSID
100
AcDbPolyline
 90
        4
 70
     1
 43
0.0
 10
248.4988032381445
 20
1545.374612712861
 10
248.4988032381436
 20
1485.374726104736
 10
230.4988481562034
 20
1485.374726104736
 10
230.4988481562034
 20
1545.374612712861
  0
LWPOLYLINE
  5
55
330
8A
100
AcDbEntity
  8
3_ANYTOOL_CUTTHROUGH_INSID
100
AcDbPolyline
 90
        4
 70
     1
 43
0.0
 10
1110.008083740928
 20
1728.132836427562
 10
1128.008038822866
 20
1728.132832585703
 10
1128.008026016659
 20
1668.132945977581
 10
1110.008070934719
 20
1668.132949819442
  0
LWPOLYLINE
  5
56
330
8A
100
AcDbEntity
  8
6_ANYTOOL_CUTTHROUGH_OUTSI
100
AcDbPolyline
 90
       80
 70
     1
 43
0.0
 10
1237.251420684587
 20
2329.463836551897
 10
1237.251420684587
 20
2341.463818718186
 10
1240.251413198244
 20
2344.463805176013
 10
1260.251373382341
 20
2344.463805176013
 10
1260.251373382341
 20
2354.463788295978
 10
1255.251381822359
 20
2354.463788295978
 10
1255.251381822359
 20
2421.463656426661
 10
1260.251373382343
 20
2421.463656426661
 10
1260.251373382341
 20
2431.46363651871
 10
1240.251413198244
 20
2431.46363651871
 10
1237.251420684587
 20
2434.463630546325
 10
1237.251420684587
 20
2468.46356285929
 10
1240.251413198244
 20
2471.463556886903
 10
1260.251373382341
 20
2471.463556886903
 10
1260.251373382341
 20
2481.463536978953
 10
1255.251381822359
 20
2481.463536978953
 10
1255.251381822359
 20
2548.463405109636
 10
1260.251373382341
 20
2548.463405109636
 10
1260.251373382341
 20
2558.463388229602
 10
1240.251413198244
 20
2558.463388229602
 10
1237.251420684587
 20
2561.463374687427
 10
1237.251420684587
 20
2573.463356853717
 10
1240.251413198244
 20
2576.463343311541
 10
1260.251373382341
 20
2576.463343311541
 10
1260.251373382341
 20
2586.463326431505
 10
1255.251381822359
 20
2586.463326431505
 10
1255.251381822359
 20
2594.463310505144
 10
1286.251321621668
 20
2594.463310505144
 10
1286.251321621668
 20
2553.463390613788
 10
1296.251301713716
 20
2553.463390613788
 10
1296.251301713716
 20
2558.463388229602
 10
1328.251238008272
 20
2558.463388229602
 10
1328.251238008272
 20
2553.463390613788
 10
1338.251218100321
 20
2553.463390613788
 10
1338.251218100321
 20
2594.463310505144
 10
1369.25115789963
 20
2594.463310505144
 10
1369.25115789963
 20
2586.463326431505
 10
1364.251166339647
 20
2586.463326431505
 10
1364.251166339647
 20
2576.463343311541
 10
1384.251126523744
 20
2576.463343311541
 10
1387.251119037401
 20
2573.463356853717
 10
1387.251119037401
 20
2561.463374687427
 10
1384.251126523744
 20
2558.463388229602
 10
1364.251166339647
 20
2558.463388229602
 10
1364.251166339647
 20
2548.463405109636
 10
1369.25115789963
 20
2548.463405109636
 10
1369.25115789963
 20
2481.463536978953
 10
1364.251166339647
 20
2481.463536978953
 10
1364.251166339647
 20
2471.463556886903
 10
1384.251126523744
 20
2471.463556886903
 10
1387.251119037401
 20
2468.46356285929
 10
1387.251119037401
 20
2434.463630546325
 10
1384.251126523744
 20
2431.46363651871
 10
1364.251166339647
 20
2431.46363651871
 10
1364.251166339647
 20
2421.463656426661
 10
1369.25115789963
 20
2421.463656426661
 10
1369.25115789963
 20
2354.463788295978
 10
1364.251166339647
 20
2354.463788295978
 10
1364.251166339647
 20
2344.463805176013
 10
1384.251126523744
 20
2344.463805176013
 10
1387.251119037401
 20
2341.463818718186
 10
1387.251119037401
 20
2329.463836551897
 10
1384.251126523744
 20
2326.463850094073
 10
1364.251166339647
 20
2326.463850094073
 10
1364.251166339647
 20
2316.463866974109
 10
1369.25115789963
 20
2316.463866974109
 10
1369.25115789963
 20
2308.46388290047
 10
1338.251218100321
 20
2308.46388290047
 10
1338.251218100321
 20
2349.463802791828
 10
1328.251238008272
 20
2349.463802791828
 10
1328.251238008272
 20
2344.463805176013
 10
1296.251301713716
 20
2344.463805176013
 10
1296.251301713716
 20
2349.463802791828
 10
1286.251321621668
 20
2349.463802791828
 10
1286.251321621668
 20
2308.46388290047
 10
1255.251381822359
 20
2308.46388290047
 10
1255.251381822359
 20
2316.463866974109
 10
1260.251373382341
 20
2316.463866974109
 10
1260.251373382341
 20
2326.463850094073
 10
1240.251413198244
 20
2326.463850094073
  0
LWPOLYLINE
  5
57
330
8A
100
AcDbEntity
  8
3_ANYTOOL_CUTTHROUGH_INSID
100
AcDbPolyline
 90
        4
 70
     1
 43
0.0
 10
480.4983413736725
 20
1545.374612712861
 10
480.4983413736725
 20
1485.374726104736
 10
462.4983862917322
 20
1485.374726104736
 10
462.4983862917322
 20
1545.374612712861
  0
LWPOLYLINE
  5
58
330
8A
100
AcDbEntity
  8
6_ANYTOOL_CUTTHROUGH_OUTSI
100
AcDbPolyline
 90
       80
 70
     1
 43
0.0
 10
1069.251420684585
 20
2329.463836551897
 10
1069.251420684585
 20
2341.463818718186
 10
1072.251413198243
 20
2344.463805176013
 10
1092.251373382339
 20
2344.463805176013
 10
1092.251373382339
 20
2354.463788295978
 10
1087.251381822357
 20
2354.463788295978
 10
1087.251381822357
 20
2421.463656426661
 10
1092.251373382339
 20
2421.463656426661
 10
1092.251373382339
 20
2431.46363651871
 10
1072.251413198243
 20
2431.46363651871
 10
1069.251420684585
 20
2434.463630546325
 10
1069.251420684585
 20
2468.46356285929
 10
1072.251413198243
 20
2471.463556886903
 10
1092.251373382339
 20
2471.463556886903
 10
1092.251373382339
 20
2481.463536978953
 10
1087.251381822357
 20
2481.463536978953
 10
1087.251381822357
 20
2548.463405109636
 10
1092.251373382339
 20
2548.463405109636
 10
1092.251373382339
 20
2558.463388229602
 10
1072.251413198243
 20
2558.463388229602
 10
1069.251420684585
 20
2561.463374687427
 10
1069.251420684585
 20
2573.463356853717
 10
1072.251413198243
 20
2576.463343311541
 10
1092.251373382339
 20
2576.463343311541
 10
1092.251373382339
 20
2586.463326431505
 10
1087.251381822357
 20
2586.463326431505
 10
1087.251381822357
 20
2594.463310505144
 10
1118.251321621666
 20
2594.463310505144
 10
1118.251321621666
 20
2553.463390613788
 10
1128.251301713714
 20
2553.463390613788
 10
1128.251301713714
 20
2558.463388229602
 10
1160.251238008271
 20
2558.463388229602
 10
1160.251238008271
 20
2553.463390613788
 10
1170.251218100319
 20
2553.463390613788
 10
1170.251218100319
 20
2594.463310505144
 10
1201.251157899628
 20
2594.463310505144
 10
1201.251157899628
 20
2586.463326431505
 10
1196.251166339645
 20
2586.463326431505
 10
1196.251166339645
 20
2576.463343311541
 10
1216.251126523742
 20
2576.463343311541
 10
1219.251119037399
 20
2573.463356853717
 10
1219.251119037399
 20
2561.463374687427
 10
1216.251126523742
 20
2558.463388229602
 10
1196.251166339645
 20
2558.463388229602
 10
1196.251166339645
 20
2548.463405109636
 10
1201.251157899628
 20
2548.463405109636
 10
1201.251157899628
 20
2481.463536978953
 10
1196.251166339645
 20
2481.463536978953
 10
1196.251166339645
 20
2471.463556886903
 10
1216.251126523742
 20
2471.463556886903
 10
1219.251119037399
 20
2468.46356285929
 10
1219.251119037399
 20
2434.463630546325
 10
1216.251126523742
 20
2431.46363651871
 10
1196.251166339645
 20
2431.46363651871
 10
1196.251166339645
 20
2421.463656426661
 10
1201.251157899628
 20
2421.463656426661
 10
1201.251157899628
 20
2354.463788295978
 10
1196.251166339645
 20
2354.463788295978
 10
1196.251166339645
 20
2344.463805176013
 10
1216.251126523742
 20
2344.463805176013
 10
1219.251119037399
 20
2341.463818718186
 10
1219.251119037399
 20
2329.463836551897
 10
1216.251126523742
 20
2326.463850094073
 10
1196.251166339645
 20
2326.463850094073
 10
1196.251166339645
 20
2316.463866974109
 10
1201.251157899628
 20
2316.463866974109
 10
1201.251157899628
 20
2308.46388290047
 10
1170.251218100319
 20
2308.46388290047
 10
1170.251218100319
 20
2349.463802791828
 10
1160.251238008271
 20
2349.463802791828
 10
1160.251238008271
 20
2344.463805176013
 10
1128.251301713714
 20
2344.463805176013
 10
1128.251301713714
 20
2349.463802791828
 10
1118.251321621666
 20
2349.463802791828
 10
1118.251321621666
 20
2308.46388290047
 10
1087.251381822357
 20
2308.46388290047
 10
1087.251381822357
 20
2316.463866974109
 10
1092.251373382339
 20
2316.463866974109
 10
1092.251373382339
 20
2326.463850094073
 10
1072.251413198243
 20
2326.463850094073
  0
LWPOLYLINE
  5
59
330
8A
100
AcDbEntity
  8
3_ANYTOOL_CUTTHROUGH_INSID
100
AcDbPolyline
 90
        4
 70
     1
 43
0.0
 10
248.4988032381436
 20
1845.373997306824
 10
248.4988032381436
 20
1785.374122810364
 10
230.4988481562034
 20
1785.374122810364
 10
230.4988481562034
 20
1845.373997306824
  0
LWPOLYLINE
  5
5A
330
8A
100
AcDbEntity
  8
3_ANYTOOL_CUTTHROUGH_INSID
100
AcDbPolyline
 90
        4
 70
     1
 43
0.0
 10
1038.681353704151
 20
2284.147040608579
 10
1049.656119311507
 20
2298.414237348494
 10
1097.213470577875
 20
2261.831663170136
 10
1086.238704970518
 20
2247.564466430221
  0
LWPOLYLINE
  5
5B
330
8A
100
AcDbEntity
  8
3_ANYTOOL_CUTTHROUGH_INSID
100
AcDbPolyline
 90
        4
 70
     1
 43
0.0
 10
248.4988032381436
 20
2385.372988891602
 10
230.4988481562034
 20
2385.372988891602
 10
230.4988481562034
 20
2445.372814941406
 10
248.4988032381436
 20
2445.372814941406
  0
LWPOLYLINE
  5
5C
330
8A
100
AcDbEntity
  8
3_ANYTOOL_CUTTHROUGH_INSID
100
AcDbPolyline
 90
        4
 70
     1
 43
0.0
 10
480.4983413736725
 20
1845.373997306824
 10
480.4983413736725
 20
1785.374122810364
 10
462.4983862917322
 20
1785.374122810364
 10
462.4983862917322
 20
1845.373997306824
  0
LWPOLYLINE
  5
5D
330
8A
100
AcDbEntity
  8
3_ANYTOOL_CUTTHROUGH_INSID
100
AcDbPolyline
 90
        4
 70
     1
 43
0.0
 10
800.8945685723245
 20
2467.059933654199
 10
811.8693341796813
 20
2481.327130394114
 10
859.4267142460365
 20
2444.744534061923
 10
848.4519486386794
 20
2430.477337322007
  0
LWPOLYLINE
  5
5E
330
8A
100
AcDbEntity
  8
3_ANYTOOL_CUTTHROUGH_INSID
100
AcDbPolyline
 90
        4
 70
     1
 43
0.0
 10
248.4988032381414
 20
2145.373394012449
 10
248.4988032381436
 20
2085.373519515991
 10
230.4988481562034
 20
2085.373519515991
 10
230.4988481562025
 20
2145.373394012449
  0
LWPOLYLINE
  5
5F
330
8A
100
AcDbEntity
  8
3_ANYTOOL_CUTTHROUGH_INSID
100
AcDbPolyline
 90
        4
 70
     1
 43
0.0
 10
897.2287478247515
 20
2100.258634271949
 10
908.2035134321084
 20
2114.525831011864
 10
955.7608646984775
 20
2077.943256833508
 10
944.7860990911195
 20
2063.676060093591
  0
LWPOLYLINE
  5
60
330
8A
100
AcDbEntity
  8
3_ANYTOOL_CUTTHROUGH_INSID
100
AcDbPolyline
 90
        4
 70
     1
 43
0.0
 10
480.4983413736716
 20
2385.372988891602
 10
462.4983862917322
 20
2385.372988891602
 10
462.4983862917322
 20
2445.372814941406
 10
480.4983413736716
 20
2445.372814941406
  0
LWPOLYLINE
  5
61
330
8A
100
AcDbEntity
  8
3_ANYTOOL_CUTTHROUGH_INSID
100
AcDbPolyline
 90
        4
 70
     1
 43
0.0
 10
375.4985549490336
 20
2124.373464584351
 10
375.4985549490355
 20
2106.373497390748
 10
335.4986345808386
 20
2106.373497390748
 10
335.4986345808404
 20
2124.373464584352
  0
LWPOLYLINE
  5
62
330
8A
100
AcDbEntity
  8
3_ANYTOOL_CUTTHROUGH_INSID
100
AcDbPolyline
 90
        4
 70
     1
 43
0.0
 10
480.4983413736716
 20
2145.373394012449
 10
480.4983413736693
 20
2085.373519515992
 10
462.4983862917322
 20
2085.373519515991
 10
462.4983862917322
 20
2145.373394012449
  0
LWPOLYLINE
  5
63
330
8A
100
AcDbEntity
  8
3_ANYTOOL_CUTTHROUGH_INSID
100
AcDbPolyline
 90
        4
 70
     1
 43
0.0
 10
659.4419626929255
 20
2283.171527317568
 10
670.4167283002823
 20
2297.438724057485
 10
717.9741083666374
 20
2260.856127725292
 10
706.9993427592806
 20
2246.588930985377
  0
MTEXT
  5
64
330
8A
100
AcDbEntity
  8
1_ANYTOOL_1MMDEEP_INSIDE
100
AcDbMText
 10
333.2295283147198
 20
1283.225710358021
 30
0.0
 40
40.0
 41
271.566265060241
 46
0.0
 71
     1
 72
     1
  1
\fArial;FRA-A/F1
  7
textstyle13
 11
6.123233995736766E-17
 21
1.0
 31
0.0
 73
     1
 44
1.0
  0
MTEXT
  5
65
330
8A
100
AcDbEntity
  8
1_ANYTOOL_1MMDEEP_INSIDE
100
AcDbMText
 10
1257.849475500886
 20
1617.394596900101
 30
0.0
 40
40.0
 41
279.277108433735
 46
0.0
 71
     1
 72
     1
  1
\fArial;FRA-A/F5
  7
textstyle14
 11
-4.624589118372729E-15
 21
-1.0
 31
0.0
 73
     1
 44
1.0
  0
LWPOLYLINE
  5
66
330
8A
100
AcDbEntity
  8
3_ANYTOOL_CUTTHROUGH_INSID
100
AcDbPolyline
 90
       12
 70
     1
 43
0.0
 10
391.9985230963123
 20
2400.872884368897
 10
380.9985430042645
 20
2400.872884368897
 10
380.9985430042645
 20
2405.872869873048
 10
329.9986465256104
 20
2405.872869873048
 10
329.9986465256104
 20
2400.872884368897
 10
318.9986664335622
 20
2400.872884368897
 10
318.9986664335622
 20
2429.872822570801
 10
329.9986465256104
 20
2429.872822570801
 10
329.9986465256104
 20
2424.872837066651
 10
380.9985430042645
 20
2424.872837066651
 10
380.9985430042645
 20
2429.872822570801
 10
391.9985230963123
 20
2429.872822570801
  0
LWPOLYLINE
  5
67
330
8A
100
AcDbEntity
  8
3_ANYTOOL_CUTTHROUGH_INSID
100
AcDbPolyline
 90
       12
 70
     1
 43
0.0
 10
391.9985230963136
 20
1829.874053382874
 10
391.9985230963136
 20
1800.874066734314
 10
380.9985430042645
 20
1800.874066734314
 10
380.9985430042645
 20
1805.874100685122
 10
329.9986465256104
 20
1805.874100685122
 10
329.9986465256104
 20
1800.874066734314
 10
318.9986664335636
 20
1800.874066734314
 10
318.9986664335636
 20
1829.874053382874
 10
329.9986465256104
 20
1829.874053382874
 10
329.9986465256104
 20
1824.874067878724
 10
380.9985430042645
 20
1824.874067878724
 10
380.9985430042645
 20
1829.874053382874
  0
LWPOLYLINE
  5
68
330
8A
100
AcDbEntity
  8
3_ANYTOOL_CUTTHROUGH_INSID
100
AcDbPolyline
 90
       12
 70
     1
 43
0.0
 10
391.9985230963136
 20
929.8758632659919
 10
391.9985230963136
 20
900.8758766174324
 10
380.9985430042655
 20
900.8758766174324
 10
380.9985430042655
 20
905.8759105682384
 10
329.9986465256104
 20
905.8759105682384
 10
329.9986465256104
 20
900.8758766174324
 10
318.9986664335636
 20
900.8758766174324
 10
318.9986664335636
 20
929.8758632659919
 10
329.9986465256104
 20
929.8758632659919
 10
329.9986465256104
 20
924.8758777618414
 10
380.9985430042655
 20
924.8758777618414
 10
380.9985430042655
 20
929.8758632659919
  0
LWPOLYLINE
  5
69
330
8A
100
AcDbEntity
  8
3_ANYTOOL_CUTTHROUGH_INSID
100
AcDbPolyline
 90
       12
 70
     1
 43
0.0
 10
391.9985230963136
 20
329.8770698547369
 10
391.9985230963136
 20
300.8771316528309
 10
380.9985430042655
 20
300.8771316528309
 10
380.9985430042655
 20
305.8771171569815
 10
329.9986465256104
 20
305.8771171569815
 10
329.9986465256104
 20
300.8771316528309
 10
318.9986664335636
 20
300.8771316528309
 10
318.9986664335636
 20
329.8770698547369
 10
329.9986465256104
 20
329.8770698547369
 10
329.9986465256104
 20
324.8770843505858
 10
380.9985430042655
 20
324.8770843505858
 10
380.9985430042655
 20
329.8770698547369
  0
LWPOLYLINE
  5
6A
330
8A
100
AcDbEntity
  8
6_ANYTOOL_CUTTHROUGH_OUTSI
100
AcDbPolyline
 90
      220
 70
     1
 43
0.0
 10
682.9186394220603
 20
2580.20730329069
 10
658.5304791375613
 20
2548.502775292444
 42
0.4142135623730799
 10
660.2681384852315
 20
2535.180593039102
 10
711.7886492255996
 20
2495.549330467074
 42
-0.414213562372838
 10
713.7092200835784
 20
2480.824813239711
 10
695.7227239931874
 20
2457.442427595995
 42
-0.4142135623730823
 10
680.9982067658073
 20
2455.521856738026
 10
629.4776960254405
 20
2495.153119310045
 42
0.4142135623732078
 10
616.1555137721004
 20
2493.415459962374
 10
597.5593059498394
 20
2469.240451076497
 42
0.414213562373089
 10
599.2969652975014
 20
2455.918268823163
 10
650.8174760378813
 20
2416.28700625114
 42
-0.4142135623732021
 10
652.7380468958524
 20
2401.56248902376
 10
634.7515508054655
 20
2378.180103380048
 42
-0.4142135623730355
 10
620.0270335781145
 20
2376.259532522065
 10
568.5065228377205
 20
2415.890795094103
 42
0.4142135623735167
 10
555.1843405843804
 20
2414.153135746441
 10
530.7958713091555
 20
2382.448206060144
 10
603.9152559431734
 20
2326.202382990517
 10
606.9638057642853
 20
2330.165487711552
 10
615.2863268274402
 20
2323.763532203387
 10
601.2629858349253
 20
2305.533235126637
 10
743.5385977709755
 20
2196.090179278551
 10
757.5619387634913
 20
2214.320476355302
 10
765.8844598266444
 20
2207.918520847134
 10
762.8359100055316
 20
2203.9554161261
 10
841.7017696050925
 20
2143.289216492803
 10
844.7503194262044
 20
2147.252321213839
 10
853.0728404893575
 20
2140.850365705675
 10
839.0494994968424
 20
2122.620068628928
 10
981.3250874329274
 20
2013.177031242401
 10
995.3484284254425
 20
2031.407328319152
 10
1003.670956688586
 20
2025.005367272517
 10
1000.622406775512
 20
2021.042262431932
 10
1095.697163024528
 20
1947.907557851144
 10
1116.732214891397
 20
1975.253055957664
 10
1112.76903337047
 20
1978.301664855764
 10
1119.170988878637
 20
1986.624185918917
 10
1141.760779097393
 20
1969.247380162362
 10
1135.358823589226
 20
1960.924859099208
 10
1131.395642068299
 20
1963.973467997313
 10
1110.260006342307
 20
1936.4972112054
 10
1110.259967930773
 20
1798.382681877967
 10
1115.259953737301
 20
1798.382674439745
 10
1115.259938117029
 20
1787.882703431454
 10
1092.259985419302
 20
1787.882737647313
 10
1092.259718386834
 20
1608.383095990635
 10
1115.259671084563
 20
1608.383061774778
 10
1115.259655464278
 20
1597.883081682739
 10
1110.259669960133
 20
1597.883089120963
 10
1110.259521939348
 20
1498.383285172673
 10
1115.259507443492
 20
1498.383277734452
 10
1115.259491823221
 20
1487.88330672616
 10
1092.259539125492
 20
1487.883340942017
 10
1092.259272093025
 20
1308.38369928534
 10
1115.259224790754
 20
1308.383665069486
 10
1115.259209170469
 20
1297.883684977447
 10
1110.259223666325
 20
1297.883692415669
 10
1110.259075645539
 20
1198.383888467377
 10
1115.259061149683
 20
1198.383881029152
 10
1115.259045529412
 20
1187.883910020864
 10
1092.259092831685
 20
1187.883944236723
 10
1092.258825799173
 20
1008.384272300886
 10
1115.258778496901
 20
1008.384238085027
 10
1115.258762876631
 20
997.8842670767372
 10
1110.25877761473
 20
997.8842745149586
 10
1110.258710399014
 20
868.2930872114648
 10
1115.258696145402
 20
868.2930797732406
 10
1115.258680525131
 20
857.7931087649476
 10
1092.258727827402
 20
857.7931429808068
 10
1092.258460794936
 20
678.2935013241295
 10
1115.258413492664
 20
678.293467108273
 10
1115.258397872379
 20
667.7934870162353
 10
1110.258412612072
 20
667.7934944544604
 10
1110.258346223717
 20
538.2022941329897
 10
1115.258324798185
 20
538.2022436999287
 10
1115.258330544051
 20
527.7022665000432
 10
1092.258247911745
 20
527.7023921539585
 10
1092.25807513979
 20
348.2027475893046
 10
1115.258000315974
 20
348.2027400893685
 10
1115.25813632621
 20
337.7025968318576
 10
1110.258010048026
 20
337.7027654186927
 10
1110.258254427748
 20
331.2025232264159
 10
1150.258254427748
 20
331.2025232266287
 42
-0.4142135623730088
 10
1160.508254427745
 20
320.9525232268538
 10
1160.508254427748
 20
255.9525232266296
 42
0.4142135623731303
 10
1170.258254427748
 20
246.2025232266287
 10
1199.758254427748
 20
246.2025232266287
 42
0.4142135623731027
 10
1209.508254427748
 20
255.9525232266287
 10
1209.508254427748
 20
320.9525232266287
 42
-0.4142135623730813
 10
1219.758254427748
 20
331.2025232266287
 10
1250.258254427748
 20
331.2025232266287
 42
-0.4142135623729896
 10
1260.508254427748
 20
320.9525232266437
 10
1260.508254427748
 20
255.9525232266296
 42
0.4142135623731323
 10
1270.258254427731
 20
246.2025232266369
 10
1299.758254427748
 20
246.2025232266287
 42
0.4142135623729314
 10
1309.508254427748
 20
255.9525232266337
 10
1309.508254427748
 20
320.9525232266287
 10
1309.510779620889
 20
321.1800316501849
 10
1309.518444909015
 20
321.4094707291515
 10
1309.531381677793
 20
321.6406901803707
 10
1309.549716614466
 20
321.8735312150807
 10
1309.573571122578
 20
322.1078266384607
 10
1309.603060729899
 20
322.3434009923408
 10
1309.638294492909
 20
322.5800707427588
 10
1309.679374401479
 20
322.8176445138538
 10
1309.726394787567
 20
323.0559233691856
 10
1309.779441742059
 20
323.2947011412957
 10
1309.838592543955
 20
323.5337648099016
 10
1309.903915106331
 20
323.7728949287939
 10
1309.975467443601
 20
324.0118661009747
 10
1310.053297164621
 20
324.2504475012097
 10
1310.13744099624
 20
324.4884034446359
 10
1310.227924341857
 20
324.7254939996387
 10
1310.324760879432
 20
324.9614756426449
 10
1310.42795220324
 20
325.1961019521109
 10
1310.537487513512
 20
325.4291243383368
 10
1310.653343357742
 20
325.6602928054526
 10
1310.775483427213
 20
325.8893567413397
 10
1310.903858411838
 20
326.1160657308997
 10
1311.038405916016
 20
326.3401703877257
 10
1311.179050437756
 20
326.5614231988247
 10
1311.325703412681
 20
326.7795793768905
 10
1311.47826332413
 20
326.9943977142366
 10
1311.636615879828
 20
327.2056414325289
 10
1311.800634255105
 20
327.4130790222207
 10
1311.970179401925
 20
327.6164850656678
 10
1312.145100422433
 20
327.8156410378979
 10
1312.325235005052
 20
328.0103360791945
 10
1312.510409920586
 20
328.2003677337898
 10
1312.700441575182
 20
328.3855426493237
 10
1312.895136616477
 20
328.5656772319426
 10
1313.094292588708
 20
328.7405982524506
 10
1313.297698632156
 20
328.9101433992719
 10
1313.505136221847
 20
329.0741617745475
 10
1313.716379940138
 20
329.2325143302455
 10
1313.931198277484
 20
329.3850742416939
 10
1314.14935445555
 20
329.5317272166199
 10
1314.370607266653
 20
329.6723717383607
 10
1314.594711923477
 20
329.8069192425387
 10
1314.821420913037
 20
329.9352942271639
 10
1315.050484848923
 20
330.0574342966329
 10
1315.281653316039
 20
330.1732901408636
 10
1315.514675702266
 20
330.2828254511346
 10
1315.74930201173
 20
330.3860167749449
 10
1315.985283654738
 20
330.4828533125155
 10
1316.222374209739
 20
330.5733366581367
 10
1316.460330153167
 20
330.6574804897559
 10
1316.698911553401
 20
330.7353102107727
 10
1316.937882725583
 20
330.8068625480455
 10
1317.177012844475
 20
330.8721851104237
 10
1317.416076513081
 20
330.9313359123166
 10
1317.65485428519
 20
330.9843828668099
 10
1317.893133140523
 20
331.0314032528968
 10
1318.130706911617
 20
331.0724831614666
 10
1318.367376662035
 20
331.1077169244777
 10
1318.602951015914
 20
331.1372065317987
 10
1318.837246439296
 20
331.1610610399107
 10
1319.070087474006
 20
331.1793959765837
 10
1319.301306925224
 20
331.1923327453619
 10
1319.530746004192
 20
331.1999980334876
 10
1319.758254427748
 20
331.2025232266287
 10
1359.757555922402
 20
331.2023614815657
 10
1359.75759679978
 20
337.7023825176257
 10
1354.75742501076
 20
337.7025127049787
 10
1354.757903104648
 20
348.2021276024657
 10
1377.757513671925
 20
348.2023564103715
 10
1377.757869073442
 20
527.7019246564705
 10
1354.75791461313
 20
527.7018937564671
 10
1354.757778602914
 20
538.2020355112982
 10
1359.757943746168
 20
538.2019053241183
 10
1359.757906030098
 20
667.7931232867786
 10
1354.757920081282
 20
667.7931307250046
 10
1354.757935701567
 20
678.2931108170405
 10
1377.757888399296
 20
678.2930766011859
 10
1377.758155431761
 20
857.7927182578615
 10
1354.758202734033
 20
857.7927524737197
 10
1354.758218354305
 20
868.2927234820099
 10
1359.758203616203
 20
868.2927160437857
 10
1359.758270831921
 20
997.8839033472823
 10
1354.758285085534
 20
997.8839107855074
 10
1354.758300705804
 20
1008.383881793799
 10
1377.758253403533
 20
1008.383847577939
 10
1377.758520436043
 20
1187.883519513776
 10
1354.758567738315
 20
1187.883553729635
 10
1354.758583358587
 20
1198.383524737925
 10
1359.758568862731
 20
1198.383517299701
 10
1359.758716883518
 20
1297.883321247993
 10
1354.758731379372
 20
1297.883328686219
 10
1354.758746999657
 20
1308.383308778252
 10
1377.758699697386
 20
1308.383274562397
 10
1377.758966729851
 20
1487.882916219074
 10
1354.759014032123
 20
1487.882950434931
 10
1354.759029652395
 20
1498.382921443221
 10
1359.759015156538
 20
1498.382914004996
 10
1359.759163177326
 20
1597.882717953286
 10
1354.759177673182
 20
1597.88272539151
 10
1354.759193293465
 20
1608.38270548355
 10
1377.759145991196
 20
1608.382671267692
 10
1377.75941302366
 20
1787.882312924368
 10
1354.759460325932
 20
1787.882347140225
 10
1354.759475946202
 20
1798.382318148513
 10
1359.759461477862
 20
1798.382310710291
 10
1359.75987876192
 20
2059.558754087577
 10
1152.745174923909
 20
2218.801359708622
 10
1149.696625159266
 20
2214.838255060993
 10
1141.374096896122
 20
2221.240216107624
 10
1155.397437888637
 20
2239.470513184377
 10
1013.121849952551
 20
2348.9135505709
 10
999.0985089600385
 20
2330.68325349415
 10
990.7759878968845
 20
2337.085209002311
 10
993.8245377179965
 20
2341.048313723352
 10
914.9586781184355
 20
2401.714513356649
 10
911.9101282973234
 20
2397.75140863561
 10
903.5876072341705
 20
2404.153364143778
 10
917.6109482266845
 20
2422.383661220525
 10
775.3353362906344
 20
2531.826717068611
 10
761.3119952981194
 20
2513.596419991862
 10
752.9894742349654
 20
2519.998375500028
 10
756.0380240560796
 20
2523.961480221064
  0
LWPOLYLINE
  5
6B
330
8A
100
AcDbEntity
  8
6_ANYTOOL_CUTTHROUGH_OUTSI
100
AcDbPolyline
 90
      188
 70
     1
 43
0.0
 10
480.2483413736725
 20
192.8774803161627
 10
440.2483413736725
 20
192.8774803161627
 42
-0.4142135623732116
 10
430.7483413736725
 20
202.3774803161677
 10
430.7483413736725
 20
267.3774803161618
 42
0.4142135623732534
 10
420.2483413736675
 20
277.8774803161627
 10
390.7483413736725
 20
277.8774803161627
 42
0.4142135623731454
 10
380.2483413736725
 20
267.3774803161559
 10
380.2483413736725
 20
202.3774803161618
 42
-0.4142135623729575
 10
370.7483413736684
 20
192.8774803161627
 10
340.2483413736725
 20
192.8774803161627
 42
-0.4142135623731864
 10
330.7483413736725
 20
202.3774803161587
 10
330.7483413736725
 20
267.3774803161618
 42
0.4142135623730036
 10
320.2483413736684
 20
277.8774803161627
 10
290.7483413736725
 20
277.8774803161627
 42
0.4142135623730168
 10
280.2483413736725
 20
267.3774803161609
 10
280.2483413736734
 20
202.3774803161637
 42
-0.414213562373095
 10
270.7483413736716
 20
192.8774803161618
 10
230.7488481562043
 20
192.8774803161627
 10
230.7488481562043
 20
215.1272453308106
 10
235.7488336603544
 20
215.1272453308106
 10
235.7488336603544
 20
225.6272163391127
 10
212.7488809626004
 20
225.6272163391136
 10
212.7488809626004
 20
405.1268882751483
 10
235.7488336603544
 20
405.1268882751483
 10
235.7488336603544
 20
415.6268592834467
 10
230.7488481562043
 20
415.6268592834467
 10
230.7488481562043
 20
515.1266662597673
 10
235.7488336603544
 20
515.1266662597636
 10
235.7488336603544
 20
525.6266372680666
 10
212.7488809626004
 20
525.6266372680666
 10
212.7488809625995
 20
705.1263092041027
 10
235.7488336603535
 20
705.1263092041017
 10
235.7488336603535
 20
715.626280212402
 10
230.7488481562043
 20
715.6262802124029
 10
230.7488481562043
 20
815.1260871887216
 10
235.7488336603544
 20
815.1260871887216
 10
235.7488336603544
 20
825.6260581970218
 10
212.7488809626004
 20
825.6260581970218
 10
212.7488809626004
 20
1005.125681686402
 10
235.7488336603544
 20
1005.125681686402
 10
235.7488336603544
 20
1015.625676918031
 10
230.7488481562043
 20
1015.625676918031
 10
230.7488481562043
 20
1115.125483894349
 10
235.7488336603544
 20
1115.125483894349
 10
235.7488336603544
 20
1125.62545490265
 10
212.7488809626004
 20
1125.62545490265
 10
212.7488809626004
 20
1305.125096559525
 10
235.7488336603544
 20
1305.125096559525
 10
235.7488336603544
 20
1315.625076651575
 10
230.7488481562034
 20
1315.625076651575
 10
230.7488481562043
 20
1415.124880599976
 10
235.7488336603544
 20
1415.124880599976
 10
235.7488336603544
 20
1425.624851608277
 10
212.7488809626004
 20
1425.624851608277
 10
212.7488809626004
 20
1605.124493265152
 10
235.7488336603544
 20
1605.124493265152
 10
235.7488336603544
 20
1615.6244733572
 10
230.7488481562034
 20
1615.6244733572
 10
230.7488481562034
 20
1715.124277305604
 10
235.7488336603544
 20
1715.124277305604
 10
235.7488336603544
 20
1725.624248313904
 10
212.7488809626004
 20
1725.624248313904
 10
212.7488809626004
 20
1905.123871803286
 10
235.7488336603544
 20
1905.123871803286
 10
235.7488336603544
 20
1915.623867034912
 10
230.7488481562034
 20
1915.623867034912
 10
230.7488481562034
 20
2015.123674011232
 10
235.7488336603544
 20
2015.123674011229
 10
235.7488336603535
 20
2025.623645019531
 10
212.7488809626004
 20
2025.623645019531
 10
212.7488809625986
 20
2205.123316955564
 10
235.7488336603526
 20
2205.123316955564
 10
235.7488336603526
 20
2215.623287963867
 10
230.7488481562034
 20
2215.623287963867
 10
230.7488481562034
 20
2315.123094940186
 10
235.7488336603544
 20
2315.123094940186
 10
235.7488336603544
 20
2325.623065948489
 10
212.7488809626004
 20
2325.623065948489
 10
212.7488809626004
 20
2505.122737884523
 10
235.7488336603544
 20
2505.122737884523
 10
235.7488336603544
 20
2515.622708892823
 10
230.7488481562034
 20
2515.622708892823
 10
230.7488481562034
 20
2522.122669219972
 10
270.7723970755335
 20
2522.122669219972
 10
274.6174216541483
 20
2522.856138685515
 10
278.1771185136515
 20
2525.194380424351
 10
280.5153250328756
 20
2528.754005888204
 10
281.2487453501124
 20
2532.59899461023
 10
281.2487453501124
 20
2597.598903116878
 10
281.9195578522106
 20
2601.115676572914
 10
284.0349751682054
 20
2604.336256514077
 10
287.2554990838964
 20
2606.451713213588
 10
290.7723551075685
 20
2607.122519683839
 10
320.2250365101543
 20
2607.122519683839
 10
323.7418895086273
 20
2606.451713224666
 10
326.9624133714563
 20
2604.336256559876
 10
329.0778278298365
 20
2601.115676477762
 10
329.7486462871923
 20
2597.59890291154
 10
329.7486462871923
 20
2532.598994854381
 10
330.4820589039375
 20
2528.754006059607
 10
332.8202671725282
 20
2525.194380293652
 10
336.3799716086644
 20
2522.856138671717
 10
340.2249930291885
 20
2522.122669219972
 10
370.7721965006874
 20
2522.122669219972
 10
374.6172179212106
 20
2522.856138671717
 10
378.1769223573463
 20
2525.194380293652
 10
380.5151306259365
 20
2528.754006059607
 10
381.2485432426822
 20
2532.598994854381
 10
381.2485432426822
 20
2597.59890291154
 10
381.9193617000394
 20
2601.115676477762
 10
384.0347761584183
 20
2604.336256559876
 10
387.2553000212476
 20
2606.451713224666
 10
390.7721530197202
 20
2607.122519683839
 10
420.2248344223083
 20
2607.122519683839
 10
423.7416904459785
 20
2606.451713213588
 10
426.9622143616705
 20
2604.336256514077
 10
429.0776316776644
 20
2601.115676572914
 10
429.7484441797635
 20
2597.598903116878
 10
429.7484441797635
 20
2532.59899461023
 10
430.4818644969994
 20
2528.7540058882
 10
432.8200710162225
 20
2525.194380424352
 10
436.3797678757267
 20
2522.856138685515
 10
440.2247924543415
 20
2522.122669219972
 10
480.2483413736716
 20
2522.122669219972
 10
480.2483413736716
 20
2515.622708892823
 10
475.2483558695214
 20
2515.622708892823
 10
475.2483558695214
 20
2505.122737884523
 10
498.2483085672754
 20
2505.122737884523
 10
498.2483085672754
 20
2325.623065948489
 10
475.2483558695214
 20
2325.623065948489
 10
475.2483558695214
 20
2315.123094940186
 10
480.2483413736716
 20
2315.123094940186
 10
480.2483413736716
 20
2215.623287963867
 10
475.2483558695214
 20
2215.623287963866
 10
475.2483558695183
 20
2205.123316955563
 10
498.2483085672745
 20
2205.123316955564
 10
498.2483085672745
 20
2025.623645019531
 10
475.2483558695214
 20
2025.623645019531
 10
475.2483558695214
 20
2015.123674011232
 10
480.2483413736716
 20
2015.123674011232
 10
480.2483413736725
 20
1915.623867034912
 10
475.2483558695214
 20
1915.623867034912
 10
475.2483558695214
 20
1905.123871803286
 10
498.2483085672754
 20
1905.123871803286
 10
498.2483085672754
 20
1725.624248313904
 10
475.2483558695214
 20
1725.624248313904
 10
475.2483558695214
 20
1715.124277305604
 10
480.2483413736725
 20
1715.124277305604
 10
480.2483413736734
 20
1615.6244733572
 10
475.2483558695233
 20
1615.6244733572
 10
475.2483558695224
 20
1605.124493265152
 10
498.2483085672764
 20
1605.124493265152
 10
498.2483085672754
 20
1425.624851608277
 10
475.2483558695214
 20
1425.624851608277
 10
475.2483558695214
 20
1415.124880599976
 10
480.2483413736725
 20
1415.124880599976
 10
480.2483413736734
 20
1315.625076651575
 10
475.2483558695233
 20
1315.625076651575
 10
475.2483558695224
 20
1305.125096559525
 10
498.2483085672764
 20
1305.125096559525
 10
498.2483085672754
 20
1125.62545490265
 10
475.2483558695214
 20
1125.62545490265
 10
475.2483558695214
 20
1115.125483894349
 10
480.2483413736725
 20
1115.125483894349
 10
480.2483413736725
 20
1015.625676918031
 10
475.2483558695214
 20
1015.625676918031
 10
475.2483558695214
 20
1005.125681686402
 10
498.2483085672754
 20
1005.125681686402
 10
498.2483085672754
 20
825.6260581970218
 10
475.2483558695214
 20
825.6260581970218
 10
475.2483558695214
 20
815.1260871887216
 10
480.2483413736725
 20
815.1260871887216
 10
480.2483413736716
 20
715.6262802124029
 10
475.2483558695205
 20
715.6262802124029
 10
475.2483558695214
 20
705.1263092040999
 10
498.2483085672745
 20
705.1263092041017
 10
498.2483085672745
 20
525.6266372680657
 10
475.2483558695214
 20
525.6266372680666
 10
475.2483558695214
 20
515.1266662597673
 10
480.2483413736725
 20
515.1266662597673
 10
480.2483413736725
 20
415.6268592834467
 10
475.2483558695214
 20
415.6268592834467
 10
475.2483558695214
 20
405.1268882751483
 10
498.2483085672754
 20
405.1268882751483
 10
498.2483085672754
 20
225.6272163391136
 10
475.2483558695214
 20
225.6272163391118
 10
475.2483558695155
 20
215.1271873474138
 10
480.2483413736757
 20
215.1271873474107
  0
MTEXT
  5
6C
330
8A
100
AcDbEntity
  8
1_ANYTOOL_1MMDEEP_INSIDE
100
AcDbMText
 10
740.5297327203548
 20
633.9829159325192
 30
0.0
 40
40.0
 41
351.0843373493976
 46
0.0
 71
     1
 72
     1
  1
\fArial;FRA-A/S3/IN
  7
textstyle15
 11
4.058035228607931E-15
 21
1.0
 31
0.0
 73
     1
 44
1.0
  0
VIEWPORT
  5
14A
330
86
100
AcDbEntity
 67
     1
  8
0
100
AcDbViewport
 10
128.5
 20
97.5
 30
0.0
 40
314.226
 41
222.18
 68
     1
 69
     1
 12
128.5
 22
97.5
 13
0.0
 23
0.0
 14
10.0
 24
10.0
 15
10.0
 25
10.0
 16
0.0
 26
0.0
 36
1.0
 17
0.0
 27
0.0
 37
0.0
 42
50.0
 43
0.0
 44
0.0
 45
222.18
 50
0.0
 51
0.0
 72
   100
 90
   557152
  1

281
     0
 71
     1
 74
     0
110
0.0
120
0.0
130
0.0
111
1.0
121
0.0
131
0.0
112
0.0
122
1.0
132
0.0
 79
     0
146
0.0
170
     0
 61
     5
348
9A
292
     1
282
     1
141
0.0
142
0.0
 63
   256
361
14B
  0
ENDSEC
  0
SECTION
  2
OBJECTS
  0
DICTIONARY
  5
78
330
0
100
AcDbDictionary
281
     1
  3
ACAD_DETAILVIEWSTYLE
350
158
  3
ACAD_GROUP
350
79
  3
ACAD_LAYOUT
350
85
  3
ACAD_MATERIAL
350
AE
  3
ACAD_MLEADERSTYLE
350
D6
  3
ACAD_MLINESTYLE
350
82
  3
ACAD_PLOTSETTINGS
350
84
  3
ACAD_PLOTSTYLENAME
350
7A
  3
ACAD_SCALELIST
350
B2
  3
ACAD_SECTIONVIEWSTYLE
350
159
  3
ACAD_TABLESTYLE
350
D4
  3
ACAD_VISUALSTYLE
350
95
  3
ACDB_RECOMPOSE_DATA
350
155
  3
AcDbVariableDictionary
350
151
  3
QCAD_OBJECTS
350
DA
  0
SUN
  5
D8
330
94
100
AcDbSun
 90
        1
290
     0
 63
     7
421
 16777215
 40
1.0
291
     1
 91
  2455826
 92
 54000000
292
     0
 70
     2
 71
   256
280
     1
  0
SUN
  5
14B
330
14A
100
AcDbSun
 90
        1
290
     0
 63
     7
421
 16777215
 40
1.0
291
     1
 91
  2455826
 92
 54000000
292
     0
 70
     2
 71
   256
280
     1
  0
DICTIONARY
  5
158
102
{ACAD_REACTORS
330
78
102
}
330
78
100
AcDbDictionary
281
     1
  0
DICTIONARY
  5
79
102
{ACAD_REACTORS
330
78
102
}
330
78
100
AcDbDictionary
281
     1
  0
DICTIONARY
  5
85
102
{ACAD_REACTORS
330
78
102
}
330
78
100
AcDbDictionary
281
     1
  3
Layout1
350
89
  3
Model
350
8D
  0
DICTIONARY
  5
AE
102
{ACAD_REACTORS
330
78
102
}
330
78
100
AcDbDictionary
281
     1
  3
ByBlock
350
B0
  3
ByLayer
350
AF
  3
Global
350
B1
  0
DICTIONARY
  5
D6
102
{ACAD_REACTORS
330
78
102
}
330
78
100
AcDbDictionary
281
     1
  3
Standard
350
D7
  0
DICTIONARY
  5
82
102
{ACAD_REACTORS
330
78
102
}
330
78
100
AcDbDictionary
281
     1
  3
Standard
350
83
  0
DICTIONARY
  5
84
102
{ACAD_REACTORS
330
78
102
}
330
78
100
AcDbDictionary
281
     1
  0
ACDBDICTIONARYWDFLT
  5
7A
102
{ACAD_REACTORS
330
78
102
}
330
78
100
AcDbDictionary
281
     1
  3
Normal
350
7B
100
AcDbDictionaryWithDefault
340
7B
  0
DICTIONARY
  5
B2
102
{ACAD_REACTORS
330
78
102
}
330
78
100
AcDbDictionary
281
     1
  3
A0
350
B3
  3
A1
350
B4
  3
A2
350
B5
  3
A3
350
B6
  3
A4
350
B7
  3
A5
350
B8
  3
A6
350
B9
  3
A7
350
BA
  3
A8
350
BB
  3
A9
350
BC
  3
B0
350
BD
  3
B1
350
BE
  3
B2
350
BF
  3
B3
350
C0
  3
B4
350
C1
  3
B5
350
C2
  3
B6
350
C3
  3
B7
350
C4
  3
B8
350
C5
  3
B9
350
C6
  3
C0
350
C7
  3
C1
350
C8
  3
C2
350
C9
  3
C3
350
CA
  3
C4
350
CB
  3
C5
350
CC
  3
C6
350
CD
  3
C7
350
CE
  3
C8
350
CF
  3
C9
350
D0
  3
D0
350
D1
  3
D1
350
D2
  3
D2
350
D3
  0
DICTIONARY
  5
159
102
{ACAD_REACTORS
330
78
102
}
330
78
100
AcDbDictionary
281
     1
  0
DICTIONARY
  5
D4
102
{ACAD_REACTORS
330
78
102
}
330
78
100
AcDbDictionary
281
     1
  3
Standard
350
D5
  0
DICTIONARY
  5
95
102
{ACAD_REACTORS
330
78
102
}
330
78
100
AcDbDictionary
281
     1
  3
2dWireframe
350
9A
  3
Basic
350
9D
  3
Brighten
350
A1
  3
ColorChange
350
A5
  3
Conceptual
350
9F
  3
Dim
350
A0
  3
EdgeColorOff
350
A8
  3
Facepattern
350
A4
  3
Flat
350
96
  3
FlatWithEdges
350
97
  3
Gouraud
350
98
  3
GouraudWithEdges
350
99
  3
Hidden
350
9C
  3
JitterOff
350
A6
  3
Linepattern
350
A3
  3
OverhangOff
350
A7
  3
Realistic
350
9E
  3
Shaded
350
AD
  3
Shaded with edges
350
AC
  3
Shades of Gray
350
A9
  3
Sketchy
350
AA
  3
Thicken
350
A2
  3
Wireframe
350
9B
  3
X-Ray
350
AB
  0
XRECORD
  5
155
102
{ACAD_REACTORS
330
78
102
}
330
78
100
AcDbXrecord
280
     1
 90
        1
330
D5
  0
DICTIONARY
  5
151
102
{ACAD_REACTORS
330
78
102
}
330
78
100
AcDbDictionary
281
     1
  3
CANNOSCALE
350
152
  3
CMLEADERSTYLE
350
157
  3
CTABLESTYLE
350
156
  0
DICTIONARY
  5
DA
102
{ACAD_REACTORS
330
78
102
}
330
78
100
AcDbDictionary
281
     1
  3
ColorSettings/BackgroundColor
350
DC
  3
ColorSettings/ColorMode
350
DD
  3
Grid/DisplayGrid00
350
DE
  3
Grid/DisplayGrid01
350
DF
  3
Grid/DisplayGrid02
350
E0
  3
Grid/DisplayGrid03
350
E1
  3
Grid/GridSpacingX00
350
E2
  3
Grid/GridSpacingX01
350
E3
  3
Grid/GridSpacingX02
350
E4
  3
Grid/GridSpacingX03
350
E5
  3
Grid/GridSpacingY00
350
E6
  3
Grid/GridSpacingY01
350
E7
  3
Grid/GridSpacingY02
350
E8
  3
Grid/GridSpacingY03
350
E9
  3
Grid/IsometricGrid00
350
EA
  3
Grid/IsometricGrid01
350
EB
  3
Grid/IsometricGrid02
350
EC
  3
Grid/IsometricGrid03
350
ED
  3
Grid/IsometricProjection00
350
EE
  3
Grid/IsometricProjection01
350
EF
  3
Grid/IsometricProjection02
350
F0
  3
Grid/IsometricProjection03
350
F1
  3
Grid/MetaGridSpacingX00
350
F2
  3
Grid/MetaGridSpacingX01
350
F3
  3
Grid/MetaGridSpacingX02
350
F4
  3
Grid/MetaGridSpacingX03
350
F5
  3
Grid/MetaGridSpacingY00
350
F6
  3
Grid/MetaGridSpacingY01
350
F7
  3
Grid/MetaGridSpacingY02
350
F8
  3
Grid/MetaGridSpacingY03
350
F9
  3
MultiPageSettings/Columns
350
FA
  3
MultiPageSettings/GlueMarginsBottom
350
FB
  3
MultiPageSettings/GlueMarginsLeft
350
FC
  3
MultiPageSettings/GlueMarginsRight
350
FD
  3
MultiPageSettings/GlueMarginsTop
350
FE
  3
MultiPageSettings/PrintCropMarks
350
FF
  3
MultiPageSettings/Rows
350
100
  3
PageSettings/OffsetX
350
101
  3
PageSettings/OffsetY
350
102
  3
PageSettings/PageOrientation
350
103
  3
PageSettings/PaperHeight
350
104
  3
PageSettings/PaperWidth
350
105
  3
PageSettings/Scale
350
106
  3
PageSettings/ShowPaperBorders
350
107
  3
QCADVersion
350
DB
  3
UnitSettings/PaperUnit
350
108
  3
ViewportCenter
350
109
  3
ViewportHeight
350
10A
  3
ViewportWidth
350
10B
  0
LAYOUT
  5
89
102
{ACAD_REACTORS
330
85
102
}
330
85
100
AcDbPlotSettings
  1

  2
none_device
  4
ISO_A4_(210.00_x_297.00_MM)
  6

 40
7.5
 41
20.0
 42
7.5
 43
20.0
 44
210.0
 45
297.0
 46
0.0
 47
0.0
 48
0.0
 49
0.0
140
0.0
141
0.0
142
1.0
143
1.0
 70
   688
 72
     1
 73
     1
 74
     5
  7

 75
    16
 76
     0
 77
     2
 78
   300
147
1.0
148
0.0
149
0.0
100
AcDbLayout
  1
Layout1
 70
     1
 71
     0
 10
-20.0
 20
-7.5
 11
277.0
 21
202.5
 12
0.0
 22
0.0
 32
0.0
 14
0.0
 24
0.0
 34
0.0
 15
0.0
 25
0.0
 35
0.0
146
0.0
 13
0.0
 23
0.0
 33
0.0
 16
1.0
 26
0.0
 36
0.0
 17
0.0
 27
1.0
 37
0.0
 76
     0
330
86
331
14A
  0
LAYOUT
  5
8D
102
{ACAD_REACTORS
330
85
102
}
330
85
100
AcDbPlotSettings
  1

  2
none_device
  4
Letter_(8.50_x_11.00_Inches)
  6

 40
6.35
 41
6.35
 42
6.35000508
 43
6.35000508
 44
215.9
 45
279.4
 46
0.0
 47
0.0
 48
0.0
 49
0.0
140
0.0
141
0.0
142
1.0
143
1.0
 70
  1712
 72
     0
 73
     0
 74
     0
  7

 75
     0
 76
     0
 77
     2
 78
   300
147
1.0
148
0.0
149
0.0
100
AcDbLayout
  1
Model
 70
     1
 71
     0
 10
0.0
 20
0.0
 11
12.0
 21
9.0
 12
0.0
 22
0.0
 32
0.0
 14
1.000000000000000E+20
 24
1.000000000000000E+20
 34
1.000000000000000E+20
 15
-1.000000000000000E+20
 25
-1.000000000000000E+20
 35
-1.000000000000000E+20
146
0.0
 13
0.0
 23
0.0
 33
0.0
 16
1.0
 26
0.0
 36
0.0
 17
0.0
 27
1.0
 37
0.0
 76
     0
330
8A
331
94
  0
MATERIAL
  5
B0
102
{ACAD_REACTORS
330
AE
102
}
330
AE
100
AcDbMaterial
  1
ByBlock
 72
     1
 94
      127
  0
MATERIAL
  5
AF
102
{ACAD_REACTORS
330
AE
102
}
330
AE
100
AcDbMaterial
  1
ByLayer
 72
     1
 94
      127
  0
MATERIAL
  5
B1
102
{ACAD_REACTORS
330
AE
102
}
330
AE
100
AcDbMaterial
  1
Global
 72
     1
 94
      127
  0
MLEADERSTYLE
  5
D7
102
{ACAD_REACTORS
330
D6
102
}
330
D6
100
AcDbMLeaderStyle
179
     2
170
     2
171
     1
172
     0
 90
        2
 40
0.0
 41
0.0
173
     1
 91
-1056964608
340
7F
 92
       -2
290
     1
 42
0.09
291
     1
 43
0.36
  3
Standard
341
0
 44
0.18
300

342
7D
174
     1
178
     6
175
     1
176
     0
 93
-1056964608
 45
0.18
292
     0
297
     0
 46
0.18
343
0
 94
-1056964608
 47
1.0
 49
1.0
140
1.0
293
     1
141
0.0
294
     1
177
     0
142
1.0
295
     0
296
     0
143
0.125
271
     0
272
     9
273
     9
298
     0
  0
MLINESTYLE
  5
83
102
{ACAD_REACTORS
330
82
102
}
330
82
100
AcDbMlineStyle
  2
Standard
 70
     0
  3

 62
   256
 51
90.0
 52
90.0
 71
     2
 49
0.5
 62
   256
  6
BYLAYER
 49
-0.5
 62
   256
  6
BYLAYER
  0
ACDBPLACEHOLDER
  5
7B
102
{ACAD_REACTORS
330
7A
102
}
330
7A
  0
SCALE
  5
B3
102
{ACAD_REACTORS
330
B2
102
}
330
B2
100
AcDbScale
 70
     0
300
1:1
140
1.0
141
1.0
290
     1
  0
SCALE
  5
B4
102
{ACAD_REACTORS
330
B2
102
}
330
B2
100
AcDbScale
 70
     0
300
1:2
140
1.0
141
2.0
290
     0
  0
SCALE
  5
B5
102
{ACAD_REACTORS
330
B2
102
}
330
B2
100
AcDbScale
 70
     0
300
1:4
140
1.0
141
4.0
290
     0
  0
SCALE
  5
B6
102
{ACAD_REACTORS
330
B2
102
}
330
B2
100
AcDbScale
 70
     0
300
1:5
140
1.0
141
5.0
290
     0
  0
SCALE
  5
B7
102
{ACAD_REACTORS
330
B2
102
}
330
B2
100
AcDbScale
 70
     0
300
1:8
140
1.0
141
8.0
290
     0
  0
SCALE
  5
B8
102
{ACAD_REACTORS
330
B2
102
}
330
B2
100
AcDbScale
 70
     0
300
1:10
140
1.0
141
10.0
290
     0
  0
SCALE
  5
B9
102
{ACAD_REACTORS
330
B2
102
}
330
B2
100
AcDbScale
 70
     0
300
1:16
140
1.0
141
16.0
290
     0
  0
SCALE
  5
BA
102
{ACAD_REACTORS
330
B2
102
}
330
B2
100
AcDbScale
 70
     0
300
1:20
140
1.0
141
20.0
290
     0
  0
SCALE
  5
BB
102
{ACAD_REACTORS
330
B2
102
}
330
B2
100
AcDbScale
 70
     0
300
1:30
140
1.0
141
30.0
290
     0
  0
SCALE
  5
BC
102
{ACAD_REACTORS
330
B2
102
}
330
B2
100
AcDbScale
 70
     0
300
1:40
140
1.0
141
40.0
290
     0
  0
SCALE
  5
BD
102
{ACAD_REACTORS
330
B2
102
}
330
B2
100
AcDbScale
 70
     0
300
1:50
140
1.0
141
50.0
290
     0
  0
SCALE
  5
BE
102
{ACAD_REACTORS
330
B2
102
}
330
B2
100
AcDbScale
 70
     0
300
1:100
140
1.0
141
100.0
290
     0
  0
SCALE
  5
BF
102
{ACAD_REACTORS
330
B2
102
}
330
B2
100
AcDbScale
 70
     0
300
2:1
140
2.0
141
1.0
290
     0
  0
SCALE
  5
C0
102
{ACAD_REACTORS
330
B2
102
}
330
B2
100
AcDbScale
 70
     0
300
4:1
140
4.0
141
1.0
290
     0
  0
SCALE
  5
C1
102
{ACAD_REACTORS
330
B2
102
}
330
B2
100
AcDbScale
 70
     0
300
8:1
140
8.0
141
1.0
290
     0
  0
SCALE
  5
C2
102
{ACAD_REACTORS
330
B2
102
}
330
B2
100
AcDbScale
 70
     0
300
10:1
140
10.0
141
1.0
290
     0
  0
SCALE
  5
C3
102
{ACAD_REACTORS
330
B2
102
}
330
B2
100
AcDbScale
 70
     0
300
100:1
140
100.0
141
1.0
290
     0
  0
SCALE
  5
C4
102
{ACAD_REACTORS
330
B2
102
}
330
B2
100
AcDbScale
 70
     0
300
1/128" = 1'-0"
140
0.0078125
141
12.0
290
     0
  0
SCALE
  5
C5
102
{ACAD_REACTORS
330
B2
102
}
330
B2
100
AcDbScale
 70
     0
300
1/64" = 1'-0"
140
0.015625
141
12.0
290
     0
  0
SCALE
  5
C6
102
{ACAD_REACTORS
330
B2
102
}
330
B2
100
AcDbScale
 70
     0
300
1/32" = 1'-0"
140
0.03125
141
12.0
290
     0
  0
SCALE
  5
C7
102
{ACAD_REACTORS
330
B2
102
}
330
B2
100
AcDbScale
 70
     0
300
1/16" = 1'-0"
140
0.0625
141
12.0
290
     0
  0
SCALE
  5
C8
102
{ACAD_REACTORS
330
B2
102
}
330
B2
100
AcDbScale
 70
     0
300
3/32" = 1'-0"
140
0.09375
141
12.0
290
     0
  0
SCALE
  5
C9
102
{ACAD_REACTORS
330
B2
102
}
330
B2
100
AcDbScale
 70
     0
300
1/8" = 1'-0"
140
0.125
141
12.0
290
     0
  0
SCALE
  5
CA
102
{ACAD_REACTORS
330
B2
102
}
330
B2
100
AcDbScale
 70
     0
300
3/16" = 1'-0"
140
0.1875
141
12.0
290
     0
  0
SCALE
  5
CB
102
{ACAD_REACTORS
330
B2
102
}
330
B2
100
AcDbScale
 70
     0
300
1/4" = 1'-0"
140
0.25
141
12.0
290
     0
  0
SCALE
  5
CC
102
{ACAD_REACTORS
330
B2
102
}
330
B2
100
AcDbScale
 70
     0
300
3/8" = 1'-0"
140
0.375
141
12.0
290
     0
  0
SCALE
  5
CD
102
{ACAD_REACTORS
330
B2
102
}
330
B2
100
AcDbScale
 70
     0
300
1/2" = 1'-0"
140
0.5
141
12.0
290
     0
  0
SCALE
  5
CE
102
{ACAD_REACTORS
330
B2
102
}
330
B2
100
AcDbScale
 70
     0
300
3/4" = 1'-0"
140
0.75
141
12.0
290
     0
  0
SCALE
  5
CF
102
{ACAD_REACTORS
330
B2
102
}
330
B2
100
AcDbScale
 70
     0
300
1" = 1'-0"
140
1.0
141
12.0
290
     0
  0
SCALE
  5
D0
102
{ACAD_REACTORS
330
B2
102
}
330
B2
100
AcDbScale
 70
     0
300
1-1/2" = 1'-0"
140
1.5
141
12.0
290
     0
  0
SCALE
  5
D1
102
{ACAD_REACTORS
330
B2
102
}
330
B2
100
AcDbScale
 70
     0
300
3" = 1'-0"
140
3.0
141
12.0
290
     0
  0
SCALE
  5
D2
102
{ACAD_REACTORS
330
B2
102
}
330
B2
100
AcDbScale
 70
     0
300
6" = 1'-0"
140
6.0
141
12.0
290
     0
  0
SCALE
  5
D3
102
{ACAD_REACTORS
330
B2
102
}
330
B2
100
AcDbScale
 70
     0
300
1'-0" = 1'-0"
140
12.0
141
12.0
290
     0
  0
TABLESTYLE
  5
D5
102
{ACAD_REACTORS
330
D4
102
}
102
{ACAD_XDICTIONARY
360
153
102
}
330
D4
100
AcDbTableStyle
  3
Standard
 70
     0
 71
     0
 40
0.06
 41
0.06
280
     0
281
     0
  7
Standard
140
0.18
170
     2
 62
     0
 63
   257
283
     0
 90
        4
 91
        0
  1

274
    -2
284
     1
 64
     0
275
    -2
285
     1
 65
     0
276
    -2
286
     1
 66
     0
277
    -2
287
     1
 67
     0
278
    -2
288
     1
 68
     0
279
    -2
289
     1
 69
     0
  7
Standard
140
0.25
170
     5
 62
     0
 63
   257
283
     0
 90
        4
 91
        0
  1

274
    -2
284
     1
 64
     0
275
    -2
285
     1
 65
     0
276
    -2
286
     1
 66
     0
277
    -2
287
     1
 67
     0
278
    -2
288
     1
 68
     0
279
    -2
289
     1
 69
     0
  7
Standard
140
0.18
170
     5
 62
     0
 63
   257
283
     0
 90
        4
 91
        0
  1

274
    -2
284
     1
 64
     0
275
    -2
285
     1
 65
     0
276
    -2
286
     1
 66
     0
277
    -2
287
     1
 67
     0
278
    -2
288
     1
 68
     0
279
    -2
289
     1
 69
     0
  0
VISUALSTYLE
  5
9A
102
{ACAD_REACTORS
330
95
102
}
330
95
100
AcDbVisualStyle
  2
2dWireframe
 70
     4
177
     3
291
     0
 70
    58
 90
        0
176
     1
 90
        2
176
     1
 90
        0
176
     1
 90
        0
176
     1
 40
0.6
176
     1
 40
30.0
176
     1
 62
     7
420
 16777215
176
     1
 90
        1
176
     1
 90
        4
176
     1
 62
     7
176
     1
 62
   257
176
     1
 90
        1
176
     1
 90
        1
176
     1
 40
1.0
176
     1
 90
        0
176
     1
 62
   257
176
     1
 40
1.0
176
     1
 90
        1
176
     1
 90
        6
176
     1
 90
        2
176
     1
 62
     7
176
     1
 90
        5
176
     1
 90
        0
176
     1
 90
        0
176
     1
290
     0
176
     1
 90
        1
176
     1
 40
0.0
176
     1
 90
        0
176
     1
290
     1
176
     1
290
     1
176
     1
290
     0
176
     1
290
     0
176
     1
290
     0
176
     1
290
     0
176
     1
290
     0
176
     1
290
     0
176
     1
290
     0
176
     1
 90
       50
176
     1
 40
0.0
176
     1
 40
1.0
176
     1
 90
        0
176
     1
 62
    18
420
        0
176
     1
 90
       50
176
     1
 90
        3
176
     1
 62
     5
420
      255
176
     1
290
     0
176
     1
 90
       50
176
     1
 90
       50
176
     1
 90
       50
176
     1
290
     0
176
     1
 90
       50
176
     1
 62
   256
176
     0
 40
1.0
176
     0
 90
        2
176
     1
  1
strokes_ogs.tif
176
     1
290
     0
176
     1
 40
1.0
176
     1
 40
1.0
176
     1
  0
VISUALSTYLE
  5
9D
102
{ACAD_REACTORS
330
95
102
}
330
95
100
AcDbVisualStyle
  2
Basic
 70
     7
177
     3
291
     1
 70
    58
 90
        1
176
     1
 90
        0
176
     1
 90
        1
176
     1
 90
        0
176
     1
 40
0.6
176
     1
 40
30.0
176
     1
 62
     7
420
 16777215
176
     1
 90
        0
176
     1
 90
        4
176
     1
 62
     7
176
     1
 62
   257
176
     1
 90
        1
176
     1
 90
        1
176
     1
 40
1.0
176
     1
 90
        8
176
     1
 62
     7
176
     1
 40
1.0
176
     1
 90
        1
176
     1
 90
        6
176
     1
 90
        2
176
     1
 62
     7
176
     1
 90
        5
176
     1
 90
        0
176
     1
 90
        0
176
     1
290
     0
176
     1
 90
        1
176
     1
 40
0.0
176
     1
 90
        0
176
     1
290
     0
176
     1
290
     1
176
     1
290
     1
176
     1
290
     0
176
     1
290
     0
176
     1
290
     0
176
     1
290
     0
176
     1
290
     0
176
     1
290
     0
176
     1
 90
       50
176
     1
 40
0.0
176
     1
 40
1.0
176
     1
 90
        0
176
     1
 62
    18
420
        0
176
     1
 90
       50
176
     1
 90
        3
176
     1
 62
     5
420
      255
176
     1
290
     0
176
     1
 90
       50
176
     1
 90
       50
176
     1
 90
       50
176
     1
290
     0
176
     1
 90
       50
176
     1
 62
   256
176
     0
 40
1.0
176
     0
 90
        2
176
     1
  1
strokes_ogs.tif
176
     1
290
     0
176
     1
 40
1.0
176
     1
 40
1.0
176
     1
  0
VISUALSTYLE
  5
A1
102
{ACAD_REACTORS
330
95
102
}
330
95
100
AcDbVisualStyle
  2
Brighten
 70
    12
177
     3
291
     1
 70
    58
 90
        2
176
     1
 90
        2
176
     1
 90
        0
176
     1
 90
        0
176
     1
 40
0.6
176
     1
 40
30.0
176
     1
 62
     7
420
 16777215
176
     1
 90
        1
176
     1
 90
        4
176
     1
 62
     7
176
     1
 62
   257
176
     1
 90
        1
176
     1
 90
        1
176
     1
 40
1.0
176
     1
 90
        8
176
     1
 62
     7
176
     1
 40
1.0
176
     1
 90
        1
176
     1
 90
        6
176
     1
 90
        2
176
     1
 62
     7
176
     1
 90
        5
176
     1
 90
        0
176
     1
 90
        0
176
     1
290
     0
176
     1
 90
        1
176
     1
 40
50.0
176
     1
 90
        0
176
     1
290
     0
176
     1
290
     1
176
     1
290
     1
176
     1
290
     0
176
     1
290
     0
176
     1
290
     0
176
     1
290
     0
176
     1
290
     0
176
     1
290
     0
176
     1
 90
       50
176
     1
 40
0.0
176
     1
 40
1.0
176
     1
 90
        0
176
     1
 62
    18
420
        0
176
     1
 90
       50
176
     1
 90
        3
176
     1
 62
     5
420
      255
176
     1
290
     0
176
     1
 90
       50
176
     1
 90
       50
176
     1
 90
       50
176
     1
290
     0
176
     1
 90
       50
176
     1
 62
   256
176
     0
 40
1.0
176
     0
 90
        2
176
     1
  1
strokes_ogs.tif
176
     1
290
     0
176
     1
 40
1.0
176
     1
 40
1.0
176
     1
  0
VISUALSTYLE
  5
A5
102
{ACAD_REACTORS
330
95
102
}
330
95
100
AcDbVisualStyle
  2
ColorChange
 70
    16
177
     3
291
     1
 70
    58
 90
        2
176
     1
 90
        2
176
     1
 90
        3
176
     1
 90
        0
176
     1
 40
0.6
176
     1
 40
30.0
176
     1
 62
     8
420
  8421504
176
     1
 90
        1
176
     1
 90
        4
176
     1
 62
     7
176
     1
 62
   257
176
     1
 90
        1
176
     1
 90
        1
176
     1
 40
1.0
176
     1
 90
        8
176
     1
 62
     8
420
  8421504
176
     1
 40
1.0
176
     1
 90
        1
176
     1
 90
        6
176
     1
 90
        2
176
     1
 62
     7
176
     1
 90
        5
176
     1
 90
        0
176
     1
 90
        0
176
     1
290
     0
176
     1
 90
        1
176
     1
 40
0.0
176
     1
 90
        0
176
     1
290
     0
176
     1
290
     1
176
     1
290
     1
176
     1
290
     0
176
     1
290
     0
176
     1
290
     0
176
     1
290
     0
176
     1
290
     0
176
     1
290
     0
176
     1
 90
       50
176
     1
 40
0.0
176
     1
 40
1.0
176
     1
 90
        0
176
     1
 62
    18
420
        0
176
     1
 90
       50
176
     1
 90
        3
176
     1
 62
     5
420
      255
176
     1
290
     0
176
     1
 90
       50
176
     1
 90
       50
176
     1
 90
       50
176
     1
290
     0
176
     1
 90
       50
176
     1
 62
   256
176
     0
 40
1.0
176
     0
 90
        2
176
     1
  1
strokes_ogs.tif
176
     1
290
     0
176
     1
 40
1.0
176
     1
 40
1.0
176
     1
  0
VISUALSTYLE
  5
9F
102
{ACAD_REACTORS
330
95
102
}
330
95
100
AcDbVisualStyle
  2
Conceptual
 70
     9
177
     3
291
     0
 70
    58
 90
        3
176
     1
 90
        2
176
     1
 90
        0
176
     1
 90
        0
176
     1
 40
0.6
176
     1
 40
30.0
176
     1
 62
     7
420
 16777215
176
     1
 90
        2
176
     1
 90
        2
176
     1
 62
     7
176
     1
 62
   257
176
     1
 90
        1
176
     1
 90
        1
176
     1
 40
179.0
176
     1
 90
        8
176
     1
 62
     7
176
     1
 40
1.0
176
     1
 90
        1
176
     1
 90
        6
176
     1
 90
        2
176
     1
 62
     7
176
     1
 90
        3
176
     1
 90
        0
176
     1
 90
        0
176
     1
290
     0
176
     1
 90
        1
176
     1
 40
0.0
176
     1
 90
        0
176
     1
290
     0
176
     1
290
     1
176
     1
290
     1
176
     1
290
     0
176
     1
290
     0
176
     1
290
     0
176
     1
290
     0
176
     1
290
     0
176
     1
290
     0
176
     1
 90
       50
176
     1
 40
0.0
176
     1
 40
1.0
176
     1
 90
        0
176
     1
 62
    18
420
        0
176
     1
 90
       50
176
     1
 90
        3
176
     1
 62
     5
420
      255
176
     1
290
     0
176
     1
 90
       50
176
     1
 90
       50
176
     1
 90
       50
176
     1
290
     0
176
     1
 90
       50
176
     1
 62
   256
176
     0
 40
1.0
176
     0
 90
        2
176
     1
  1
strokes_ogs.tif
176
     1
290
     0
176
     1
 40
1.0
176
     1
 40
1.0
176
     1
  0
VISUALSTYLE
  5
A0
102
{ACAD_REACTORS
330
95
102
}
330
95
100
AcDbVisualStyle
  2
Dim
 70
    11
177
     3
291
     1
 70
    58
 90
        2
176
     1
 90
        2
176
     1
 90
        0
176
     1
 90
        0
176
     1
 40
0.6
176
     1
 40
30.0
176
     1
 62
     7
420
 16777215
176
     1
 90
        1
176
     1
 90
        4
176
     1
 62
     7
176
     1
 62
   257
176
     1
 90
        1
176
     1
 90
        1
176
     1
 40
1.0
176
     1
 90
        8
176
     1
 62
     7
176
     1
 40
1.0
176
     1
 90
        1
176
     1
 90
        6
176
     1
 90
        2
176
     1
 62
     7
176
     1
 90
        5
176
     1
 90
        0
176
     1
 90
        0
176
     1
290
     0
176
     1
 90
        1
176
     1
 40
-50.0
176
     1
 90
        0
176
     1
290
     0
176
     1
290
     1
176
     1
290
     1
176
     1
290
     0
176
     1
290
     0
176
     1
290
     0
176
     1
290
     0
176
     1
290
     0
176
     1
290
     0
176
     1
 90
       50
176
     1
 40
0.0
176
     1
 40
1.0
176
     1
 90
        0
176
     1
 62
    18
420
        0
176
     1
 90
       50
176
     1
 90
        3
176
     1
 62
     5
420
      255
176
     1
290
     0
176
     1
 90
       50
176
     1
 90
       50
176
     1
 90
       50
176
     1
290
     0
176
     1
 90
       50
176
     1
 62
   256
176
     0
 40
1.0
176
     0
 90
        2
176
     1
  1
strokes_ogs.tif
176
     1
290
     0
176
     1
 40
1.0
176
     1
 40
1.0
176
     1
  0
VISUALSTYLE
  5
A8
102
{ACAD_REACTORS
330
95
102
}
330
95
100
AcDbVisualStyle
  2
EdgeColorOff
 70
    22
177
     3
291
     1
 70
    58
 90
        2
176
     0
 90
        2
176
     0
 90
        0
176
     0
 90
        0
176
     0
 40
0.6
176
     0
 40
30.0
176
     0
 62
     7
420
 16777215
176
     0
 90
        1
176
     0
 90
        4
176
     0
 62
     7
176
     0
 62
   257
176
     0
 90
        1
176
     0
 90
        1
176
     0
 40
1.0
176
     0
 90
        8
176
     2
 62
     7
176
     0
 40
1.0
176
     0
 90
        1
176
     0
 90
        6
176
     0
 90
        2
176
     0
 62
     7
176
     0
 90
        5
176
     0
 90
        0
176
     0
 90
        0
176
     0
290
     0
176
     0
 90
        1
176
     0
 40
0.0
176
     0
 90
        0
176
     0
290
     0
176
     0
290
     1
176
     0
290
     1
176
     0
290
     0
176
     0
290
     0
176
     0
290
     0
176
     0
290
     0
176
     0
290
     0
176
     0
290
     0
176
     0
 90
       50
176
     0
 40
0.0
176
     0
 40
1.0
176
     0
 90
        0
176
     0
 62
    18
420
        0
176
     0
 90
       50
176
     0
 90
        3
176
     0
 62
     5
420
      255
176
     0
290
     0
176
     0
 90
       50
176
     0
 90
       50
176
     0
 90
       50
176
     0
290
     0
176
     0
 90
       50
176
     0
 62
   256
176
     0
 40
1.0
176
     0
 90
        2
176
     0
  1
strokes_ogs.tif
176
     0
290
     0
176
     0
 40
1.0
176
     0
 40
1.0
176
     0
  0
VISUALSTYLE
  5
A4
102
{ACAD_REACTORS
330
95
102
}
330
95
100
AcDbVisualStyle
  2
Facepattern
 70
    15
177
     3
291
     1
 70
    58
 90
        2
176
     1
 90
        2
176
     1
 90
        0
176
     1
 90
        0
176
     1
 40
0.6
176
     1
 40
30.0
176
     1
 62
     7
420
 16777215
176
     1
 90
        1
176
     1
 90
        4
176
     1
 62
     7
176
     1
 62
   257
176
     1
 90
        1
176
     1
 90
        1
176
     1
 40
1.0
176
     1
 90
        8
176
     1
 62
     7
176
     1
 40
1.0
176
     1
 90
        1
176
     1
 90
        6
176
     1
 90
        2
176
     1
 62
     7
176
     1
 90
        5
176
     1
 90
        0
176
     1
 90
        0
176
     1
290
     0
176
     1
 90
        1
176
     1
 40
0.0
176
     1
 90
        0
176
     1
290
     0
176
     1
290
     1
176
     1
290
     1
176
     1
290
     0
176
     1
290
     0
176
     1
290
     0
176
     1
290
     0
176
     1
290
     0
176
     1
290
     0
176
     1
 90
       50
176
     1
 40
0.0
176
     1
 40
1.0
176
     1
 90
        0
176
     1
 62
    18
420
        0
176
     1
 90
       50
176
     1
 90
        3
176
     1
 62
     5
420
      255
176
     1
290
     0
176
     1
 90
       50
176
     1
 90
       50
176
     1
 90
       50
176
     1
290
     0
176
     1
 90
       50
176
     1
 62
   256
176
     0
 40
1.0
176
     0
 90
        2
176
     1
  1
strokes_ogs.tif
176
     1
290
     0
176
     1
 40
1.0
176
     1
 40
1.0
176
     1
  0
VISUALSTYLE
  5
96
102
{ACAD_REACTORS
330
95
102
}
330
95
100
AcDbVisualStyle
  2
Flat
 70
     0
177
     3
291
     1
 70
    58
 90
        2
176
     1
 90
        1
176
     1
 90
        1
176
     1
 90
        2
176
     1
 40
0.6
176
     1
 40
30.0
176
     1
 62
     7
420
 16777215
176
     1
 90
        0
176
     1
 90
        0
176
     1
 62
     7
176
     1
 62
   257
176
     1
 90
        1
176
     1
 90
        1
176
     1
 40
1.0
176
     1
 90
        8
176
     1
 62
     7
176
     1
 40
1.0
176
     1
 90
        1
176
     1
 90
        6
176
     1
 90
        2
176
     1
 62
     7
176
     1
 90
        5
176
     1
 90
        0
176
     1
 90
        0
176
     1
290
     0
176
     1
 90
       13
176
     1
 40
0.0
176
     1
 90
        0
176
     1
290
     0
176
     1
290
     1
176
     1
290
     1
176
     1
290
     0
176
     1
290
     0
176
     1
290
     0
176
     1
290
     0
176
     1
290
     0
176
     1
290
     0
176
     1
 90
       50
176
     1
 40
0.0
176
     1
 40
1.0
176
     1
 90
        0
176
     1
 62
    18
420
        0
176
     1
 90
       50
176
     1
 90
        3
176
     1
 62
     5
420
      255
176
     1
290
     0
176
     1
 90
       50
176
     1
 90
       50
176
     1
 90
       50
176
     1
290
     0
176
     1
 90
       50
176
     1
 62
   256
176
     0
 40
1.0
176
     0
 90
        2
176
     1
  1
strokes_ogs.tif
176
     1
290
     0
176
     1
 40
1.0
176
     1
 40
1.0
176
     1
  0
VISUALSTYLE
  5
97
102
{ACAD_REACTORS
330
95
102
}
330
95
100
AcDbVisualStyle
  2
FlatWithEdges
 70
     1
177
     3
291
     1
 70
    58
 90
        2
176
     1
 90
        1
176
     1
 90
        1
176
     1
 90
        2
176
     1
 40
0.6
176
     1
 40
30.0
176
     1
 62
     7
420
 16777215
176
     1
 90
        1
176
     1
 90
        0
176
     1
 62
     7
176
     1
 62
   257
176
     1
 90
        1
176
     1
 90
        1
176
     1
 40
1.0
176
     1
 90
        0
176
     1
 62
   257
176
     1
 40
1.0
176
     1
 90
        1
176
     1
 90
        6
176
     1
 90
        2
176
     1
 62
     7
176
     1
 90
        5
176
     1
 90
        0
176
     1
 90
        0
176
     1
290
     0
176
     1
 90
       13
176
     1
 40
0.0
176
     1
 90
        0
176
     1
290
     0
176
     1
290
     1
176
     1
290
     1
176
     1
290
     0
176
     1
290
     0
176
     1
290
     0
176
     1
290
     0
176
     1
290
     0
176
     1
290
     0
176
     1
 90
       50
176
     1
 40
0.0
176
     1
 40
1.0
176
     1
 90
        0
176
     1
 62
    18
420
        0
176
     1
 90
       50
176
     1
 90
        3
176
     1
 62
     5
420
      255
176
     1
290
     0
176
     1
 90
       50
176
     1
 90
       50
176
     1
 90
       50
176
     1
290
     0
176
     1
 90
       50
176
     1
 62
   256
176
     0
 40
1.0
176
     0
 90
        2
176
     1
  1
strokes_ogs.tif
176
     1
290
     0
176
     1
 40
1.0
176
     1
 40
1.0
176
     1
  0
VISUALSTYLE
  5
98
102
{ACAD_REACTORS
330
95
102
}
330
95
100
AcDbVisualStyle
  2
Gouraud
 70
     2
177
     3
291
     1
 70
    58
 90
        2
176
     1
 90
        2
176
     1
 90
        1
176
     1
 90
        2
176
     1
 40
0.6
176
     1
 40
30.0
176
     1
 62
     7
420
 16777215
176
     1
 90
        0
176
     1
 90
        0
176
     1
 62
     7
176
     1
 62
   257
176
     1
 90
        1
176
     1
 90
        1
176
     1
 40
1.0
176
     1
 90
        0
176
     1
 62
     7
176
     1
 40
1.0
176
     1
 90
        1
176
     1
 90
        6
176
     1
 90
        2
176
     1
 62
     7
176
     1
 90
        5
176
     1
 90
        0
176
     1
 90
        0
176
     1
290
     0
176
     1
 90
       13
176
     1
 40
0.0
176
     1
 90
        0
176
     1
290
     0
176
     1
290
     1
176
     1
290
     1
176
     1
290
     0
176
     1
290
     0
176
     1
290
     0
176
     1
290
     0
176
     1
290
     0
176
     1
290
     0
176
     1
 90
       50
176
     1
 40
0.0
176
     1
 40
1.0
176
     1
 90
        0
176
     1
 62
    18
420
        0
176
     1
 90
       50
176
     1
 90
        3
176
     1
 62
     5
420
      255
176
     1
290
     0
176
     1
 90
       50
176
     1
 90
       50
176
     1
 90
       50
176
     1
290
     0
176
     1
 90
       50
176
     1
 62
   256
176
     0
 40
1.0
176
     0
 90
        2
176
     1
  1
strokes_ogs.tif
176
     1
290
     0
176
     1
 40
1.0
176
     1
 40
1.0
176
     1
  0
VISUALSTYLE
  5
99
102
{ACAD_REACTORS
330
95
102
}
330
95
100
AcDbVisualStyle
  2
GouraudWithEdges
 70
     3
177
     3
291
     1
 70
    58
 90
        2
176
     1
 90
        2
176
     1
 90
        1
176
     1
 90
        2
176
     1
 40
0.6
176
     1
 40
30.0
176
     1
 62
     7
420
 16777215
176
     1
 90
        1
176
     1
 90
        0
176
     1
 62
     7
176
     1
 62
   257
176
     1
 90
        1
176
     1
 90
        1
176
     1
 40
1.0
176
     1
 90
        0
176
     1
 62
   257
176
     1
 40
1.0
176
     1
 90
        1
176
     1
 90
        6
176
     1
 90
        2
176
     1
 62
     7
176
     1
 90
        5
176
     1
 90
        0
176
     1
 90
        0
176
     1
290
     0
176
     1
 90
       13
176
     1
 40
0.0
176
     1
 90
        0
176
     1
290
     0
176
     1
290
     1
176
     1
290
     1
176
     1
290
     0
176
     1
290
     0
176
     1
290
     0
176
     1
290
     0
176
     1
290
     0
176
     1
290
     0
176
     1
 90
       50
176
     1
 40
0.0
176
     1
 40
1.0
176
     1
 90
        0
176
     1
 62
    18
420
        0
176
     1
 90
       50
176
     1
 90
        3
176
     1
 62
     5
420
      255
176
     1
290
     0
176
     1
 90
       50
176
     1
 90
       50
176
     1
 90
       50
176
     1
290
     0
176
     1
 90
       50
176
     1
 62
   256
176
     0
 40
1.0
176
     0
 90
        2
176
     1
  1
strokes_ogs.tif
176
     1
290
     0
176
     1
 40
1.0
176
     1
 40
1.0
176
     1
  0
VISUALSTYLE
  5
9C
102
{ACAD_REACTORS
330
95
102
}
330
95
100
AcDbVisualStyle
  2
Hidden
 70
     6
177
     3
291
     0
 70
    58
 90
        1
176
     1
 90
        2
176
     1
 90
        2
176
     1
 90
        0
176
     1
 40
0.6
176
     1
 40
30.0
176
     1
 62
     7
420
 16777215
176
     1
 90
        2
176
     1
 90
        2
176
     1
 62
     7
176
     1
 62
   257
176
     1
 90
        2
176
     1
 90
        1
176
     1
 40
40.0
176
     1
 90
        0
176
     1
 62
   257
176
     1
 40
1.0
176
     1
 90
        1
176
     1
 90
        6
176
     1
 90
        2
176
     1
 62
     7
176
     1
 90
        3
176
     1
 90
        0
176
     1
 90
        0
176
     1
290
     0
176
     1
 90
        1
176
     1
 40
0.0
176
     1
 90
        0
176
     1
290
     0
176
     1
290
     1
176
     1
290
     1
176
     1
290
     0
176
     1
290
     0
176
     1
290
     0
176
     1
290
     0
176
     1
290
     0
176
     1
290
     0
176
     1
 90
       50
176
     1
 40
0.0
176
     1
 40
1.0
176
     1
 90
        0
176
     1
 62
    18
420
        0
176
     1
 90
       50
176
     1
 90
        3
176
     1
 62
     5
420
      255
176
     1
290
     0
176
     1
 90
       50
176
     1
 90
       50
176
     1
 90
       50
176
     1
290
     0
176
     1
 90
       50
176
     1
 62
   256
176
     0
 40
1.0
176
     0
 90
        2
176
     1
  1
strokes_ogs.tif
176
     1
290
     0
176
     1
 40
1.0
176
     1
 40
1.0
176
     1
  0
VISUALSTYLE
  5
A6
102
{ACAD_REACTORS
330
95
102
}
330
95
100
AcDbVisualStyle
  2
JitterOff
 70
    20
177
     3
291
     1
 70
    58
 90
        2
176
     0
 90
        2
176
     0
 90
        0
176
     0
 90
        0
176
     0
 40
0.6
176
     0
 40
30.0
176
     0
 62
     7
420
 16777215
176
     0
 90
        1
176
     0
 90
        4
176
     0
 62
     7
176
     0
 62
   257
176
     0
 90
        1
176
     0
 90
        1
176
     0
 40
1.0
176
     0
 90
       10
176
     2
 62
     7
176
     0
 40
1.0
176
     0
 90
        1
176
     0
 90
        6
176
     0
 90
        2
176
     0
 62
     7
176
     0
 90
        5
176
     0
 90
        0
176
     0
 90
        0
176
     0
290
     0
176
     0
 90
        1
176
     0
 40
0.0
176
     0
 90
        0
176
     0
290
     0
176
     0
290
     1
176
     0
290
     1
176
     0
290
     0
176
     0
290
     0
176
     0
290
     0
176
     0
290
     0
176
     0
290
     0
176
     0
290
     0
176
     0
 90
       50
176
     0
 40
0.0
176
     0
 40
1.0
176
     0
 90
        0
176
     0
 62
    18
420
        0
176
     0
 90
       50
176
     0
 90
        3
176
     0
 62
     5
420
      255
176
     0
290
     0
176
     0
 90
       50
176
     0
 90
       50
176
     0
 90
       50
176
     0
290
     0
176
     0
 90
       50
176
     0
 62
   256
176
     0
 40
1.0
176
     0
 90
        2
176
     0
  1
strokes_ogs.tif
176
     0
290
     0
176
     0
 40
1.0
176
     0
 40
1.0
176
     0
  0
VISUALSTYLE
  5
A3
102
{ACAD_REACTORS
330
95
102
}
330
95
100
AcDbVisualStyle
  2
Linepattern
 70
    14
177
     3
291
     1
 70
    58
 90
        2
176
     1
 90
        2
176
     1
 90
        0
176
     1
 90
        0
176
     1
 40
0.6
176
     1
 40
30.0
176
     1
 62
     7
420
 16777215
176
     1
 90
        1
176
     1
 90
        4
176
     1
 62
     7
176
     1
 62
   257
176
     1
 90
        7
176
     1
 90
        7
176
     1
 40
1.0
176
     1
 90
        8
176
     1
 62
     7
176
     1
 40
1.0
176
     1
 90
        1
176
     1
 90
        6
176
     1
 90
        2
176
     1
 62
     7
176
     1
 90
        5
176
     1
 90
        0
176
     1
 90
        0
176
     1
290
     0
176
     1
 90
        1
176
     1
 40
0.0
176
     1
 90
        0
176
     1
290
     0
176
     1
290
     1
176
     1
290
     1
176
     1
290
     0
176
     1
290
     0
176
     1
290
     0
176
     1
290
     0
176
     1
290
     0
176
     1
290
     0
176
     1
 90
       50
176
     1
 40
0.0
176
     1
 40
1.0
176
     1
 90
        0
176
     1
 62
    18
420
        0
176
     1
 90
       50
176
     1
 90
        3
176
     1
 62
     5
420
      255
176
     1
290
     0
176
     1
 90
       50
176
     1
 90
       50
176
     1
 90
       50
176
     1
290
     0
176
     1
 90
       50
176
     1
 62
   256
176
     0
 40
1.0
176
     0
 90
        2
176
     1
  1
strokes_ogs.tif
176
     1
290
     0
176
     1
 40
1.0
176
     1
 40
1.0
176
     1
  0
VISUALSTYLE
  5
A7
102
{ACAD_REACTORS
330
95
102
}
330
95
100
AcDbVisualStyle
  2
OverhangOff
 70
    21
177
     3
291
     1
 70
    58
 90
        2
176
     0
 90
        2
176
     0
 90
        0
176
     0
 90
        0
176
     0
 40
0.6
176
     0
 40
30.0
176
     0
 62
     7
420
 16777215
176
     0
 90
        1
176
     0
 90
        4
176
     0
 62
     7
176
     0
 62
   257
176
     0
 90
        1
176
     0
 90
        1
176
     0
 40
1.0
176
     0
 90
        9
176
     2
 62
     7
176
     0
 40
1.0
176
     0
 90
        1
176
     0
 90
        6
176
     0
 90
        2
176
     0
 62
     7
176
     0
 90
        5
176
     0
 90
        0
176
     0
 90
        0
176
     0
290
     0
176
     0
 90
        1
176
     0
 40
0.0
176
     0
 90
        0
176
     0
290
     0
176
     0
290
     1
176
     0
290
     1
176
     0
290
     0
176
     0
290
     0
176
     0
290
     0
176
     0
290
     0
176
     0
290
     0
176
     0
290
     0
176
     0
 90
       50
176
     0
 40
0.0
176
     0
 40
1.0
176
     0
 90
        0
176
     0
 62
    18
420
        0
176
     0
 90
       50
176
     0
 90
        3
176
     0
 62
     5
420
      255
176
     0
290
     0
176
     0
 90
       50
176
     0
 90
       50
176
     0
 90
       50
176
     0
290
     0
176
     0
 90
       50
176
     0
 62
   256
176
     0
 40
1.0
176
     0
 90
        2
176
     0
  1
strokes_ogs.tif
176
     0
290
     0
176
     0
 40
1.0
176
     0
 40
1.0
176
     0
  0
VISUALSTYLE
  5
9E
102
{ACAD_REACTORS
330
95
102
}
330
95
100
AcDbVisualStyle
  2
Realistic
 70
     8
177
     3
291
     0
 70
    58
 90
        2
176
     1
 90
        3
176
     1
 90
        0
176
     1
 90
        2
176
     1
 40
0.6
176
     1
 40
30.0
176
     1
 62
     7
420
 16777215
176
     1
 90
        0
176
     1
 90
        0
176
     1
 62
     7
176
     1
 62
   257
176
     1
 90
        1
176
     1
 90
        1
176
     1
 40
1.0
176
     1
 90
        8
176
     1
 62
   257
176
     1
 40
1.0
176
     1
 90
        1
176
     1
 90
        6
176
     1
 90
        2
176
     1
 62
     7
176
     1
 90
        3
176
     1
 90
        0
176
     1
 90
        0
176
     1
290
     0
176
     1
 90
       13
176
     1
 40
0.0
176
     1
 90
        0
176
     1
290
     0
176
     1
290
     1
176
     1
290
     1
176
     1
290
     0
176
     1
290
     0
176
     1
290
     0
176
     1
290
     0
176
     1
290
     0
176
     1
290
     0
176
     1
 90
       50
176
     1
 40
0.0
176
     1
 40
1.0
176
     1
 90
        0
176
     1
 62
    18
420
        0
176
     1
 90
       50
176
     1
 90
        3
176
     1
 62
     5
420
      255
176
     1
290
     0
176
     1
 90
       50
176
     1
 90
       50
176
     1
 90
       50
176
     1
290
     0
176
     1
 90
       50
176
     1
 62
   256
176
     0
 40
1.0
176
     0
 90
        2
176
     1
  1
strokes_ogs.tif
176
     1
290
     0
176
     1
 40
1.0
176
     1
 40
1.0
176
     1
  0
VISUALSTYLE
  5
AD
102
{ACAD_REACTORS
330
95
102
}
330
95
100
AcDbVisualStyle
  2
Shaded
 70
    27
177
     3
291
     0
 70
    58
 90
        2
176
     1
 90
        2
176
     1
 90
        1
176
     1
 90
        2
176
     1
 40
0.6
176
     1
 40
30.0
176
     1
 62
     7
420
 16777215
176
     1
 90
        0
176
     1
 90
        4
176
     1
 62
     7
176
     1
 62
   257
176
     1
 90
        1
176
     1
 90
        1
176
     1
 40
1.0
176
     1
 90
        8
176
     1
 62
   257
176
     1
 40
1.0
176
     1
 90
        1
176
     1
 90
        6
176
     1
 90
        2
176
     1
 62
     8
420
  7895160
176
     1
 90
        3
176
     1
 90
        0
176
     1
 90
        0
176
     1
290
     0
176
     1
 90
        5
176
     1
 40
0.0
176
     1
 90
        0
176
     1
290
     0
176
     1
290
     1
176
     1
290
     1
176
     1
290
     0
176
     1
290
     0
176
     1
290
     0
176
     1
290
     0
176
     1
290
     0
176
     1
290
     0
176
     1
 90
       50
176
     1
 40
0.0
176
     1
 40
1.0
176
     1
 90
        0
176
     1
 62
    18
420
        0
176
     1
 90
       50
176
     1
 90
        3
176
     1
 62
     5
420
      255
176
     1
290
     0
176
     1
 90
       50
176
     1
 90
       50
176
     1
 90
       50
176
     1
290
     0
176
     1
 90
       50
176
     1
 62
   256
176
     0
 40
1.0
176
     0
 90
        2
176
     1
  1
strokes_ogs.tif
176
     1
290
     0
176
     1
 40
1.0
176
     1
 40
1.0
176
     1
  0
VISUALSTYLE
  5
AC
102
{ACAD_REACTORS
330
95
102
}
330
95
100
AcDbVisualStyle
  2
Shaded with edges
 70
    26
177
     3
291
     0
 70
    58
 90
        2
176
     1
 90
        2
176
     1
 90
        1
176
     1
 90
        2
176
     1
 40
0.6
176
     1
 40
30.0
176
     1
 62
     7
420
 16777215
176
     1
 90
        1
176
     1
 90
       10
176
     1
 62
     7
176
     1
 62
   257
176
     1
 90
        2
176
     1
 90
        1
176
     1
 40
1.0
176
     1
 90
        8
176
     1
 62
   257
176
     1
 40
1.0
176
     1
 90
        1
176
     1
 90
        6
176
     1
 90
        2
176
     1
 62
     7
176
     1
 90
        3
176
     1
 90
        0
176
     1
 90
        0
176
     1
290
     0
176
     1
 90
        5
176
     1
 40
0.0
176
     1
 90
        0
176
     1
290
     0
176
     1
290
     1
176
     1
290
     1
176
     1
290
     0
176
     1
290
     0
176
     1
290
     0
176
     1
290
     0
176
     1
290
     0
176
     1
290
     0
176
     1
 90
       50
176
     1
 40
0.0
176
     1
 40
1.0
176
     1
 90
        0
176
     1
 62
    18
420
        0
176
     1
 90
       50
176
     1
 90
        3
176
     1
 62
     5
420
      255
176
     1
290
     0
176
     1
 90
       50
176
     1
 90
       50
176
     1
 90
       50
176
     1
290
     0
176
     1
 90
       50
176
     1
 62
   256
176
     0
 40
1.0
176
     0
 90
        2
176
     1
  1
strokes_ogs.tif
176
     1
290
     0
176
     1
 40
1.0
176
     1
 40
1.0
176
     1
  0
VISUALSTYLE
  5
A9
102
{ACAD_REACTORS
330
95
102
}
330
95
100
AcDbVisualStyle
  2
Shades of Gray
 70
    23
177
     3
291
     0
 70
    58
 90
        2
176
     1
 90
        2
176
     1
 90
        3
176
     1
 90
        0
176
     1
 40
0.6
176
     1
 40
30.0
176
     1
 62
     7
420
 16777215
176
     1
 90
        2
176
     1
 90
        2
176
     1
 62
     7
176
     1
 62
     7
176
     1
 90
        1
176
     1
 90
        1
176
     1
 40
40.0
176
     1
 90
        8
176
     1
 62
     7
176
     1
 40
1.0
176
     1
 90
        1
176
     1
 90
        6
176
     1
 90
        2
176
     1
 62
     7
176
     1
 90
        3
176
     1
 90
        0
176
     1
 90
        0
176
     1
290
     0
176
     1
 90
        1
176
     1
 40
0.0
176
     1
 90
        0
176
     1
290
     0
176
     1
290
     1
176
     1
290
     1
176
     1
290
     0
176
     1
290
     0
176
     1
290
     0
176
     1
290
     0
176
     1
290
     0
176
     1
290
     0
176
     1
 90
       50
176
     1
 40
0.0
176
     1
 40
1.0
176
     1
 90
        0
176
     1
 62
    18
420
        0
176
     1
 90
       50
176
     1
 90
        3
176
     1
 62
     5
420
      255
176
     1
290
     0
176
     1
 90
       50
176
     1
 90
       50
176
     1
 90
       50
176
     1
290
     0
176
     1
 90
       50
176
     1
 62
   256
176
     0
 40
1.0
176
     0
 90
        2
176
     1
  1
strokes_ogs.tif
176
     1
290
     0
176
     1
 40
1.0
176
     1
 40
1.0
176
     1
  0
VISUALSTYLE
  5
AA
102
{ACAD_REACTORS
330
95
102
}
330
95
100
AcDbVisualStyle
  2
Sketchy
 70
    24
177
     3
291
     0
 70
    58
 90
        1
176
     1
 90
        2
176
     1
 90
        2
176
     1
 90
        0
176
     1
 40
0.6
176
     1
 40
30.0
176
     1
 62
     7
420
 16777215
176
     1
 90
        2
176
     1
 90
        2
176
     1
 62
     7
176
     1
 62
     7
176
     1
 90
        1
176
     1
 90
        1
176
     1
 40
40.0
176
     1
 90
       11
176
     1
 62
     7
176
     1
 40
1.0
176
     1
 90
        1
176
     1
 90
        6
176
     1
 90
        2
176
     1
 62
     7
176
     1
 90
        6
176
     1
 90
        0
176
     1
 90
        0
176
     1
290
     0
176
     1
 90
        1
176
     1
 40
0.0
176
     1
 90
        0
176
     1
290
     0
176
     1
290
     1
176
     1
290
     1
176
     1
290
     0
176
     1
290
     0
176
     1
290
     0
176
     1
290
     0
176
     1
290
     0
176
     1
290
     0
176
     1
 90
       50
176
     1
 40
0.0
176
     1
 40
1.0
176
     1
 90
        0
176
     1
 62
    18
420
        0
176
     1
 90
       50
176
     1
 90
        3
176
     1
 62
     5
420
      255
176
     1
290
     0
176
     1
 90
       50
176
     1
 90
       50
176
     1
 90
       50
176
     1
290
     0
176
     1
 90
       50
176
     1
 62
   256
176
     0
 40
1.0
176
     0
 90
        2
176
     1
  1
strokes_ogs.tif
176
     1
290
     0
176
     1
 40
1.0
176
     1
 40
1.0
176
     1
  0
VISUALSTYLE
  5
A2
102
{ACAD_REACTORS
330
95
102
}
330
95
100
AcDbVisualStyle
  2
Thicken
 70
    13
177
     3
291
     1
 70
    58
 90
        2
176
     1
 90
        2
176
     1
 90
        0
176
     1
 90
        0
176
     1
 40
0.6
176
     1
 40
30.0
176
     1
 62
     7
420
 16777215
176
     1
 90
        1
176
     1
 90
        4
176
     1
 62
     7
176
     1
 62
   257
176
     1
 90
        1
176
     1
 90
        1
176
     1
 40
1.0
176
     1
 90
       12
176
     1
 62
     7
176
     1
 40
1.0
176
     1
 90
        1
176
     1
 90
        6
176
     1
 90
        2
176
     1
 62
     7
176
     1
 90
        5
176
     1
 90
        0
176
     1
 90
        0
176
     1
290
     0
176
     1
 90
        1
176
     1
 40
0.0
176
     1
 90
        0
176
     1
290
     0
176
     1
290
     1
176
     1
290
     1
176
     1
290
     0
176
     1
290
     0
176
     1
290
     0
176
     1
290
     0
176
     1
290
     0
176
     1
290
     0
176
     1
 90
       50
176
     1
 40
0.0
176
     1
 40
1.0
176
     1
 90
        0
176
     1
 62
    18
420
        0
176
     1
 90
       50
176
     1
 90
        3
176
     1
 62
     5
420
      255
176
     1
290
     0
176
     1
 90
       50
176
     1
 90
       50
176
     1
 90
       50
176
     1
290
     0
176
     1
 90
       50
176
     1
 62
   256
176
     0
 40
1.0
176
     0
 90
        2
176
     1
  1
strokes_ogs.tif
176
     1
290
     0
176
     1
 40
1.0
176
     1
 40
1.0
176
     1
  0
VISUALSTYLE
  5
9B
102
{ACAD_REACTORS
330
95
102
}
330
95
100
AcDbVisualStyle
  2
Wireframe
 70
     5
177
     3
291
     0
 70
    58
 90
        0
176
     1
 90
        2
176
     1
 90
        0
176
     1
 90
        0
176
     1
 40
0.6
176
     1
 40
30.0
176
     1
 62
     7
420
 16777215
176
     1
 90
        1
176
     1
 90
        4
176
     1
 62
     7
176
     1
 62
   257
176
     1
 90
        1
176
     1
 90
        1
176
     1
 40
1.0
176
     1
 90
        0
176
     1
 62
   257
176
     1
 40
1.0
176
     1
 90
        1
176
     1
 90
        6
176
     1
 90
        2
176
     1
 62
     7
176
     1
 90
        3
176
     1
 90
        0
176
     1
 90
        0
176
     1
290
     0
176
     1
 90
        1
176
     1
 40
0.0
176
     1
 90
        0
176
     1
290
     0
176
     1
290
     1
176
     1
290
     1
176
     1
290
     0
176
     1
290
     0
176
     1
290
     0
176
     1
290
     0
176
     1
290
     0
176
     1
290
     0
176
     1
 90
       50
176
     1
 40
0.0
176
     1
 40
1.0
176
     1
 90
        0
176
     1
 62
    18
420
        0
176
     1
 90
       50
176
     1
 90
        3
176
     1
 62
     5
420
      255
176
     1
290
     0
176
     1
 90
       50
176
     1
 90
       50
176
     1
 90
       50
176
     1
290
     0
176
     1
 90
       50
176
     1
 62
   256
176
     0
 40
1.0
176
     0
 90
        2
176
     1
  1
strokes_ogs.tif
176
     1
290
     0
176
     1
 40
1.0
176
     1
 40
1.0
176
     1
  0
VISUALSTYLE
  5
AB
102
{ACAD_REACTORS
330
95
102
}
330
95
100
AcDbVisualStyle
  2
X-Ray
 70
    25
177
     3
291
     0
 70
    58
 90
        2
176
     1
 90
        2
176
     1
 90
        1
176
     1
 90
        1
176
     1
 40
0.5
176
     1
 40
30.0
176
     1
 62
     7
420
 16777215
176
     1
 90
        1
176
     1
 90
        0
176
     1
 62
     7
176
     1
 62
   257
176
     1
 90
        1
176
     1
 90
        1
176
     1
 40
1.0
176
     1
 90
        8
176
     1
 62
     7
176
     1
 40
1.0
176
     1
 90
        1
176
     1
 90
        6
176
     1
 90
        2
176
     1
 62
     7
176
     1
 90
        3
176
     1
 90
        0
176
     1
 90
        0
176
     1
290
     0
176
     1
 90
       13
176
     1
 40
0.0
176
     1
 90
        0
176
     1
290
     0
176
     1
290
     1
176
     1
290
     1
176
     1
290
     0
176
     1
290
     0
176
     1
290
     0
176
     1
290
     0
176
     1
290
     0
176
     1
290
     0
176
     1
 90
       50
176
     1
 40
0.0
176
     1
 40
1.0
176
     1
 90
        0
176
     1
 62
    18
420
        0
176
     1
 90
       50
176
     1
 90
        3
176
     1
 62
     5
420
      255
176
     1
290
     0
176
     1
 90
       50
176
     1
 90
       50
176
     1
 90
       50
176
     1
290
     0
176
     1
 90
       50
176
     1
 62
   256
176
     0
 40
1.0
176
     0
 90
        2
176
     1
  1
strokes_ogs.tif
176
     1
290
     0
176
     1
 40
1.0
176
     1
 40
1.0
176
     1
  0
DICTIONARYVAR
  5
152
102
{ACAD_REACTORS
330
151
102
}
330
151
100
DictionaryVariables
280
     0
  1
1:1
  0
DICTIONARYVAR
  5
157
102
{ACAD_REACTORS
330
151
102
}
330
151
100
DictionaryVariables
280
     0
  1
Standard
  0
DICTIONARYVAR
  5
156
102
{ACAD_REACTORS
330
151
102
}
330
151
100
DictionaryVariables
280
     0
  1
Standard
  0
XRECORD
  5
DC
102
{ACAD_REACTORS
330
DA
102
}
330
DA
100
AcDbXrecord
280
     1
1000
#ffffff
  0
XRECORD
  5
DD
102
{ACAD_REACTORS
330
DA
102
}
330
DA
100
AcDbXrecord
280
     1
1000
FullColor
  0
XRECORD
  5
DE
102
{ACAD_REACTORS
330
DA
102
}
330
DA
100
AcDbXrecord
280
     1
290
     1
  0
XRECORD
  5
DF
102
{ACAD_REACTORS
330
DA
102
}
330
DA
100
AcDbXrecord
280
     1
290
     1
  0
XRECORD
  5
E0
102
{ACAD_REACTORS
330
DA
102
}
330
DA
100
AcDbXrecord
280
     1
290
     1
  0
XRECORD
  5
E1
102
{ACAD_REACTORS
330
DA
102
}
330
DA
100
AcDbXrecord
280
     1
290
     1
  0
XRECORD
  5
E2
102
{ACAD_REACTORS
330
DA
102
}
330
DA
100
AcDbXrecord
280
     1
1000
auto
  0
XRECORD
  5
E3
102
{ACAD_REACTORS
330
DA
102
}
330
DA
100
AcDbXrecord
280
     1
1000
auto
  0
XRECORD
  5
E4
102
{ACAD_REACTORS
330
DA
102
}
330
DA
100
AcDbXrecord
280
     1
1000
auto
  0
XRECORD
  5
E5
102
{ACAD_REACTORS
330
DA
102
}
330
DA
100
AcDbXrecord
280
     1
1000
auto
  0
XRECORD
  5
E6
102
{ACAD_REACTORS
330
DA
102
}
330
DA
100
AcDbXrecord
280
     1
1000
auto
  0
XRECORD
  5
E7
102
{ACAD_REACTORS
330
DA
102
}
330
DA
100
AcDbXrecord
280
     1
1000
auto
  0
XRECORD
  5
E8
102
{ACAD_REACTORS
330
DA
102
}
330
DA
100
AcDbXrecord
280
     1
1000
auto
  0
XRECORD
  5
E9
102
{ACAD_REACTORS
330
DA
102
}
330
DA
100
AcDbXrecord
280
     1
1000
auto
  0
XRECORD
  5
EA
102
{ACAD_REACTORS
330
DA
102
}
330
DA
100
AcDbXrecord
280
     1
290
     0
  0
XRECORD
  5
EB
102
{ACAD_REACTORS
330
DA
102
}
330
DA
100
AcDbXrecord
280
     1
290
     0
  0
XRECORD
  5
EC
102
{ACAD_REACTORS
330
DA
102
}
330
DA
100
AcDbXrecord
280
     1
290
     0
  0
XRECORD
  5
ED
102
{ACAD_REACTORS
330
DA
102
}
330
DA
100
AcDbXrecord
280
     1
290
     0
  0
XRECORD
  5
EE
102
{ACAD_REACTORS
330
DA
102
}
330
DA
100
AcDbXrecord
280
     1
 90
     4097
  0
XRECORD
  5
EF
102
{ACAD_REACTORS
330
DA
102
}
330
DA
100
AcDbXrecord
280
     1
 90
     4097
  0
XRECORD
  5
F0
102
{ACAD_REACTORS
330
DA
102
}
330
DA
100
AcDbXrecord
280
     1
 90
     4097
  0
XRECORD
  5
F1
102
{ACAD_REACTORS
330
DA
102
}
330
DA
100
AcDbXrecord
280
     1
 90
     4097
  0
XRECORD
  5
F2
102
{ACAD_REACTORS
330
DA
102
}
330
DA
100
AcDbXrecord
280
     1
1000
auto
  0
XRECORD
  5
F3
102
{ACAD_REACTORS
330
DA
102
}
330
DA
100
AcDbXrecord
280
     1
1000
auto
  0
XRECORD
  5
F4
102
{ACAD_REACTORS
330
DA
102
}
330
DA
100
AcDbXrecord
280
     1
1000
auto
  0
XRECORD
  5
F5
102
{ACAD_REACTORS
330
DA
102
}
330
DA
100
AcDbXrecord
280
     1
1000
auto
  0
XRECORD
  5
F6
102
{ACAD_REACTORS
330
DA
102
}
330
DA
100
AcDbXrecord
280
     1
1000
auto
  0
XRECORD
  5
F7
102
{ACAD_REACTORS
330
DA
102
}
330
DA
100
AcDbXrecord
280
     1
1000
auto
  0
XRECORD
  5
F8
102
{ACAD_REACTORS
330
DA
102
}
330
DA
100
AcDbXrecord
280
     1
1000
auto
  0
XRECORD
  5
F9
102
{ACAD_REACTORS
330
DA
102
}
330
DA
100
AcDbXrecord
280
     1
1000
auto
  0
XRECORD
  5
FA
102
{ACAD_REACTORS
330
DA
102
}
330
DA
100
AcDbXrecord
280
     1
 90
        1
  0
XRECORD
  5
FB
102
{ACAD_REACTORS
330
DA
102
}
330
DA
100
AcDbXrecord
280
     1
 40
10.0
  0
XRECORD
  5
FC
102
{ACAD_REACTORS
330
DA
102
}
330
DA
100
AcDbXrecord
280
     1
 40
10.0
  0
XRECORD
  5
FD
102
{ACAD_REACTORS
330
DA
102
}
330
DA
100
AcDbXrecord
280
     1
 40
10.0
  0
XRECORD
  5
FE
102
{ACAD_REACTORS
330
DA
102
}
330
DA
100
AcDbXrecord
280
     1
 40
10.0
  0
XRECORD
  5
FF
102
{ACAD_REACTORS
330
DA
102
}
330
DA
100
AcDbXrecord
280
     1
290
     0
  0
XRECORD
  5
100
102
{ACAD_REACTORS
330
DA
102
}
330
DA
100
AcDbXrecord
280
     1
 90
        1
  0
XRECORD
  5
101
102
{ACAD_REACTORS
330
DA
102
}
330
DA
100
AcDbXrecord
280
     1
 40
0.0
  0
XRECORD
  5
102
102
{ACAD_REACTORS
330
DA
102
}
330
DA
100
AcDbXrecord
280
     1
 40
0.0
  0
XRECORD
  5
103
102
{ACAD_REACTORS
330
DA
102
}
330
DA
100
AcDbXrecord
280
     1
1000
Portrait
  0
XRECORD
  5
104
102
{ACAD_REACTORS
330
DA
102
}
330
DA
100
AcDbXrecord
280
     1
 40
297.0
  0
XRECORD
  5
105
102
{ACAD_REACTORS
330
DA
102
}
330
DA
100
AcDbXrecord
280
     1
 40
210.0
  0
XRECORD
  5
106
102
{ACAD_REACTORS
330
DA
102
}
330
DA
100
AcDbXrecord
280
     1
1000
1:1
  0
XRECORD
  5
107
102
{ACAD_REACTORS
330
DA
102
}
330
DA
100
AcDbXrecord
280
     1
290
     1
  0
XRECORD
  5
DB
102
{ACAD_REACTORS
330
DA
102
}
330
DA
100
AcDbXrecord
280
     1
1000
3.17.1
  0
XRECORD
  5
108
102
{ACAD_REACTORS
330
DA
102
}
330
DA
100
AcDbXrecord
280
     1
 90
        4
  0
XRECORD
  5
109
102
{ACAD_REACTORS
330
DA
102
}
330
DA
100
AcDbXrecord
280
     1
  0
XRECORD
  5
10A
102
{ACAD_REACTORS
330
DA
102
}
330
DA
100
AcDbXrecord
280
     1
 40
5556.829619517011
  0
XRECORD
  5
10B
102
{ACAD_REACTORS
330
DA
102
}
330
DA
100
AcDbXrecord
280
     1
 40
11789.38244026284
  0
DICTIONARY
  5
153
330
D5
100
AcDbDictionary
280
     1
281
     1
  3
ACAD_ROUNDTRIP_2008_TABLESTYLE_CELLSTYLEMAP
360
154
  0
CELLSTYLEMAP
  5
154
102
{ACAD_REACTORS
330
153
102
}
330
153
100
AcDbCellStyleMap
 90
        3
300
CELLSTYLE
  1
TABLEFORMAT_BEGIN
 90
        5
170
     1
 91
        0
 92
    32768
 62
   257
 93
        1
300
CONTENTFORMAT
  1
CONTENTFORMAT_BEGIN
 90
        0
 91
        0
 92
        4
 93
        0
300

 40
0.0
140
1.0
 94
        5
 62
     0
340
7D
144
0.25
309
CONTENTFORMAT_END
171
     1
301
MARGIN
  1
CELLMARGIN_BEGIN
 40
0.06
 40
0.06
 40
0.06
 40
0.06
 40
0.06
 40
0.06
309
CELLMARGIN_END
 94
        6
 95
        1
302
GRIDFORMAT
  1
GRIDFORMAT_BEGIN
 90
        0
 91
        1
 62
     0
 92
       -2
340
7F
 93
        0
 40
0.045
309
GRIDFORMAT_END
 95
        2
302
GRIDFORMAT
  1
GRIDFORMAT_BEGIN
 90
        0
 91
        1
 62
     0
 92
       -2
340
7F
 93
        0
 40
0.045
309
GRIDFORMAT_END
 95
        4
302
GRIDFORMAT
  1
GRIDFORMAT_BEGIN
 90
        0
 91
        1
 62
     0
 92
       -2
340
7F
 93
        0
 40
0.045
309
GRIDFORMAT_END
 95
        8
302
GRIDFORMAT
  1
GRIDFORMAT_BEGIN
 90
        0
 91
        1
 62
     0
 92
       -2
340
7F
 93
        0
 40
0.045
309
GRIDFORMAT_END
 95
       16
302
GRIDFORMAT
  1
GRIDFORMAT_BEGIN
 90
        0
 91
        1
 62
     0
 92
       -2
340
7F
 93
        0
 40
0.045
309
GRIDFORMAT_END
 95
       32
302
GRIDFORMAT
  1
GRIDFORMAT_BEGIN
 90
        0
 91
        1
 62
     0
 92
       -2
340
7F
 93
        0
 40
0.045
309
GRIDFORMAT_END
309
TABLEFORMAT_END
  1
CELLSTYLE_BEGIN
 90
        1
 91
        1
300
_TITLE
309
CELLSTYLE_END
300
CELLSTYLE
  1
TABLEFORMAT_BEGIN
 90
        5
170
     1
 91
        0
 92
        0
 62
   257
 93
        1
300
CONTENTFORMAT
  1
CONTENTFORMAT_BEGIN
 90
        0
 91
        0
 92
        4
 93
        0
300

 40
0.0
140
1.0
 94
        5
 62
     0
340
7D
144
0.18
309
CONTENTFORMAT_END
171
     1
301
MARGIN
  1
CELLMARGIN_BEGIN
 40
0.06
 40
0.06
 40
0.06
 40
0.06
 40
0.06
 40
0.06
309
CELLMARGIN_END
 94
        6
 95
        1
302
GRIDFORMAT
  1
GRIDFORMAT_BEGIN
 90
        0
 91
        1
 62
     0
 92
       -2
340
7F
 93
        0
 40
0.045
309
GRIDFORMAT_END
 95
        2
302
GRIDFORMAT
  1
GRIDFORMAT_BEGIN
 90
        0
 91
        1
 62
     0
 92
       -2
340
7F
 93
        0
 40
0.045
309
GRIDFORMAT_END
 95
        4
302
GRIDFORMAT
  1
GRIDFORMAT_BEGIN
 90
        0
 91
        1
 62
     0
 92
       -2
340
7F
 93
        0
 40
0.045
309
GRIDFORMAT_END
 95
        8
302
GRIDFORMAT
  1
GRIDFORMAT_BEGIN
 90
        0
 91
        1
 62
     0
 92
       -2
340
7F
 93
        0
 40
0.045
309
GRIDFORMAT_END
 95
       16
302
GRIDFORMAT
  1
GRIDFORMAT_BEGIN
 90
        0
 91
        1
 62
     0
 92
       -2
340
7F
 93
        0
 40
0.045
309
GRIDFORMAT_END
 95
       32
302
GRIDFORMAT
  1
GRIDFORMAT_BEGIN
 90
        0
 91
        1
 62
     0
 92
       -2
340
7F
 93
        0
 40
0.045
309
GRIDFORMAT_END
309
TABLEFORMAT_END
  1
CELLSTYLE_BEGIN
 90
        2
 91
        1
300
_HEADER
309
CELLSTYLE_END
300
CELLSTYLE
  1
TABLEFORMAT_BEGIN
 90
        5
170
     1
 91
        0
 92
        0
 62
   257
 93
        1
300
CONTENTFORMAT
  1
CONTENTFORMAT_BEGIN
 90
        0
 91
        0
 92
        4
 93
        0
300

 40
0.0
140
1.0
 94
        2
 62
     0
340
7D
144
0.18
309
CONTENTFORMAT_END
171
     1
301
MARGIN
  1
CELLMARGIN_BEGIN
 40
0.06
 40
0.06
 40
0.06
 40
0.06
 40
0.06
 40
0.06
309
CELLMARGIN_END
 94
        6
 95
        1
302
GRIDFORMAT
  1
GRIDFORMAT_BEGIN
 90
        0
 91
        1
 62
     0
 92
       -2
340
7F
 93
        0
 40
0.045
309
GRIDFORMAT_END
 95
        2
302
GRIDFORMAT
  1
GRIDFORMAT_BEGIN
 90
        0
 91
        1
 62
     0
 92
       -2
340
7F
 93
        0
 40
0.045
309
GRIDFORMAT_END
 95
        4
302
GRIDFORMAT
  1
GRIDFORMAT_BEGIN
 90
        0
 91
        1
 62
     0
 92
       -2
340
7F
 93
        0
 40
0.045
309
GRIDFORMAT_END
 95
        8
302
GRIDFORMAT
  1
GRIDFORMAT_BEGIN
 90
        0
 91
        1
 62
     0
 92
       -2
340
7F
 93
        0
 40
0.045
309
GRIDFORMAT_END
 95
       16
302
GRIDFORMAT
  1
GRIDFORMAT_BEGIN
 90
        0
 91
        1
 62
     0
 92
       -2
340
7F
 93
        0
 40
0.045
309
GRIDFORMAT_END
 95
       32
302
GRIDFORMAT
  1
GRIDFORMAT_BEGIN
 90
        0
 91
        1
 62
     0
 92
       -2
340
7F
 93
        0
 40
0.045
309
GRIDFORMAT_END
309
TABLEFORMAT_END
  1
CELLSTYLE_BEGIN
 90
        3
 91
        2
300
_DATA
309
CELLSTYLE_END
  0
ENDSEC
  0
EOF
